<svg xmlns="http://www.w3.org/2000/svg" xmlns:xlink="http://www.w3.org/1999/xlink" viewBox="0 0 572.68 420.94"><defs><style>.cls-1{isolation:isolate;}.cls-2{fill:#fff;}.cls-3{fill:url(#linear-gradient);}.cls-4{fill:url(#New_Gradient_Swatch_2);}.cls-5{fill:url(#New_Gradient_Swatch_2-2);}.cls-6{fill:url(#New_Gradient_Swatch_1);}.cls-7{fill:url(#New_Gradient_Swatch_2-3);}.cls-8{fill:url(#New_Gradient_Swatch_2-4);}.cls-9{fill:url(#New_Gradient_Swatch_2-5);}.cls-10,.cls-11,.cls-13,.cls-14,.cls-20,.cls-21,.cls-22,.cls-23,.cls-24,.cls-25,.cls-38,.cls-45,.cls-46,.cls-47{fill:none;stroke-linecap:round;}.cls-10,.cls-11{stroke:#8c8bc4;}.cls-10,.cls-11,.cls-13,.cls-14,.cls-20,.cls-21,.cls-22,.cls-23,.cls-24{stroke-linejoin:round;}.cls-10,.cls-13,.cls-14,.cls-25,.cls-38{stroke-width:20px;}.cls-11{stroke-width:15px;}.cls-12{fill:#f5a6c8;}.cls-13{stroke:url(#New_Gradient_Swatch_1-2);}.cls-14{stroke:url(#New_Gradient_Swatch_1-3);}.cls-15{fill:url(#New_Gradient_Swatch_2-6);}.cls-16{fill:url(#New_Gradient_Swatch_1-4);}.cls-17{fill:url(#New_Gradient_Swatch_2-7);}.cls-18{fill:url(#New_Gradient_Swatch_1-5);}.cls-19{fill:url(#New_Gradient_Swatch_1-6);}.cls-20{stroke:#f5a6c8;mix-blend-mode:multiply;}.cls-20,.cls-21,.cls-22,.cls-23,.cls-24{stroke-width:0.5px;}.cls-21{stroke:url(#New_Gradient_Swatch_1-7);}.cls-22{stroke:url(#New_Gradient_Swatch_1-8);}.cls-23{stroke:url(#New_Gradient_Swatch_1-9);}.cls-24{stroke:url(#New_Gradient_Swatch_1-10);}.cls-25,.cls-38,.cls-45,.cls-46,.cls-47{stroke-miterlimit:10;}.cls-25{stroke:url(#New_Gradient_Swatch_1-11);}.cls-26{fill:url(#linear-gradient-2);}.cls-27{fill:url(#linear-gradient-3);}.cls-28{fill:url(#New_Gradient_Swatch_2-8);}.cls-29{fill:url(#New_Gradient_Swatch_2-9);}.cls-30{fill:url(#New_Gradient_Swatch_2-10);}.cls-31{fill:url(#New_Gradient_Swatch_2-11);}.cls-32{fill:url(#linear-gradient-4);}.cls-33{fill:url(#linear-gradient-5);}.cls-34{fill:url(#New_Gradient_Swatch_2-12);}.cls-35{fill:url(#New_Gradient_Swatch_2-13);}.cls-36{fill:url(#New_Gradient_Swatch_2-14);}.cls-37{fill:url(#New_Gradient_Swatch_2-15);}.cls-38{stroke:url(#New_Gradient_Swatch_1-12);}.cls-39{fill:#8c8bc4;}.cls-40{fill:url(#New_Gradient_Swatch_1-13);}.cls-41{fill:url(#New_Gradient_Swatch_1-14);}.cls-42{fill:url(#New_Gradient_Swatch_1-15);}.cls-43{fill:url(#New_Gradient_Swatch_1-16);}.cls-44{fill:url(#New_Gradient_Swatch_1-17);}.cls-45,.cls-46,.cls-47{stroke-width:2px;}.cls-45{stroke:url(#New_Gradient_Swatch_1-18);}.cls-46{stroke:url(#New_Gradient_Swatch_1-19);}.cls-47{stroke:url(#New_Gradient_Swatch_1-20);}.cls-48{fill:url(#linear-gradient-6);}.cls-49{fill:url(#linear-gradient-7);}.cls-50{fill:url(#linear-gradient-8);}.cls-51{fill:url(#New_Gradient_Swatch_2-16);}.cls-52{fill:url(#New_Gradient_Swatch_2-17);}.cls-53{fill:url(#New_Gradient_Swatch_2-18);}.cls-54{fill:url(#New_Gradient_Swatch_2-19);}.cls-55{fill:url(#linear-gradient-9);}.cls-56{fill:url(#linear-gradient-10);}.cls-57{fill:url(#New_Gradient_Swatch_2-20);}.cls-58{fill:url(#New_Gradient_Swatch_2-21);}.cls-59{fill:url(#New_Gradient_Swatch_2-22);}.cls-60{fill:url(#New_Gradient_Swatch_2-23);}.cls-61{fill:url(#linear-gradient-11);}.cls-62{fill:url(#linear-gradient-12);}.cls-63{fill:url(#New_Gradient_Swatch_2-24);}.cls-64{fill:url(#New_Gradient_Swatch_2-25);}.cls-65{fill:url(#New_Gradient_Swatch_2-26);}.cls-66{fill:url(#New_Gradient_Swatch_2-27);}.cls-67{fill:url(#linear-gradient-13);}.cls-68{fill:url(#linear-gradient-14);}.cls-69{fill:url(#New_Gradient_Swatch_2-28);}.cls-70{fill:url(#New_Gradient_Swatch_2-29);}.cls-71{fill:url(#New_Gradient_Swatch_2-30);}.cls-72{fill:url(#New_Gradient_Swatch_2-31);}.cls-73{fill:url(#New_Gradient_Swatch_1-21);}.cls-74{fill:url(#New_Gradient_Swatch_1-22);}.cls-75{fill:url(#New_Gradient_Swatch_1-23);}</style><linearGradient id="linear-gradient" x1="286.34" y1="427.83" x2="286.34" y2="-8.5" gradientUnits="userSpaceOnUse"><stop offset="0.22" stop-color="#f5a6c8"/><stop offset="0.23" stop-color="#f0a5c8" stop-opacity="0.98"/><stop offset="0.4" stop-color="#b39bc7" stop-opacity="0.68"/><stop offset="0.56" stop-color="#8093c7" stop-opacity="0.44"/><stop offset="0.7" stop-color="#588dc7" stop-opacity="0.25"/><stop offset="0.83" stop-color="#3c88c6" stop-opacity="0.11"/><stop offset="0.93" stop-color="#2a85c6" stop-opacity="0.03"/><stop offset="1" stop-color="#2484c6" stop-opacity="0"/></linearGradient><linearGradient id="New_Gradient_Swatch_2" x1="55.85" y1="308.07" x2="98.44" y2="308.07" gradientUnits="userSpaceOnUse"><stop offset="0" stop-color="#f1666a"/><stop offset="1" stop-color="#ee255c"/></linearGradient><linearGradient id="New_Gradient_Swatch_2-2" x1="338.28" y1="259.16" x2="380.87" y2="259.16" xlink:href="#New_Gradient_Swatch_2"/><linearGradient id="New_Gradient_Swatch_1" x1="352.95" y1="249.16" x2="366.2" y2="249.16" gradientTransform="translate(-2.91 0.43)" gradientUnits="userSpaceOnUse"><stop offset="0" stop-color="#2b3990"/><stop offset="1" stop-color="#262262"/></linearGradient><linearGradient id="New_Gradient_Swatch_2-3" x1="91.61" y1="308.07" x2="134.2" y2="308.07" xlink:href="#New_Gradient_Swatch_2"/><linearGradient id="New_Gradient_Swatch_2-4" x1="77.14" y1="265.48" x2="119.73" y2="265.48" xlink:href="#New_Gradient_Swatch_2"/><linearGradient id="New_Gradient_Swatch_2-5" x1="101.29" y1="145.71" x2="143.88" y2="145.71" xlink:href="#New_Gradient_Swatch_2"/><linearGradient id="New_Gradient_Swatch_1-2" x1="266.9" y1="194.45" x2="409.65" y2="194.45" gradientTransform="matrix(1, 0, 0, 1, 0, 0)" xlink:href="#New_Gradient_Swatch_1"/><linearGradient id="New_Gradient_Swatch_1-3" x1="267.22" y1="264.11" x2="323.55" y2="264.11" gradientTransform="matrix(1, 0, 0, 1, 0, 0)" xlink:href="#New_Gradient_Swatch_1"/><linearGradient id="New_Gradient_Swatch_2-6" x1="224.23" y1="205.87" x2="296.9" y2="205.87" xlink:href="#New_Gradient_Swatch_2"/><linearGradient id="New_Gradient_Swatch_1-4" x1="252.71" y1="145.67" x2="259.4" y2="145.67" gradientTransform="translate(52.94 -67.7) rotate(16.78)" xlink:href="#New_Gradient_Swatch_1"/><linearGradient id="New_Gradient_Swatch_2-7" x1="247.89" y1="158.38" x2="273.23" y2="158.38" gradientTransform="translate(276.89 -146.1) rotate(61.78)" xlink:href="#New_Gradient_Swatch_2"/><linearGradient id="New_Gradient_Swatch_1-5" x1="245.94" y1="138.25" x2="260.52" y2="138.25" gradientTransform="translate(255.28 -150.26) rotate(61.78)" xlink:href="#New_Gradient_Swatch_1"/><linearGradient id="New_Gradient_Swatch_1-6" x1="247.89" y1="152.85" x2="266.55" y2="152.85" gradientTransform="matrix(1, 0, 0, 1, 0, 0)" xlink:href="#New_Gradient_Swatch_1"/><linearGradient id="New_Gradient_Swatch_1-7" x1="267.01" y1="156.04" x2="267.51" y2="156.04" gradientTransform="matrix(1, 0, 0, 1, 0, 0)" xlink:href="#New_Gradient_Swatch_1"/><linearGradient id="New_Gradient_Swatch_1-8" x1="266.35" y1="156.04" x2="268.27" y2="156.04" gradientTransform="matrix(1, 0, 0, 1, 0, 0)" xlink:href="#New_Gradient_Swatch_1"/><linearGradient id="New_Gradient_Swatch_1-9" x1="266.3" y1="156.04" x2="268.22" y2="156.04" gradientTransform="matrix(1, 0, 0, 1, 0, 0)" xlink:href="#New_Gradient_Swatch_1"/><linearGradient id="New_Gradient_Swatch_1-10" x1="266.01" y1="156.04" x2="268.51" y2="156.04" gradientTransform="matrix(1, 0, 0, 1, 0, 0)" xlink:href="#New_Gradient_Swatch_1"/><linearGradient id="New_Gradient_Swatch_1-11" x1="151.19" y1="167.19" x2="241.58" y2="167.19" gradientTransform="matrix(1, 0, 0, 1, 0, 0)" xlink:href="#New_Gradient_Swatch_1"/><linearGradient id="linear-gradient-2" x1="389.82" y1="194.46" x2="409.67" y2="194.46" gradientTransform="translate(591.36 -206.66) rotate(89.59)" gradientUnits="userSpaceOnUse"><stop offset="0" stop-color="#ee255c"/><stop offset="0.03" stop-color="#ee305e"/><stop offset="0.12" stop-color="#f04763"/><stop offset="0.21" stop-color="#f05967"/><stop offset="0.31" stop-color="#f16369"/><stop offset="0.44" stop-color="#f1666a"/><stop offset="0.6" stop-color="#f1666a"/></linearGradient><linearGradient id="linear-gradient-3" x1="400.21" y1="202.46" x2="420.34" y2="202.46" gradientUnits="userSpaceOnUse"><stop offset="0" stop-color="#f1666a"/><stop offset="0.25" stop-color="#f16269"/><stop offset="0.5" stop-color="#f05667"/><stop offset="0.74" stop-color="#ef4262"/><stop offset="0.99" stop-color="#ee265c"/><stop offset="1" stop-color="#ee255c"/></linearGradient><linearGradient id="New_Gradient_Swatch_2-8" x1="406.75" y1="198.48" x2="420.37" y2="198.48" xlink:href="#New_Gradient_Swatch_2"/><linearGradient id="New_Gradient_Swatch_2-9" x1="399.35" y1="186.54" x2="411.21" y2="186.54" xlink:href="#New_Gradient_Swatch_2"/><linearGradient id="New_Gradient_Swatch_2-10" x1="406.75" y1="194.51" x2="420.4" y2="194.51" xlink:href="#New_Gradient_Swatch_2"/><linearGradient id="New_Gradient_Swatch_2-11" x1="405.26" y1="190.58" x2="420.43" y2="190.58" xlink:href="#New_Gradient_Swatch_2"/><linearGradient id="linear-gradient-4" x1="154.99" y1="216.56" x2="174.83" y2="216.56" gradientTransform="translate(327.63 404.6) rotate(179.59)" xlink:href="#linear-gradient-2"/><linearGradient id="linear-gradient-5" x1="165.38" y1="224.55" x2="185.51" y2="224.55" gradientTransform="translate(377.74 24.31) rotate(90)" xlink:href="#linear-gradient-3"/><linearGradient id="New_Gradient_Swatch_2-12" x1="171.91" y1="220.58" x2="185.53" y2="220.58" gradientTransform="translate(377.74 24.31) rotate(90)" xlink:href="#New_Gradient_Swatch_2"/><linearGradient id="New_Gradient_Swatch_2-13" x1="164.51" y1="208.64" x2="176.37" y2="208.64" gradientTransform="translate(377.74 24.31) rotate(90)" xlink:href="#New_Gradient_Swatch_2"/><linearGradient id="New_Gradient_Swatch_2-14" x1="171.91" y1="216.61" x2="185.56" y2="216.61" gradientTransform="translate(377.74 24.31) rotate(90)" xlink:href="#New_Gradient_Swatch_2"/><linearGradient id="New_Gradient_Swatch_2-15" x1="170.43" y1="212.67" x2="185.59" y2="212.67" gradientTransform="translate(377.74 24.31) rotate(90)" xlink:href="#New_Gradient_Swatch_2"/><linearGradient id="New_Gradient_Swatch_1-12" x1="229.89" y1="271.87" x2="255.94" y2="271.87" gradientTransform="matrix(1, 0, 0, 1, 0, 0)" xlink:href="#New_Gradient_Swatch_1"/><linearGradient id="New_Gradient_Swatch_1-13" x1="122.59" y1="319.24" x2="154.6" y2="319.24" gradientTransform="matrix(1, 0, 0, 1, 0, 0)" xlink:href="#New_Gradient_Swatch_1"/><linearGradient id="New_Gradient_Swatch_1-14" x1="453.76" y1="319.24" x2="485.77" y2="319.24" gradientTransform="matrix(1, 0, 0, 1, 0, 0)" xlink:href="#New_Gradient_Swatch_1"/><linearGradient id="New_Gradient_Swatch_1-15" x1="165.19" y1="319.24" x2="197.2" y2="319.24" gradientTransform="matrix(1, 0, 0, 1, 0, 0)" xlink:href="#New_Gradient_Swatch_1"/><linearGradient id="New_Gradient_Swatch_1-16" x1="366.52" y1="303.78" x2="386.43" y2="303.78" gradientTransform="matrix(1, 0, 0, 1, 0, 0)" xlink:href="#New_Gradient_Swatch_1"/><linearGradient id="New_Gradient_Swatch_1-17" x1="263.9" y1="306.09" x2="283.82" y2="306.09" gradientTransform="matrix(1, 0, 0, 1, 0, 0)" xlink:href="#New_Gradient_Swatch_1"/><linearGradient id="New_Gradient_Swatch_1-18" x1="270.98" y1="141.33" x2="276.65" y2="141.33" gradientTransform="matrix(1, 0, 0, 1, 0, 0)" xlink:href="#New_Gradient_Swatch_1"/><linearGradient id="New_Gradient_Swatch_1-19" x1="274.65" y1="145.53" x2="284.07" y2="145.53" gradientTransform="matrix(1, 0, 0, 1, 0, 0)" xlink:href="#New_Gradient_Swatch_1"/><linearGradient id="New_Gradient_Swatch_1-20" x1="275.9" y1="151.78" x2="286.98" y2="151.78" gradientTransform="matrix(1, 0, 0, 1, 0, 0)" xlink:href="#New_Gradient_Swatch_1"/><linearGradient id="linear-gradient-6" x1="-6.89" y1="329.92" x2="579.57" y2="329.92" gradientTransform="matrix(1, 0, 0, -11.35, 0, 4123.75)" gradientUnits="userSpaceOnUse"><stop offset="0" stop-color="#f5a6c8"/><stop offset="1" stop-color="#2484c6" stop-opacity="0.3"/></linearGradient><linearGradient id="linear-gradient-7" x1="176.95" y1="70.61" x2="196.79" y2="70.61" gradientTransform="matrix(-0.01, 1, 1, 0.01, 237.88, 23.81)" xlink:href="#linear-gradient-2"/><linearGradient id="linear-gradient-8" x1="187.34" y1="78.6" x2="207.47" y2="78.6" gradientTransform="matrix(0, 1, 1, 0, 236.55, 24.31)" xlink:href="#linear-gradient-3"/><linearGradient id="New_Gradient_Swatch_2-16" x1="193.87" y1="74.63" x2="207.5" y2="74.63" gradientTransform="matrix(0, 1, 1, 0, 236.55, 24.31)" xlink:href="#New_Gradient_Swatch_2"/><linearGradient id="New_Gradient_Swatch_2-17" x1="186.48" y1="62.69" x2="198.33" y2="62.69" gradientTransform="matrix(0, 1, 1, 0, 236.55, 24.31)" xlink:href="#New_Gradient_Swatch_2"/><linearGradient id="New_Gradient_Swatch_2-18" x1="193.87" y1="70.66" x2="207.53" y2="70.66" gradientTransform="matrix(0, 1, 1, 0, 236.55, 24.31)" xlink:href="#New_Gradient_Swatch_2"/><linearGradient id="New_Gradient_Swatch_2-19" x1="192.39" y1="66.72" x2="207.55" y2="66.72" gradientTransform="matrix(0, 1, 1, 0, 236.55, 24.31)" xlink:href="#New_Gradient_Swatch_2"/><linearGradient id="linear-gradient-9" x1="187.34" y1="-53" x2="207.18" y2="-53" gradientTransform="matrix(1, 0.01, 0.01, -1, -95.02, 75.46)" xlink:href="#linear-gradient-2"/><linearGradient id="linear-gradient-10" x1="197.73" y1="-45.01" x2="217.86" y2="-45.01" gradientTransform="matrix(1, 0, 0, -1, -95.41, 76.87)" xlink:href="#linear-gradient-3"/><linearGradient id="New_Gradient_Swatch_2-20" x1="204.26" y1="-48.98" x2="217.89" y2="-48.98" gradientTransform="matrix(1, 0, 0, -1, -95.41, 76.87)" xlink:href="#New_Gradient_Swatch_2"/><linearGradient id="New_Gradient_Swatch_2-21" x1="196.87" y1="-60.92" x2="208.72" y2="-60.92" gradientTransform="matrix(1, 0, 0, -1, -95.41, 76.87)" xlink:href="#New_Gradient_Swatch_2"/><linearGradient id="New_Gradient_Swatch_2-22" x1="204.26" y1="-52.95" x2="217.92" y2="-52.95" gradientTransform="matrix(1, 0, 0, -1, -95.41, 76.87)" xlink:href="#New_Gradient_Swatch_2"/><linearGradient id="New_Gradient_Swatch_2-23" x1="202.78" y1="-56.89" x2="217.94" y2="-56.89" gradientTransform="matrix(1, 0, 0, -1, -95.41, 76.87)" xlink:href="#New_Gradient_Swatch_2"/><linearGradient id="linear-gradient-11" x1="488.5" y1="142.23" x2="503.59" y2="142.23" gradientTransform="translate(-6.84 9.54) rotate(-0.41)" xlink:href="#linear-gradient-2"/><linearGradient id="linear-gradient-12" x1="496.4" y1="148.31" x2="511.71" y2="148.31" gradientTransform="translate(347.98 644.27) rotate(-90)" xlink:href="#linear-gradient-3"/><linearGradient id="New_Gradient_Swatch_2-24" x1="501.37" y1="145.29" x2="511.73" y2="145.29" gradientTransform="translate(347.98 644.27) rotate(-90)" xlink:href="#New_Gradient_Swatch_2"/><linearGradient id="New_Gradient_Swatch_2-25" x1="495.74" y1="136.2" x2="504.76" y2="136.2" gradientTransform="translate(347.98 644.27) rotate(-90)" xlink:href="#New_Gradient_Swatch_2"/><linearGradient id="New_Gradient_Swatch_2-26" x1="501.37" y1="142.27" x2="511.76" y2="142.27" gradientTransform="translate(347.98 644.27) rotate(-90)" xlink:href="#New_Gradient_Swatch_2"/><linearGradient id="New_Gradient_Swatch_2-27" x1="500.24" y1="139.27" x2="511.78" y2="139.27" gradientTransform="translate(347.98 644.27) rotate(-90)" xlink:href="#New_Gradient_Swatch_2"/><linearGradient id="linear-gradient-13" x1="507.15" y1="1.32" x2="522.25" y2="1.32" gradientTransform="matrix(0.01, -1, -1, -0.01, 346.94, 644.27)" xlink:href="#linear-gradient-2"/><linearGradient id="linear-gradient-14" x1="515.05" y1="7.4" x2="530.37" y2="7.4" gradientTransform="matrix(0, -1, -1, 0, 350.61, 644.27)" xlink:href="#linear-gradient-3"/><linearGradient id="New_Gradient_Swatch_2-28" x1="520.02" y1="4.38" x2="530.39" y2="4.38" gradientTransform="matrix(0, -1, -1, 0, 350.61, 644.27)" xlink:href="#New_Gradient_Swatch_2"/><linearGradient id="New_Gradient_Swatch_2-29" x1="514.4" y1="-4.7" x2="523.42" y2="-4.7" gradientTransform="matrix(0, -1, -1, 0, 350.61, 644.27)" xlink:href="#New_Gradient_Swatch_2"/><linearGradient id="New_Gradient_Swatch_2-30" x1="520.02" y1="1.36" x2="530.41" y2="1.36" gradientTransform="matrix(0, -1, -1, 0, 350.61, 644.27)" xlink:href="#New_Gradient_Swatch_2"/><linearGradient id="New_Gradient_Swatch_2-31" x1="518.9" y1="-1.63" x2="530.43" y2="-1.63" gradientTransform="matrix(0, -1, -1, 0, 350.61, 644.27)" xlink:href="#New_Gradient_Swatch_2"/><linearGradient id="New_Gradient_Swatch_1-21" x1="91.61" y1="254.78" x2="104.86" y2="254.78" gradientTransform="matrix(1, 0, 0, 1, 0, 0)" xlink:href="#New_Gradient_Swatch_1"/><linearGradient id="New_Gradient_Swatch_1-22" x1="125.34" y1="133.75" x2="138.59" y2="133.75" gradientTransform="matrix(1, 0, 0, 1, 0, 0)" xlink:href="#New_Gradient_Swatch_1"/><linearGradient id="New_Gradient_Swatch_1-23" x1="67.68" y1="299.2" x2="80.93" y2="299.2" gradientTransform="matrix(1, 0, 0, 1, 0, 0)" xlink:href="#New_Gradient_Swatch_1"/></defs><title>retain-illustration</title><g class="cls-1"><g id="Layer_1" data-name="Layer 1"><rect class="cls-2" x="-6.89" y="-8.5" width="586.46" height="436.34"/><rect class="cls-3" x="-6.89" y="-8.5" width="586.46" height="436.34"/><rect class="cls-4" x="55.85" y="286.78" width="42.59" height="42.59"/><rect class="cls-5" x="338.28" y="237.86" width="42.59" height="42.59" transform="matrix(0.96, -0.29, 0.29, 0.96, -59.82, 115.76)"/><rect class="cls-6" x="350.04" y="246.84" width="13.25" height="5.5" rx="2.75" ry="2.75" transform="translate(-57.17 114.5) rotate(-16.91)"/><rect class="cls-7" x="91.61" y="286.78" width="42.59" height="42.59"/><rect class="cls-8" x="77.14" y="244.19" width="42.59" height="42.59"/><rect class="cls-9" x="101.29" y="124.42" width="42.59" height="42.59"/><line class="cls-10" x1="187.63" y1="174.45" x2="268.65" y2="174.45"/><path class="cls-11" d="M172.77,276.28a25.67,25.67,0,0,0,25.67-25.67v-28"/><path class="cls-11" d="M442.16,229.86a18.93,18.93,0,0,1,18.93,18.93v66.77"/><line class="cls-11" x1="443.33" y1="158.82" x2="378.65" y2="158.82"/><circle class="cls-12" cx="442.92" cy="194.46" r="42.85"/><circle class="cls-12" cx="185.72" cy="191" r="42.85"/><line class="cls-13" x1="276.9" y1="194.45" x2="399.65" y2="194.45"/><path class="cls-14" d="M277.22,227.78a36.33,36.33,0,0,1,0,72.67"/><path class="cls-10" d="M102.1,130.09a22.89,22.89,0,1,0,0,45.78h56.55"/><path class="cls-11" d="M172.77,276.28a25.67,25.67,0,0,0-25.67,25.67v14.67"/><path class="cls-10" d="M270.81,174.78a36.33,36.33,0,0,1,36.33,36.33"/><circle class="cls-15" cx="260.56" cy="205.87" r="36.33"/><rect class="cls-16" x="253.37" y="142.99" width="5.37" height="5.37" transform="translate(-31.15 80.1) rotate(-16.78)"/><circle class="cls-17" cx="260.56" cy="158.38" r="12.67" transform="translate(-2.22 313.06) rotate(-61.78)"/><circle class="cls-18" cx="253.23" cy="138.25" r="7.29" transform="translate(11.66 295.99) rotate(-61.78)"/><path class="cls-19" d="M248,160a12.67,12.67,0,0,1,18.56-12.77S261.69,159.88,248,160Z"/><circle class="cls-2" cx="267.26" cy="156.04" r="2.41"/><path class="cls-20" d="M270.93,156a3.67,3.67,0,0,1-3.67,3.67"/><line class="cls-21" x1="267.26" y1="155.03" x2="267.26" y2="157.04"/><line class="cls-22" x1="268.02" y1="155.33" x2="266.6" y2="156.75"/><line class="cls-23" x1="267.97" y1="156.75" x2="266.55" y2="155.33"/><line class="cls-24" x1="268.26" y1="156.04" x2="266.26" y2="156.04"/><path class="cls-25" d="M231.58,193.33a23.46,23.46,0,0,1-23.46-23.46v-5.36a23.46,23.46,0,0,0-46.93,0v24.43"/><circle class="cls-26" cx="399.75" cy="194.46" r="9.92" transform="translate(202.44 592.81) rotate(-89.59)"/><path class="cls-27" d="M400.71,200.53h17.63a1.92,1.92,0,0,1,2,1.88h0a2,2,0,0,1-2,2H400.21Z"/><path class="cls-28" d="M406.75,196.43l11.65.13a2,2,0,0,1,2,2h0a2,2,0,0,1-2,2H406.75Z"/><path class="cls-29" d="M399.38,184.52l9.86.07a2,2,0,0,1,2,2h0a2,2,0,0,1-2,2l-9.86-.07Z"/><path class="cls-30" d="M406.78,192.47l11.65.13a2,2,0,0,1,2,2h0a2,2,0,0,1-2,2l-11.65-.13Z"/><path class="cls-31" d="M405.26,188.56h13.17a2.07,2.07,0,0,1,2,2.06h0a2,2,0,0,1-2,2l-13.17-.13Z"/><circle class="cls-32" cx="161.18" cy="189.22" r="9.92" transform="translate(-29.18 349.06) rotate(-89.59)"/><path class="cls-33" d="M155.12,190.19v17.63a1.92,1.92,0,0,1-1.88,2h0a2,2,0,0,1-2-2V189.69Z"/><path class="cls-34" d="M159.21,196.22l-.13,11.65a2,2,0,0,1-2,2h0a2,2,0,0,1-2-2V196.22Z"/><path class="cls-35" d="M171.13,188.85l-.07,9.86a2,2,0,0,1-2,2h0a2,2,0,0,1-2-2l.07-9.86Z"/><path class="cls-36" d="M163.18,196.25l-.13,11.65a2,2,0,0,1-2,2h0a2,2,0,0,1-2-2l.13-11.65Z"/><path class="cls-37" d="M167.09,194.74v13.17a2.07,2.07,0,0,1-2.06,2h0a2,2,0,0,1-2-2l.13-13.17Z"/><line class="cls-38" x1="239.89" y1="311.92" x2="245.94" y2="231.83"/><polyline class="cls-11" points="172.65 314.24 172.65 280.23 172.65 227.39"/><circle class="cls-39" cx="185.72" cy="142.26" r="14.59" transform="translate(-27.46 238.62) rotate(-61.78)"/><circle class="cls-39" cx="446.49" cy="140.08" r="14.59" transform="translate(111.91 467.24) rotate(-61.78)"/><path class="cls-11" d="M490.15,148v65A7.11,7.11,0,1,1,476,213V182.92"/><path class="cls-11" d="M428.1,223.28V265.7A29.34,29.34,0,0,1,398.77,295H380.65"/><path class="cls-11" d="M349.29,129.46a29.34,29.34,0,0,0,29.36,29.36"/><path class="cls-40" d="M124.94,329.19H154.6V309.28l-30.72,15.47A2.35,2.35,0,0,0,124.94,329.19Z"/><path class="cls-39" d="M257.85,329.19H228.19l2-19.92,28.72,15.47A2.35,2.35,0,0,1,257.85,329.19Z"/><path class="cls-41" d="M483.42,329.19H453.76V309.28l30.72,15.47A2.35,2.35,0,0,1,483.42,329.19Z"/><path class="cls-42" d="M194.85,329.19H165.19V309.28l30.72,15.47A2.35,2.35,0,0,1,194.85,329.19Z"/><path class="cls-43" d="M366.52,317.44V287.78h19.92L371,318.49A2.35,2.35,0,0,1,366.52,317.44Z"/><path class="cls-44" d="M263.9,320.22V290.56c9.42.17,16.91,0,19.92-1l-15.47,31.67A2.35,2.35,0,0,1,263.9,320.22Z"/><line class="cls-45" x1="271.98" y1="145.71" x2="275.65" y2="136.95"/><line class="cls-46" x1="275.65" y1="147.49" x2="283.07" y2="143.58"/><line class="cls-47" x1="276.9" y1="151.99" x2="285.98" y2="151.57"/><rect class="cls-48" x="-6.89" y="329.37" width="586.46" height="98.47"/><circle class="cls-49" cx="307.15" cy="211.19" r="9.92" transform="translate(-1.5 2.19) rotate(-0.41)"/><path class="cls-50" d="M313.22,212.15v17.63a1.92,1.92,0,0,0,1.88,2h0a2,2,0,0,0,2-2V211.65Z"/><path class="cls-51" d="M309.13,218.19l.13,11.65a2,2,0,0,0,2,2h0a2,2,0,0,0,2-2V218.19Z"/><path class="cls-52" d="M297.21,210.82l.07,9.86a2,2,0,0,0,2,2h0a2,2,0,0,0,2-2l-.07-9.86Z"/><path class="cls-53" d="M305.16,218.22l.13,11.65a2,2,0,0,0,2,2h0a2,2,0,0,0,2-2l-.13-11.65Z"/><path class="cls-54" d="M301.25,216.7v13.17a2.07,2.07,0,0,0,2.06,2h0a2,2,0,0,0,2-2l-.13-13.17Z"/><circle class="cls-55" cx="101.85" cy="129.87" r="9.92" transform="translate(-0.92 0.73) rotate(-0.41)"/><path class="cls-56" d="M102.82,123.8h17.63a1.92,1.92,0,0,0,2-1.88h0a2,2,0,0,0-2-2H102.32Z"/><path class="cls-57" d="M108.86,127.89l11.65-.13a2,2,0,0,0,2-2h0a2,2,0,0,0-2-2H108.86Z"/><path class="cls-58" d="M101.49,139.81l9.86-.07a2,2,0,0,0,2-2h0a2,2,0,0,0-2-2l-9.86.07Z"/><path class="cls-59" d="M108.88,131.86l11.65-.13a2,2,0,0,0,2-2h0a2,2,0,0,0-2-2l-11.65.13Z"/><path class="cls-60" d="M107.37,135.77h13.17a2.07,2.07,0,0,0,2-2.06h0a2,2,0,0,0-2-2l-13.17.13Z"/><circle class="cls-61" cx="490.21" cy="148.23" r="7.55" transform="translate(338.49 637.37) rotate(-89.59)"/><path class="cls-62" d="M494.82,147.49V134.09a1.46,1.46,0,0,1,1.43-1.52h0a1.51,1.51,0,0,1,1.5,1.52v13.79Z"/><path class="cls-63" d="M491.71,142.9l.1-8.86a1.51,1.51,0,0,1,1.52-1.5h0a1.51,1.51,0,0,1,1.5,1.52v8.84Z"/><path class="cls-64" d="M482.64,148.51l.05-7.5a1.51,1.51,0,0,1,1.52-1.5h0a1.51,1.51,0,0,1,1.5,1.52l-.05,7.5Z"/><path class="cls-65" d="M488.69,142.88l.1-8.86a1.51,1.51,0,0,1,1.52-1.5h0a1.51,1.51,0,0,1,1.5,1.52l-.1,8.86Z"/><path class="cls-66" d="M485.72,144V134a1.57,1.57,0,0,1,1.57-1.52h0a1.51,1.51,0,0,1,1.5,1.52l-.1,10Z"/><circle class="cls-67" cx="349.29" cy="129.58" r="7.55" transform="translate(-0.91 2.49) rotate(-0.41)"/><path class="cls-68" d="M344.67,128.84V115.43a1.46,1.46,0,0,0-1.43-1.52h0a1.51,1.51,0,0,0-1.5,1.52v13.79Z"/><path class="cls-69" d="M347.78,124.25l-.1-8.86a1.51,1.51,0,0,0-1.52-1.5h0a1.51,1.51,0,0,0-1.5,1.52v8.84Z"/><path class="cls-70" d="M356.85,129.86l-.05-7.5a1.51,1.51,0,0,0-1.52-1.5h0a1.51,1.51,0,0,0-1.5,1.52l.05,7.5Z"/><path class="cls-71" d="M350.8,124.23l-.1-8.86a1.51,1.51,0,0,0-1.52-1.5h0a1.51,1.51,0,0,0-1.5,1.52l.1,8.86Z"/><path class="cls-72" d="M353.78,125.38v-10a1.57,1.57,0,0,0-1.57-1.52h0a1.51,1.51,0,0,0-1.5,1.52l.1,10Z"/><rect class="cls-73" x="91.61" y="252.03" width="13.25" height="5.5" rx="2.75" ry="2.75"/><rect class="cls-74" x="125.34" y="131" width="13.25" height="5.5" rx="2.75" ry="2.75"/><rect class="cls-75" x="67.68" y="296.45" width="13.25" height="5.5" rx="2.75" ry="2.75"/></g></g></svg>