<svg width="462" height="388" viewBox="0 0 462 388" version="1.1" xmlns="http://www.w3.org/2000/svg" xmlns:xlink="http://www.w3.org/1999/xlink">
<title>super-model-logo</title>
<desc>Created using Figma</desc>
<g id="Canvas" transform="translate(291 172)">
<g id="super-model-logo">
<g id="Vector">
<use xlink:href="#path0_fill" transform="translate(-264 -152)" fill="#F3EA71"/>
</g>
<g id="Vector 2">
<use xlink:href="#path1_stroke" transform="translate(-191 -114)" fill="#F25757"/>
</g>
<g id="Vector">
<use xlink:href="#path2_stroke" transform="translate(-264 -152)" fill="#F25757"/>
</g>
</g>
</g>
<defs>
<path id="path0_fill" d="M 72 0L 0 69L 204 335L 408 69L 336 0L 72 0Z"/>
<path id="path1_stroke" d="M 88.9688 93.2899L 99.4762 76.2724L 88.1485 69.2781L 77.3245 77.0291L 88.9688 93.2899ZM 136.875 122.87L 126.368 139.887L 138.3 147.255L 149.293 138.547L 136.875 122.87ZM 11.6442 173.261L 100.613 109.551L 77.3245 77.0291L -11.6442 140.739L 11.6442 173.261ZM 78.4613 110.307L 126.368 139.887L 147.382 105.852L 99.4762 76.2724L 78.4613 110.307ZM 149.293 138.547L 304.418 15.6779L 279.582 -15.6779L 124.457 107.192L 149.293 138.547Z"/>
<path id="path2_stroke" d="M 72 0L 72 -20L 63.9639 -20L 58.1619 -14.4398L 72 0ZM 0 69L -13.8381 54.5602L -26.7724 66.9556L -15.8702 81.1711L 0 69ZM 204 335L 188.13 347.171L 204 367.865L 219.87 347.171L 204 335ZM 336 0L 349.838 -14.4398L 344.036 -20L 336 -20L 336 0ZM 408 69L 423.87 81.1711L 434.772 66.9556L 421.838 54.5602L 408 69ZM 58.1619 -14.4398L -13.8381 54.5602L 13.8381 83.4398L 85.8381 14.4398L 58.1619 -14.4398ZM -15.8702 81.1711L 188.13 347.171L 219.87 322.829L 15.8702 56.8289L -15.8702 81.1711ZM 322.162 14.4398L 394.162 83.4398L 421.838 54.5602L 349.838 -14.4398L 322.162 14.4398ZM 392.13 56.8289L 188.13 322.829L 219.87 347.171L 423.87 81.1711L 392.13 56.8289ZM 72 20L 336 20L 336 -20L 72 -20L 72 20Z"/>
</defs>
</svg>
