<svg xmlns="http://www.w3.org/2000/svg" xmlns:xlink="http://www.w3.org/1999/xlink" viewBox="0 0 435.85 536.03"><defs><style>.cls-1{isolation:isolate;}.cls-2{fill:#fff;}.cls-3{fill:url(#linear-gradient);}.cls-10,.cls-11,.cls-12,.cls-4,.cls-42,.cls-43,.cls-44,.cls-48,.cls-49,.cls-5,.cls-50,.cls-52,.cls-53,.cls-55,.cls-56,.cls-6,.cls-8{fill:none;}.cls-12,.cls-4,.cls-44,.cls-48,.cls-49,.cls-5,.cls-50,.cls-51,.cls-52,.cls-53,.cls-55,.cls-56,.cls-6,.cls-8{stroke-linecap:round;}.cls-12,.cls-4,.cls-48,.cls-49,.cls-5,.cls-50,.cls-51,.cls-52,.cls-53,.cls-55,.cls-56,.cls-6,.cls-8{stroke-linejoin:round;}.cls-12,.cls-4,.cls-5,.cls-6,.cls-8{stroke-width:50px;}.cls-4{stroke:url(#New_Gradient_Swatch_1);}.cls-5{stroke:url(#New_Gradient_Swatch_1-2);}.cls-6{stroke:url(#New_Gradient_Swatch_1-3);}.cls-7{fill:url(#New_Gradient_Swatch_2);}.cls-8{stroke:url(#New_Gradient_Swatch_1-4);}.cls-9{fill:#8c8bc4;}.cls-10,.cls-51,.cls-56{stroke:#fff;}.cls-10,.cls-11,.cls-42,.cls-43,.cls-44{stroke-miterlimit:10;}.cls-10,.cls-11{stroke-width:6px;}.cls-11{stroke:#8c8bc4;}.cls-12{stroke:url(#New_Gradient_Swatch_1-5);}.cls-13{fill:url(#New_Gradient_Swatch_2-2);}.cls-14{fill:url(#New_Gradient_Swatch_1-6);}.cls-15{fill:url(#New_Gradient_Swatch_1-7);}.cls-16{fill:url(#New_Gradient_Swatch_2-3);}.cls-17{fill:url(#New_Gradient_Swatch_1-8);}.cls-18{fill:url(#New_Gradient_Swatch_2-4);}.cls-19{fill:url(#New_Gradient_Swatch_2-5);}.cls-20{fill:url(#New_Gradient_Swatch_2-6);}.cls-21{fill:url(#New_Gradient_Swatch_2-7);}.cls-22{fill:url(#New_Gradient_Swatch_2-8);}.cls-23{fill:url(#New_Gradient_Swatch_2-9);}.cls-24{fill:url(#New_Gradient_Swatch_2-10);}.cls-25{fill:url(#New_Gradient_Swatch_2-11);}.cls-26{fill:url(#New_Gradient_Swatch_2-12);}.cls-27{fill:url(#New_Gradient_Swatch_2-13);}.cls-28{fill:url(#New_Gradient_Swatch_2-14);}.cls-29{fill:url(#linear-gradient-2);}.cls-30{fill:url(#New_Gradient_Swatch_2-15);}.cls-31{fill:url(#New_Gradient_Swatch_2-16);}.cls-32{fill:url(#New_Gradient_Swatch_2-17);}.cls-33{fill:url(#New_Gradient_Swatch_2-18);}.cls-34{fill:url(#linear-gradient-3);}.cls-35{fill:url(#linear-gradient-4);}.cls-36{fill:url(#New_Gradient_Swatch_2-19);}.cls-37{fill:url(#New_Gradient_Swatch_2-20);}.cls-38{fill:url(#New_Gradient_Swatch_2-21);}.cls-39{fill:url(#New_Gradient_Swatch_2-22);}.cls-40{fill:url(#New_Gradient_Swatch_2-23);}.cls-41,.cls-55{mix-blend-mode:multiply;}.cls-42,.cls-44{stroke:#f1666a;}.cls-42,.cls-43,.cls-44{stroke-width:11px;}.cls-43{stroke:url(#New_Gradient_Swatch_2-24);}.cls-45{fill:url(#New_Gradient_Swatch_2-25);}.cls-46{fill:url(#New_Gradient_Swatch_1-9);}.cls-47{fill:url(#New_Gradient_Swatch_1-10);}.cls-48,.cls-49,.cls-50{stroke-width:3px;}.cls-48{stroke:url(#New_Gradient_Swatch_2-26);}.cls-49{stroke:url(#New_Gradient_Swatch_2-27);}.cls-50{stroke:url(#New_Gradient_Swatch_2-28);}.cls-51{fill:#0d5b73;stroke-width:4px;}.cls-52,.cls-53{stroke-width:7px;}.cls-52{stroke:url(#New_Gradient_Swatch_1-11);}.cls-53{stroke:url(#New_Gradient_Swatch_1-12);}.cls-54{fill:url(#New_Gradient_Swatch_1-13);}.cls-55{stroke:#f5a6c8;stroke-width:2px;}</style><linearGradient id="linear-gradient" x1="217.92" y1="542.92" x2="217.92" y2="-8.5" gradientUnits="userSpaceOnUse"><stop offset="0.32" stop-color="#f5a6c8"/><stop offset="1" stop-color="#2484c6" stop-opacity="0"/></linearGradient><linearGradient id="New_Gradient_Swatch_1" x1="17.64" y1="372.92" x2="247.72" y2="372.92" gradientUnits="userSpaceOnUse"><stop offset="0" stop-color="#2b3990"/><stop offset="1" stop-color="#262262"/></linearGradient><linearGradient id="New_Gradient_Swatch_1-2" x1="139.93" y1="74.4" x2="305.51" y2="74.4" xlink:href="#New_Gradient_Swatch_1"/><linearGradient id="New_Gradient_Swatch_1-3" x1="169.91" y1="256.74" x2="169.91" y2="142.3" xlink:href="#New_Gradient_Swatch_1"/><linearGradient id="New_Gradient_Swatch_2" x1="144.3" y1="281.51" x2="314.02" y2="281.51" gradientUnits="userSpaceOnUse"><stop offset="0" stop-color="#f1666a"/><stop offset="1" stop-color="#ee255c"/></linearGradient><linearGradient id="New_Gradient_Swatch_1-4" x1="204.16" y1="153.07" x2="415.66" y2="153.07" xlink:href="#New_Gradient_Swatch_1"/><linearGradient id="New_Gradient_Swatch_1-5" x1="242.51" y1="402.99" x2="351.95" y2="402.99" xlink:href="#New_Gradient_Swatch_1"/><linearGradient id="New_Gradient_Swatch_2-2" x1="189.43" y1="165.01" x2="268.89" y2="165.01" xlink:href="#New_Gradient_Swatch_2"/><linearGradient id="New_Gradient_Swatch_1-6" x1="189.43" y1="151.61" x2="229.16" y2="151.61" xlink:href="#New_Gradient_Swatch_1"/><linearGradient id="New_Gradient_Swatch_1-7" x1="159.08" y1="135.52" x2="197.19" y2="135.52" xlink:href="#New_Gradient_Swatch_1"/><linearGradient id="New_Gradient_Swatch_2-3" x1="10.59" y1="96.51" x2="77.73" y2="96.51" gradientTransform="translate(81.18 -2.96) rotate(45)" xlink:href="#New_Gradient_Swatch_2"/><linearGradient id="New_Gradient_Swatch_1-8" x1="14.49" y1="74.71" x2="117.45" y2="74.71" gradientTransform="translate(72.15 -24.76) rotate(45)" xlink:href="#New_Gradient_Swatch_1"/><linearGradient id="New_Gradient_Swatch_2-4" x1="35.83" y1="76.19" x2="52.58" y2="76.19" gradientTransform="translate(66.82 -8.94) rotate(45)" xlink:href="#New_Gradient_Swatch_2"/><linearGradient id="New_Gradient_Swatch_2-5" x1="47.45" y1="64.57" x2="64.2" y2="64.57" gradientTransform="translate(62.01 -20.56) rotate(45)" xlink:href="#New_Gradient_Swatch_2"/><linearGradient id="New_Gradient_Swatch_2-6" x1="59.07" y1="52.94" x2="75.83" y2="52.94" gradientTransform="translate(57.19 -32.19) rotate(45)" xlink:href="#New_Gradient_Swatch_2"/><linearGradient id="New_Gradient_Swatch_2-7" x1="46.48" y1="86.85" x2="63.23" y2="86.85" gradientTransform="translate(77.48 -13.35) rotate(45)" xlink:href="#New_Gradient_Swatch_2"/><linearGradient id="New_Gradient_Swatch_2-8" x1="58.25" y1="75.37" x2="75" y2="75.37" gradientTransform="translate(72.81 -25.04) rotate(45)" xlink:href="#New_Gradient_Swatch_2"/><linearGradient id="New_Gradient_Swatch_2-9" x1="69.87" y1="63.74" x2="86.62" y2="63.74" gradientTransform="translate(67.99 -36.66) rotate(45)" xlink:href="#New_Gradient_Swatch_2"/><linearGradient id="New_Gradient_Swatch_2-10" x1="57.28" y1="97.65" x2="74.03" y2="97.65" gradientTransform="translate(88.28 -17.82) rotate(45)" xlink:href="#New_Gradient_Swatch_2"/><linearGradient id="New_Gradient_Swatch_2-11" x1="68.9" y1="86.02" x2="85.65" y2="86.02" gradientTransform="translate(83.46 -29.45) rotate(45)" xlink:href="#New_Gradient_Swatch_2"/><linearGradient id="New_Gradient_Swatch_2-12" x1="80.53" y1="74.4" x2="97.28" y2="74.4" gradientTransform="translate(78.65 -41.07) rotate(45)" xlink:href="#New_Gradient_Swatch_2"/><linearGradient id="New_Gradient_Swatch_2-13" x1="68.08" y1="102.63" x2="96.45" y2="102.63" gradientTransform="translate(96.67 -28.11) rotate(45)" xlink:href="#New_Gradient_Swatch_2"/><linearGradient id="New_Gradient_Swatch_2-14" x1="91.33" y1="85.2" x2="108.08" y2="85.2" gradientTransform="translate(89.44 -45.55) rotate(45)" xlink:href="#New_Gradient_Swatch_2"/><linearGradient id="linear-gradient-2" x1="140.96" y1="74.47" x2="191.24" y2="74.47" gradientTransform="translate(239.39 -92.15) rotate(89.59)" gradientUnits="userSpaceOnUse"><stop offset="0" stop-color="#ee255c"/><stop offset="0.48" stop-color="#ee255c"/><stop offset="0.53" stop-color="#ee255c"/><stop offset="0.64" stop-color="#ee2f5e"/><stop offset="0.84" stop-color="#f04a64"/><stop offset="1" stop-color="#f1666a"/></linearGradient><linearGradient id="New_Gradient_Swatch_2-15" x1="126.42" y1="54.27" x2="164.22" y2="54.27" gradientTransform="translate(-0.38 1.04) rotate(-0.41)" xlink:href="#New_Gradient_Swatch_2"/><linearGradient id="New_Gradient_Swatch_2-16" x1="126.35" y1="64.33" x2="164.15" y2="64.33" gradientTransform="translate(-0.45 1.04) rotate(-0.41)" xlink:href="#New_Gradient_Swatch_2"/><linearGradient id="New_Gradient_Swatch_2-17" x1="137.06" y1="94.52" x2="167.1" y2="94.52" xlink:href="#New_Gradient_Swatch_2"/><linearGradient id="New_Gradient_Swatch_2-18" x1="126.28" y1="74.39" x2="164.08" y2="74.39" gradientTransform="translate(-0.53 1.04) rotate(-0.41)" xlink:href="#New_Gradient_Swatch_2"/><linearGradient id="linear-gradient-3" x1="99.7" y1="84.35" x2="164.01" y2="84.35" gradientTransform="translate(-0.6 0.94) rotate(-0.41)" gradientUnits="userSpaceOnUse"><stop offset="0.4" stop-color="#f1666a"/><stop offset="1" stop-color="#ee255c"/></linearGradient><linearGradient id="linear-gradient-4" x1="272.09" y1="167.23" x2="322.37" y2="167.23" gradientTransform="translate(462.34 -131.19) rotate(89.59)" gradientUnits="userSpaceOnUse"><stop offset="0" stop-color="#ee255c"/><stop offset="0.02" stop-color="#ee2b5d"/><stop offset="0.11" stop-color="#ef4162"/><stop offset="0.21" stop-color="#f05266"/><stop offset="0.33" stop-color="#f15d68"/><stop offset="0.51" stop-color="#f1646a"/><stop offset="1" stop-color="#f1666a"/></linearGradient><linearGradient id="New_Gradient_Swatch_2-19" x1="299.11" y1="187.43" x2="336.91" y2="187.43" gradientTransform="translate(637.38 372.62) rotate(179.59)" xlink:href="#New_Gradient_Swatch_2"/><linearGradient id="New_Gradient_Swatch_2-20" x1="299.18" y1="177.37" x2="336.98" y2="177.37" gradientTransform="translate(637.45 352.51) rotate(179.59)" xlink:href="#New_Gradient_Swatch_2"/><linearGradient id="New_Gradient_Swatch_2-21" x1="296.23" y1="147.15" x2="326.27" y2="147.15" xlink:href="#New_Gradient_Swatch_2"/><linearGradient id="New_Gradient_Swatch_2-22" x1="299.25" y1="167.32" x2="337.05" y2="167.32" gradientTransform="translate(637.52 332.4) rotate(179.59)" xlink:href="#New_Gradient_Swatch_2"/><linearGradient id="New_Gradient_Swatch_2-23" x1="299.32" y1="157.35" x2="363.63" y2="157.35" gradientTransform="translate(664.1 312.38) rotate(179.59)" xlink:href="#New_Gradient_Swatch_2"/><linearGradient id="New_Gradient_Swatch_2-24" x1="92.62" y1="384.06" x2="301.97" y2="384.06" xlink:href="#New_Gradient_Swatch_2"/><linearGradient id="New_Gradient_Swatch_2-25" x1="379.17" y1="423.86" x2="397.76" y2="423.86" xlink:href="#New_Gradient_Swatch_2"/><linearGradient id="New_Gradient_Swatch_1-9" x1="383.82" y1="361.95" x2="393.11" y2="361.95" xlink:href="#New_Gradient_Swatch_1"/><linearGradient id="New_Gradient_Swatch_1-10" x1="384.37" y1="473.69" x2="392.56" y2="473.69" xlink:href="#New_Gradient_Swatch_1"/><linearGradient id="New_Gradient_Swatch_2-26" x1="338.7" y1="282.86" x2="374.07" y2="282.86" xlink:href="#New_Gradient_Swatch_2"/><linearGradient id="New_Gradient_Swatch_2-27" x1="357.06" y1="282.07" x2="392.05" y2="282.07" xlink:href="#New_Gradient_Swatch_2"/><linearGradient id="New_Gradient_Swatch_2-28" x1="344.8" y1="282.12" x2="380.77" y2="282.12" xlink:href="#New_Gradient_Swatch_2"/><linearGradient id="New_Gradient_Swatch_1-11" x1="94.56" y1="335.14" x2="125.36" y2="335.14" xlink:href="#New_Gradient_Swatch_1"/><linearGradient id="New_Gradient_Swatch_1-12" x1="94.65" y1="355.8" x2="113.64" y2="355.8" xlink:href="#New_Gradient_Swatch_1"/><linearGradient id="New_Gradient_Swatch_1-13" x1="238.82" y1="146.42" x2="253.82" y2="146.42" xlink:href="#New_Gradient_Swatch_1"/></defs><title>SuperModel-cover-illustratie</title><g class="cls-1"><g id="Layer_1" data-name="Layer 1"><rect class="cls-2" x="-6.89" y="-8.5" width="449.62" height="551.42"/><rect class="cls-3" x="-6.89" y="-8.5" width="449.62" height="551.42"/><path class="cls-4" d="M42.64,418.53v-72a55.49,55.49,0,0,1,111,0v73.65a34.56,34.56,0,1,0,69.11,0V363.59"/><line class="cls-5" x1="164.93" y1="74.4" x2="280.51" y2="74.4"/><path class="cls-6" d="M218.18,231.74H77.44c-19.22,0-34.81-14.43-34.81-32.22S58.22,167.3,77.44,167.3H297.18"/><circle class="cls-7" cx="229.16" cy="281.51" r="84.86"/><path class="cls-8" d="M312,74.4a78.67,78.67,0,1,1,0,157.35H229.16"/><rect class="cls-9" x="282.92" y="41.48" width="107.9" height="80" transform="translate(184.07 392.56) rotate(-77.44)"/><line class="cls-10" x1="318.21" y1="41.25" x2="370.84" y2="52.98"/><line class="cls-10" x1="313.86" y1="60.77" x2="366.49" y2="72.5"/><line class="cls-10" x1="309.51" y1="80.29" x2="362.14" y2="92.02"/><line class="cls-10" x1="305.16" y1="99.82" x2="327.6" y2="104.82"/><rect class="cls-2" x="223.02" y="34.39" width="80" height="107.9"/><line class="cls-11" x1="236.06" y1="53.14" x2="289.98" y2="53.14"/><line class="cls-11" x1="236.06" y1="73.14" x2="289.98" y2="73.14"/><line class="cls-11" x1="236.06" y1="93.14" x2="289.98" y2="93.14"/><line class="cls-11" x1="236.06" y1="113.14" x2="259.06" y2="113.14"/><path class="cls-12" d="M267.51,319.45a59.44,59.44,0,0,1,59.44,59.44V486.53"/><circle class="cls-13" cx="229.16" cy="165.01" r="39.73"/><path class="cls-14" d="M189.43,165a39.65,39.65,0,0,0,2.16,12.92h9a28.54,28.54,0,0,0,28.54-28.54V125.29A39.73,39.73,0,0,0,189.43,165Z"/><circle class="cls-15" cx="178.13" cy="135.52" r="19.06"/><rect class="cls-16" x="41.4" y="51.79" width="5.51" height="89.45" transform="translate(-55.31 59.49) rotate(-45)"/><rect class="cls-17" x="37.89" y="29.98" width="56.16" height="89.45" transform="translate(-33.51 68.53) rotate(-45)"/><rect class="cls-2" x="22.66" y="47.85" width="44.72" height="11.84" transform="translate(-24.83 47.59) rotate(-45)"/><rect class="cls-18" x="38.28" y="70.27" width="11.84" height="11.84" transform="translate(-40.93 53.57) rotate(-45)"/><rect class="cls-19" x="49.9" y="58.65" width="11.84" height="11.84" transform="translate(-29.31 58.39) rotate(-45)"/><rect class="cls-20" x="61.53" y="47.02" width="11.84" height="11.84" transform="translate(-17.68 63.2) rotate(-45)"/><rect class="cls-21" x="48.93" y="80.92" width="11.84" height="11.84" transform="translate(-45.34 64.23) rotate(-45)"/><rect class="cls-22" x="60.7" y="69.44" width="11.84" height="11.84" transform="translate(-33.78 69.18) rotate(-45)"/><rect class="cls-23" x="72.33" y="57.82" width="11.84" height="11.84" transform="translate(-22.15 74) rotate(-45)"/><rect class="cls-24" x="59.73" y="91.72" width="11.84" height="11.84" transform="translate(-49.82 75.02) rotate(-45)"/><rect class="cls-25" x="71.36" y="80.1" width="11.84" height="11.84" transform="translate(-38.19 79.84) rotate(-45)"/><rect class="cls-26" x="82.98" y="68.47" width="11.84" height="11.84" transform="translate(-26.57 84.65) rotate(-45)"/><rect class="cls-27" x="68.12" y="96.71" width="28.28" height="11.84" transform="translate(-48.48 88.23) rotate(-45)"/><rect class="cls-28" x="93.78" y="79.27" width="11.84" height="11.84" transform="translate(-31.04 95.45) rotate(-45)"/><circle class="cls-29" cx="166.1" cy="74.47" r="25.14" transform="translate(90.44 240.04) rotate(-89.59)"/><path class="cls-30" d="M131.45,49.23h32.74a0,0,0,0,1,0,0V59.28a0,0,0,0,1,0,0H131.45a5,5,0,0,1-5-5v0a5,5,0,0,1,5-5Z" transform="translate(0.39 -1.03) rotate(0.41)"/><path class="cls-31" d="M131.38,59.28h32.74a0,0,0,0,1,0,0V69.34a0,0,0,0,1,0,0H131.38a5,5,0,0,1-5-5v0A5,5,0,0,1,131.38,59.28Z" transform="translate(0.46 -1.03) rotate(0.41)"/><path class="cls-32" d="M165.92,99.62,142,99.49a5,5,0,0,1-5-5.06h0a5,5,0,0,1,5.06-5l25,.18Z"/><path class="cls-33" d="M131.31,69.34H164a0,0,0,0,1,0,0V79.4a0,0,0,0,1,0,0H131.31a5,5,0,0,1-5-5v0a5,5,0,0,1,5-5Z" transform="translate(0.53 -1.03) rotate(0.41)"/><path class="cls-34" d="M104.73,79.3H164a0,0,0,0,1,0,0V89.36a0,0,0,0,1,0,0H104.73a5,5,0,0,1-5-5v0a5,5,0,0,1,5-5Z" transform="translate(0.6 -0.94) rotate(0.41)"/><circle class="cls-35" cx="297.23" cy="167.23" r="25.14" transform="translate(127.89 463.26) rotate(-89.59)"/><path class="cls-36" d="M304.17,182.42h32.74a0,0,0,0,1,0,0v10.06a0,0,0,0,1,0,0H304.17a5,5,0,0,1-5-5v0A5,5,0,0,1,304.17,182.42Z" transform="translate(634.71 377.15) rotate(-179.59)"/><path class="cls-37" d="M304.24,172.36H337a0,0,0,0,1,0,0v10.06a0,0,0,0,1,0,0H304.24a5,5,0,0,1-5-5v0a5,5,0,0,1,5-5Z" transform="translate(634.92 357.04) rotate(-179.59)"/><path class="cls-38" d="M296.3,142l25,.18a5,5,0,0,1,5,5.06h0a5,5,0,0,1-5.06,5l-25-.18Z"/><path class="cls-39" d="M304.31,162.3h32.74a0,0,0,0,1,0,0v10.06a0,0,0,0,1,0,0H304.31a5,5,0,0,1-5-5v0A5,5,0,0,1,304.31,162.3Z" transform="translate(635.14 336.93) rotate(-179.59)"/><path class="cls-40" d="M304.38,152.34h59.24a0,0,0,0,1,0,0V162.4a0,0,0,0,1,0,0H304.38a5,5,0,0,1-5-5v0A5,5,0,0,1,304.38,152.34Z" transform="translate(661.86 317.1) rotate(-179.59)"/><g class="cls-41"><path class="cls-9" d="M388.47,520.57H302V462.48l89.58,45.12A6.85,6.85,0,0,1,388.47,520.57Z"/></g><line class="cls-42" x1="98.12" y1="128.72" x2="98.12" y2="206.74"/><polyline class="cls-43" points="98.12 256.76 98.12 505.86 301.97 505.86"/><polyline class="cls-44" points="63.95 520.7 127.19 457.45 153.72 483.98 245.95 391.76 277.27 423.09 391.03 313.99"/><rect class="cls-45" x="379.17" y="374.03" width="18.6" height="99.66"/><polygon class="cls-2" points="388.47 357.93 379.17 374.03 397.76 374.03 388.47 357.93"/><polygon class="cls-2" points="379.17 468.32 379.17 479.06 388.47 484.43 397.76 479.06 397.76 468.32 388.47 462.95 379.17 468.32"/><polygon class="cls-46" points="388.47 357.93 383.82 365.98 393.12 365.98 388.47 357.93"/><circle class="cls-47" cx="388.47" cy="473.69" r="4.1"/><path class="cls-48" d="M358.56,303.5a10.76,10.76,0,0,1-15.21-15.21l29.21-29.21"/><path class="cls-49" d="M377.43,262.9a7.68,7.68,0,1,1,10.86,10.86L358.56,303.5"/><path class="cls-50" d="M376.91,263.42,347.7,292.63a4.79,4.79,0,0,0,6.78,6.78l24.8-24.8"/><circle class="cls-9" cx="98.12" cy="345.76" r="46.03"/><line class="cls-51" x1="98.12" y1="307.11" x2="98.12" y2="316.08"/><line class="cls-51" x1="117.46" y1="312.3" x2="112.98" y2="320.06"/><line class="cls-51" x1="131.61" y1="326.47" x2="123.84" y2="330.94"/><line class="cls-51" x1="136.77" y1="345.82" x2="127.81" y2="345.81"/><line class="cls-51" x1="131.56" y1="365.15" x2="123.8" y2="360.65"/><line class="cls-51" x1="117.37" y1="379.28" x2="112.9" y2="371.51"/><line class="cls-51" x1="98.01" y1="384.41" x2="98.04" y2="375.45"/><line class="cls-51" x1="78.69" y1="379.17" x2="83.19" y2="371.42"/><line class="cls-51" x1="64.58" y1="364.96" x2="72.36" y2="360.51"/><line class="cls-51" x1="59.47" y1="345.6" x2="68.44" y2="345.64"/><line class="cls-51" x1="64.74" y1="326.28" x2="72.48" y2="330.8"/><line class="cls-51" x1="78.97" y1="312.19" x2="83.41" y2="319.98"/><line class="cls-52" x1="121.86" y1="324.46" x2="98.06" y2="345.82"/><line class="cls-53" x1="110.14" y1="365.79" x2="98.15" y2="345.81"/><circle class="cls-54" cx="246.32" cy="146.42" r="7.5"/><path class="cls-55" d="M257.77,146.42a11.45,11.45,0,0,1-11.45,11.45"/><line class="cls-56" x1="246.32" y1="143.3" x2="246.32" y2="149.55"/><line class="cls-56" x1="248.68" y1="144.21" x2="244.26" y2="148.63"/><line class="cls-56" x1="248.53" y1="148.63" x2="244.11" y2="144.21"/><line class="cls-56" x1="249.45" y1="146.42" x2="243.2" y2="146.42"/><path class="cls-2" d="M233.26,166.4c0-3.07,5.56-11.19,5.56-11.19s5.56,8.12,5.56,11.19a5.56,5.56,0,0,1-11.12,0Z"/><g class="cls-41"><path class="cls-9" d="M104.47,452.9H18V394.82l89.58,45.12A6.85,6.85,0,0,1,104.47,452.9Z"/></g></g></g></svg>