<svg width="406" height="507" viewBox="0 0 406 507" version="1.1" xmlns="http://www.w3.org/2000/svg" xmlns:xlink="http://www.w3.org/1999/xlink">
<title>supermodel cover</title>
<desc>Created using Figma</desc>
<g id="Canvas" transform="translate(-114 -59)">
<g id="supermodel cover">
<g id="Group">
<g id="Layer 1">
<g id="Vector">
<use xlink:href="#path0_stroke" transform="translate(146.53 330.53)" fill="url(#paint0_linear)"/>
</g>
<g id="Vector">
<use xlink:href="#path1_stroke" transform="translate(268.82 113.9)" fill="url(#paint1_linear)"/>
</g>
<g id="Vector">
<use xlink:href="#path2_stroke" transform="translate(146.52 206.8)" fill="url(#paint2_linear)"/>
</g>
<g id="Vector">
<use xlink:href="#path3_fill" transform="translate(248.19 236.15)" fill="url(#paint3_linear)"/>
</g>
<g id="Vector">
<use xlink:href="#path4_stroke" transform="translate(333.05 113.9)" fill="url(#paint4_linear)"/>
</g>
<g id="Vector">
<use xlink:href="#path5_fill" transform="matrix(0.217462 -0.976069 0.976069 0.217462 389.972 164.931)" fill="#8C8BC4"/>
</g>
<g id="Vector">
<use xlink:href="#path6_stroke" transform="translate(422.1 80.75)" fill="#FFFFFF"/>
</g>
<g id="Vector">
<use xlink:href="#path7_stroke" transform="translate(417.75 100.27)" fill="#FFFFFF"/>
</g>
<g id="Vector">
<use xlink:href="#path8_stroke" transform="translate(413.4 119.79)" fill="#FFFFFF"/>
</g>
<g id="Vector">
<use xlink:href="#path9_stroke" transform="translate(409.05 139.32)" fill="#FFFFFF"/>
</g>
<g id="Vector">
<use xlink:href="#path10_fill" transform="translate(326.91 73.89)" fill="#FFFFFF"/>
</g>
<g id="Vector">
<use xlink:href="#path11_stroke" transform="translate(339.95 92.64)" fill="#8C8BC4"/>
</g>
<g id="Vector">
<use xlink:href="#path11_stroke" transform="translate(339.95 112.64)" fill="#8C8BC4"/>
</g>
<g id="Vector">
<use xlink:href="#path11_stroke" transform="translate(339.95 132.64)" fill="#8C8BC4"/>
</g>
<g id="Vector">
<use xlink:href="#path12_stroke" transform="translate(339.95 152.64)" fill="#8C8BC4"/>
</g>
<g id="Vector">
<use xlink:href="#path13_stroke" transform="translate(371.4 358.95)" fill="url(#paint15_linear)"/>
</g>
<g id="Vector">
<use xlink:href="#path14_fill" transform="translate(293.32 164.78)" fill="url(#paint16_linear)"/>
</g>
<g id="Vector">
<use xlink:href="#path15_fill" transform="translate(293.32 164.79)" fill="url(#paint17_linear)"/>
</g>
<g id="Vector">
<use xlink:href="#path16_fill" transform="translate(272.32 147.8)" fill="url(#paint18_linear)"/>
</g>
<g id="Vector">
<use xlink:href="#path17_fill" transform="matrix(0.707107 -0.707107 0.707107 0.707107 114.475 106.337)" fill="url(#paint19_linear)"/>
</g>
<g id="Vector">
<use xlink:href="#path18_fill" transform="matrix(0.707107 -0.707107 0.707107 0.707107 118.371 102.437)" fill="#04394C"/>
</g>
<g id="Vector">
<use xlink:href="#path19_fill" transform="matrix(0.707107 -0.707107 0.707107 0.707107 128.918 104.902)" fill="#FFFFFF"/>
</g>
<g id="Vector">
<use xlink:href="#path20_fill" transform="matrix(0.707107 -0.707107 0.707107 0.707107 139.716 115.69)" fill="url(#paint22_linear)"/>
</g>
<g id="Vector">
<use xlink:href="#path21_fill" transform="matrix(0.707107 -0.707107 0.707107 0.707107 151.336 104.077)" fill="url(#paint23_linear)"/>
</g>
<g id="Vector">
<use xlink:href="#path22_fill" transform="matrix(0.707107 -0.707107 0.707107 0.707107 162.966 92.4399)" fill="url(#paint24_linear)"/>
</g>
<g id="Vector">
<use xlink:href="#path23_fill" transform="matrix(0.707107 -0.707107 0.707107 0.707107 150.368 126.35)" fill="url(#paint25_linear)"/>
</g>
<g id="Vector">
<use xlink:href="#path24_fill" transform="matrix(0.707107 -0.707107 0.707107 0.707107 162.133 114.86)" fill="url(#paint26_linear)"/>
</g>
<g id="Vector">
<use xlink:href="#path25_fill" transform="matrix(0.707107 -0.707107 0.707107 0.707107 173.77 103.24)" fill="url(#paint27_linear)"/>
</g>
<g id="Vector">
<use xlink:href="#path26_fill" transform="matrix(0.707107 -0.707107 0.707107 0.707107 161.161 137.14)" fill="url(#paint28_linear)"/>
</g>
<g id="Vector">
<use xlink:href="#path27_fill" transform="matrix(0.707107 -0.707107 0.707107 0.707107 172.798 125.52)" fill="url(#paint29_linear)"/>
</g>
<g id="Vector">
<use xlink:href="#path28_fill" transform="matrix(0.707107 -0.707107 0.707107 0.707107 184.411 113.89)" fill="url(#paint30_linear)"/>
</g>
<g id="Vector">
<use xlink:href="#path29_fill" transform="matrix(0.707107 -0.707107 0.707107 0.707107 171.962 147.946)" fill="url(#paint31_linear)"/>
</g>
<g id="Vector">
<use xlink:href="#path30_fill" transform="matrix(0.707107 -0.707107 0.707107 0.707107 195.215 124.69)" fill="url(#paint32_linear)"/>
</g>
<g id="Group" style="mix-blend-mode:multiply">
<g id="Vector" style="mix-blend-mode:multiply">
<use xlink:href="#path31_fill" transform="matrix(0.00715579 -0.999974 0.999974 0.00715579 243.509 139.249)" fill="url(#paint33_linear)" style="mix-blend-mode:multiply"/>
</g>
<g id="Vector" style="mix-blend-mode:multiply">
<use xlink:href="#path32_fill" transform="matrix(0.999974 0.00715579 -0.00715579 0.999974 229.202 88.9152)" fill="url(#paint34_linear)" style="mix-blend-mode:multiply"/>
</g>
<g id="Vector" style="mix-blend-mode:multiply">
<use xlink:href="#path33_fill" transform="matrix(0.999974 0.00715579 -0.00715579 0.999974 229.12 98.9644)" fill="url(#paint35_linear)" style="mix-blend-mode:multiply"/>
</g>
<g id="Vector" style="mix-blend-mode:multiply">
<use xlink:href="#path34_fill" transform="translate(239.75 129.26)" fill="url(#paint36_linear)" style="mix-blend-mode:multiply"/>
</g>
<g id="Vector" style="mix-blend-mode:multiply">
<use xlink:href="#path35_fill" transform="matrix(0.999974 0.00715579 -0.00715579 0.999974 229.058 109.024)" fill="url(#paint37_linear)" style="mix-blend-mode:multiply"/>
</g>
<g id="Vector" style="mix-blend-mode:multiply">
<use xlink:href="#path36_fill" transform="matrix(0.999974 0.00715579 -0.00715579 0.999974 202.488 118.883)" fill="url(#paint38_linear)" style="mix-blend-mode:multiply"/>
</g>
</g>
<g id="Group" style="mix-blend-mode:multiply">
<g id="Vector" style="mix-blend-mode:multiply">
<use xlink:href="#path37_fill" transform="matrix(0.00715579 -0.999974 0.999974 0.00715579 375.813 231.694)" fill="url(#paint39_linear)" style="mix-blend-mode:multiply"/>
</g>
<g id="Vector" style="mix-blend-mode:multiply">
<use xlink:href="#path38_fill" transform="matrix(-0.999974 -0.00715579 0.00715579 -0.999974 440.743 232.094)" fill="url(#paint40_linear)" style="mix-blend-mode:multiply"/>
</g>
<g id="Vector" style="mix-blend-mode:multiply">
<use xlink:href="#path39_fill" transform="matrix(-0.999974 -0.00715579 0.00715579 -0.999974 440.811 222.043)" fill="url(#paint41_linear)" style="mix-blend-mode:multiply"/>
</g>
<g id="Vector" style="mix-blend-mode:multiply">
<use xlink:href="#path40_fill" transform="translate(400.13 181.5)" fill="url(#paint42_linear)" style="mix-blend-mode:multiply"/>
</g>
<g id="Vector" style="mix-blend-mode:multiply">
<use xlink:href="#path41_fill" transform="matrix(-0.999974 -0.00715579 0.00715579 -0.999974 440.889 211.992)" fill="url(#paint43_linear)" style="mix-blend-mode:multiply"/>
</g>
<g id="Vector" style="mix-blend-mode:multiply">
<use xlink:href="#path42_fill" transform="matrix(-0.999974 -0.00715579 0.00715579 -0.999974 467.468 202.122)" fill="url(#paint44_linear)" style="mix-blend-mode:multiply"/>
</g>
</g>
<g id="Group" style="mix-blend-mode:multiply">
<g id="Vector" style="mix-blend-mode:multiply">
<use xlink:href="#path43_fill" transform="translate(405.89 501.98)" fill="#8C8BC4"/>
</g>
</g>
<g id="Vector">
<use xlink:href="#path44_stroke" transform="translate(202.01 168.22)" fill="#F1666A"/>
</g>
<g id="Group" style="mix-blend-mode:multiply">
<g id="Vector" style="mix-blend-mode:multiply">
<use xlink:href="#path45_fill" transform="translate(121.89 442.34)" fill="#8C8BC4"/>
</g>
</g>
<g id="Vector">
<use xlink:href="#path46_stroke" transform="translate(202.01 296.26)" fill="url(#paint48_linear)"/>
</g>
<g id="Vector">
<use xlink:href="#path47_stroke" transform="translate(167.84 353.49)" fill="#F1666A"/>
</g>
<g id="Vector">
<use xlink:href="#path48_fill" transform="translate(483.06 413.53)" fill="url(#paint50_linear)"/>
</g>
<g id="Vector">
<use xlink:href="#path49_fill" transform="translate(483.06 397.43)" fill="#F5A6C8"/>
</g>
<g id="Vector">
<use xlink:href="#path50_fill" transform="translate(483.06 502.45)" fill="#F5A6C8"/>
</g>
<g id="Vector">
<use xlink:href="#path51_fill" transform="translate(487.71 397.43)" fill="url(#paint53_linear)"/>
</g>
<g id="Vector">
<use xlink:href="#path52_fill" transform="translate(488.26 509.09)" fill="url(#paint54_linear)"/>
</g>
<g id="Vector">
<use xlink:href="#path53_stroke" transform="translate(444.315 298.58)" fill="url(#paint55_linear)"/>
</g>
<g id="Vector">
<use xlink:href="#path54_stroke" transform="translate(462.45 300.071)" fill="url(#paint56_linear)"/>
</g>
<g id="Vector">
<use xlink:href="#path55_stroke" transform="translate(450.186 302.92)" fill="url(#paint57_linear)"/>
</g>
<g id="Vector">
<use xlink:href="#path56_fill" transform="translate(155.98 339.23)" fill="#8C8BC4"/>
</g>
<g id="Vector">
<use xlink:href="#path57_stroke" transform="translate(202.01 346.61)" fill="#FFFFFF"/>
</g>
<g id="Vector">
<use xlink:href="#path58_stroke" transform="translate(216.87 351.8)" fill="#FFFFFF"/>
</g>
<g id="Vector">
<use xlink:href="#path59_stroke" transform="translate(227.73 365.97)" fill="#FFFFFF"/>
</g>
<g id="Vector">
<use xlink:href="#path60_stroke" transform="translate(231.7 385.31)" fill="#FFFFFF"/>
</g>
<g id="Vector">
<use xlink:href="#path61_stroke" transform="translate(227.69 400.15)" fill="#FFFFFF"/>
</g>
<g id="Vector">
<use xlink:href="#path62_stroke" transform="translate(216.79 411.01)" fill="#FFFFFF"/>
</g>
<g id="Vector">
<use xlink:href="#path63_stroke" transform="translate(201.9 414.95)" fill="#FFFFFF"/>
</g>
<g id="Vector">
<use xlink:href="#path64_stroke" transform="translate(182.58 410.92)" fill="#FFFFFF"/>
</g>
<g id="Vector">
<use xlink:href="#path65_stroke" transform="translate(168.47 400.01)" fill="#FFFFFF"/>
</g>
<g id="Vector">
<use xlink:href="#path66_stroke" transform="translate(163.36 385.1)" fill="#FFFFFF"/>
</g>
<g id="Vector">
<use xlink:href="#path67_stroke" transform="translate(168.63 365.78)" fill="#FFFFFF"/>
</g>
<g id="Vector">
<use xlink:href="#path68_stroke" transform="translate(182.86 351.69)" fill="#FFFFFF"/>
</g>
<g id="Vector">
<use xlink:href="#path69_stroke" transform="translate(201.95 363.96)" fill="url(#paint71_linear)"/>
</g>
<g id="Vector">
<use xlink:href="#path70_stroke" transform="translate(202.04 385.31)" fill="url(#paint72_linear)"/>
</g>
<g id="Vector">
<use xlink:href="#path71_fill" transform="translate(342.71 178.42)" fill="url(#paint73_linear)"/>
</g>
<g id="Vector" style="mix-blend-mode:multiply">
<use xlink:href="#path72_stroke" transform="translate(350.21 185.92)" fill="#F5A6C8"/>
</g>
<g id="Vector">
<use xlink:href="#path73_stroke" transform="translate(350.21 182.8)" fill="#FFFFFF"/>
</g>
<g id="Vector">
<use xlink:href="#path74_stroke" transform="translate(348.15 183.71)" fill="#FFFFFF"/>
</g>
<g id="Vector">
<use xlink:href="#path75_stroke" transform="translate(348 183.71)" fill="#FFFFFF"/>
</g>
<g id="Vector">
<use xlink:href="#path76_stroke" transform="translate(347.09 185.92)" fill="#FFFFFF"/>
</g>
<g id="Vector">
<use xlink:href="#path77_fill" transform="translate(337.15 194.71)" fill="#FFFFFF"/>
</g>
</g>
</g>
</g>
</g>
<defs>
<linearGradient id="paint0_linear" x1="0" y1="0" x2="1" y2="0" gradientUnits="userSpaceOnUse" gradientTransform="matrix(230.08 0 0 230.08 -25 -33.15)">
<stop offset="0" stop-color="#2B3990"/>
<stop offset="1" stop-color="#262262"/>
</linearGradient>
<linearGradient id="paint1_linear" x1="0" y1="0" x2="1" y2="0" gradientUnits="userSpaceOnUse" gradientTransform="matrix(115.58 0 0 0 0 0)">
<stop offset="0" stop-color="#2B3990"/>
<stop offset="1" stop-color="#262262"/>
</linearGradient>
<linearGradient id="paint2_linear" x1="0" y1="0" x2="1" y2="0" gradientUnits="userSpaceOnUse" gradientTransform="matrix(0 -7374.51 29130.7 0 28685.2 16544.3)">
<stop offset="0" stop-color="#2B3990"/>
<stop offset="1" stop-color="#262262"/>
</linearGradient>
<linearGradient id="paint3_linear" x1="0" y1="0" x2="1" y2="0" gradientUnits="userSpaceOnUse" gradientTransform="matrix(169.72 0 0 169.72 0 3.76854e-14)">
<stop offset="0" stop-color="#F1666A"/>
<stop offset="1" stop-color="#EE255C"/>
</linearGradient>
<linearGradient id="paint4_linear" x1="0" y1="0" x2="1" y2="0" gradientUnits="userSpaceOnUse" gradientTransform="matrix(34160.4 0 0 33279.5 32974.9 7445.8)">
<stop offset="0" stop-color="#2B3990"/>
<stop offset="1" stop-color="#262262"/>
</linearGradient>
<linearGradient id="paint15_linear" x1="0" y1="0" x2="1" y2="0" gradientUnits="userSpaceOnUse" gradientTransform="matrix(6505.11 0 0 18285.2 14414.8 58189)">
<stop offset="0" stop-color="#2B3990"/>
<stop offset="1" stop-color="#262262"/>
</linearGradient>
<linearGradient id="paint16_linear" x1="0" y1="0" x2="1" y2="0" gradientUnits="userSpaceOnUse" gradientTransform="matrix(6313.89 0 0 6313.89 15052.1 9954.75)">
<stop offset="0" stop-color="#F1666A"/>
<stop offset="1" stop-color="#EE255C"/>
</linearGradient>
<linearGradient id="paint17_linear" x1="0" y1="0" x2="1" y2="0" gradientUnits="userSpaceOnUse" gradientTransform="matrix(1577.28 0 0 2090.99 7520.37 6933.74)">
<stop offset="0" stop-color="#2B3990"/>
<stop offset="1" stop-color="#262262"/>
</linearGradient>
<linearGradient id="paint18_linear" x1="0" y1="0" x2="1" y2="0" gradientUnits="userSpaceOnUse" gradientTransform="matrix(1452.75 0 0 1452.75 6420.93 4128.59)">
<stop offset="0" stop-color="#2B3990"/>
<stop offset="1" stop-color="#262262"/>
</linearGradient>
<linearGradient id="paint19_linear" x1="0" y1="0" x2="1" y2="0" gradientUnits="userSpaceOnUse" gradientTransform="matrix(261.588 261.588 -4246.65 4246.65 -3907.31 4033.4)">
<stop offset="0" stop-color="#F1666A"/>
<stop offset="1" stop-color="#EE255C"/>
</linearGradient>
<linearGradient id="paint22_linear" x1="0" y1="0" x2="1" y2="0" gradientUnits="userSpaceOnUse" gradientTransform="matrix(140.233 140.233 -140.233 140.233 -261.863 865.277)">
<stop offset="0" stop-color="#F1666A"/>
<stop offset="1" stop-color="#EE255C"/>
</linearGradient>
<linearGradient id="paint23_linear" x1="0" y1="0" x2="1" y2="0" gradientUnits="userSpaceOnUse" gradientTransform="matrix(140.233 140.233 -140.233 140.233 -67.2916 865.277)">
<stop offset="0" stop-color="#F1666A"/>
<stop offset="1" stop-color="#EE255C"/>
</linearGradient>
<linearGradient id="paint24_linear" x1="0" y1="0" x2="1" y2="0" gradientUnits="userSpaceOnUse" gradientTransform="matrix(140.317 140.317 -140.317 140.317 127.4 865.152)">
<stop offset="0" stop-color="#F1666A"/>
<stop offset="1" stop-color="#EE255C"/>
</linearGradient>
<linearGradient id="paint25_linear" x1="0" y1="0" x2="1" y2="0" gradientUnits="userSpaceOnUse" gradientTransform="matrix(140.233 140.233 -140.233 140.233 -261.937 1043.69)">
<stop offset="0" stop-color="#F1666A"/>
<stop offset="1" stop-color="#EE255C"/>
</linearGradient>
<linearGradient id="paint26_linear" x1="0" y1="0" x2="1" y2="0" gradientUnits="userSpaceOnUse" gradientTransform="matrix(140.233 140.233 -140.233 140.233 -67.2845 1046.11)">
<stop offset="0" stop-color="#F1666A"/>
<stop offset="1" stop-color="#EE255C"/>
</linearGradient>
<linearGradient id="paint27_linear" x1="0" y1="0" x2="1" y2="0" gradientUnits="userSpaceOnUse" gradientTransform="matrix(140.233 140.233 -140.233 140.233 127.358 1046.04)">
<stop offset="0" stop-color="#F1666A"/>
<stop offset="1" stop-color="#EE255C"/>
</linearGradient>
<linearGradient id="paint28_linear" x1="0" y1="0" x2="1" y2="0" gradientUnits="userSpaceOnUse" gradientTransform="matrix(140.233 140.233 -140.233 140.233 -261.937 1224.53)">
<stop offset="0" stop-color="#F1666A"/>
<stop offset="1" stop-color="#EE255C"/>
</linearGradient>
<linearGradient id="paint29_linear" x1="0" y1="0" x2="1" y2="0" gradientUnits="userSpaceOnUse" gradientTransform="matrix(140.233 140.233 -140.233 140.233 -67.2945 1224.44)">
<stop offset="0" stop-color="#F1666A"/>
<stop offset="1" stop-color="#EE255C"/>
</linearGradient>
<linearGradient id="paint30_linear" x1="0" y1="0" x2="1" y2="0" gradientUnits="userSpaceOnUse" gradientTransform="matrix(140.233 140.233 -140.233 140.233 127.368 1224.53)">
<stop offset="0" stop-color="#F1666A"/>
<stop offset="1" stop-color="#EE255C"/>
</linearGradient>
<linearGradient id="paint31_linear" x1="0" y1="0" x2="1" y2="0" gradientUnits="userSpaceOnUse" gradientTransform="matrix(567.314 567.314 -237.518 237.518 629.254 2093.6)">
<stop offset="0" stop-color="#F1666A"/>
<stop offset="1" stop-color="#EE255C"/>
</linearGradient>
<linearGradient id="paint32_linear" x1="0" y1="0" x2="1" y2="0" gradientUnits="userSpaceOnUse" gradientTransform="matrix(140.233 140.233 -140.233 140.233 127.358 1405.36)">
<stop offset="0" stop-color="#F1666A"/>
<stop offset="1" stop-color="#EE255C"/>
</linearGradient>
<linearGradient id="paint33_linear" x1="0" y1="0" x2="1" y2="0" gradientUnits="userSpaceOnUse" gradientTransform="matrix(18.094 2528.52 -2528.52 18.094 -2395.69 7045.64)">
<stop offset="0" stop-color="#F1666A"/>
<stop offset="1" stop-color="#EE255C"/>
</linearGradient>
<linearGradient id="paint34_linear" x1="0" y1="0" x2="1" y2="0" gradientUnits="userSpaceOnUse" gradientTransform="matrix(1425.78 -10.2028 2.71841 379.88 4726.85 324.9)">
<stop offset="0" stop-color="#F1666A"/>
<stop offset="1" stop-color="#EE255C"/>
</linearGradient>
<linearGradient id="paint35_linear" x1="0" y1="0" x2="1" y2="0" gradientUnits="userSpaceOnUse" gradientTransform="matrix(1426.54 -10.2082 2.72112 380.258 4727.43 426.459)">
<stop offset="0" stop-color="#F1666A"/>
<stop offset="1" stop-color="#EE255C"/>
</linearGradient>
<linearGradient id="paint36_linear" x1="0" y1="0" x2="1" y2="0" gradientUnits="userSpaceOnUse" gradientTransform="matrix(903.314 0 0 307.723 4084.6 817.539)">
<stop offset="0" stop-color="#F1666A"/>
<stop offset="1" stop-color="#EE255C"/>
</linearGradient>
<linearGradient id="paint37_linear" x1="0" y1="0" x2="1" y2="0" gradientUnits="userSpaceOnUse" gradientTransform="matrix(1426.93 -10.211 2.72184 380.359 4725.18 527.631)">
<stop offset="0" stop-color="#F1666A"/>
<stop offset="1" stop-color="#EE255C"/>
</linearGradient>
<linearGradient id="paint38_linear" x1="0" y1="0" x2="1" y2="0" gradientUnits="userSpaceOnUse" gradientTransform="matrix(4130.53 -29.5579 4.62878 646.841 6333.15 483.167)">
<stop offset="0" stop-color="#F1666A"/>
<stop offset="1" stop-color="#EE255C"/>
</linearGradient>
<linearGradient id="paint39_linear" x1="0" y1="0" x2="1" y2="0" gradientUnits="userSpaceOnUse" gradientTransform="matrix(18.0904 2528.01 -2528.01 18.0904 -6996.1 13731.3)">
<stop offset="0" stop-color="#F1666A"/>
<stop offset="1" stop-color="#EE255C"/>
</linearGradient>
<linearGradient id="paint40_linear" x1="0" y1="0" x2="1" y2="0" gradientUnits="userSpaceOnUse" gradientTransform="matrix(-1426.55 10.2083 -2.72112 -380.258 -11262.6 -1604.66)">
<stop offset="0" stop-color="#F1666A"/>
<stop offset="1" stop-color="#EE255C"/>
</linearGradient>
<linearGradient id="paint41_linear" x1="0" y1="0" x2="1" y2="0" gradientUnits="userSpaceOnUse" gradientTransform="matrix(-1427.29 10.2137 -2.72112 -380.258 -11270.4 -1503.39)">
<stop offset="0" stop-color="#F1666A"/>
<stop offset="1" stop-color="#EE255C"/>
</linearGradient>
<linearGradient id="paint42_linear" x1="0" y1="0" x2="1" y2="0" gradientUnits="userSpaceOnUse" gradientTransform="matrix(903.013 0 0 307.62 8904.78 1353.06)">
<stop offset="0" stop-color="#F1666A"/>
<stop offset="1" stop-color="#EE255C"/>
</linearGradient>
<linearGradient id="paint43_linear" x1="0" y1="0" x2="1" y2="0" gradientUnits="userSpaceOnUse" gradientTransform="matrix(-1426.55 10.2083 -2.72112 -380.258 -11266.5 -1402.3)">
<stop offset="0" stop-color="#F1666A"/>
<stop offset="1" stop-color="#EE255C"/>
</linearGradient>
<linearGradient id="paint44_linear" x1="0" y1="0" x2="1" y2="0" gradientUnits="userSpaceOnUse" gradientTransform="matrix(-4131.19 29.5627 -4.6295 -646.942 -19172.7 -1111.99)">
<stop offset="0" stop-color="#F1666A"/>
<stop offset="1" stop-color="#EE255C"/>
</linearGradient>
<linearGradient id="paint48_linear" x1="0" y1="0" x2="1" y2="0" gradientUnits="userSpaceOnUse" gradientTransform="matrix(42676 0 0 52149.1 18880.6 69594.8)">
<stop offset="0" stop-color="#F1666A"/>
<stop offset="1" stop-color="#EE255C"/>
</linearGradient>
<linearGradient id="paint50_linear" x1="0" y1="0" x2="1" y2="0" gradientUnits="userSpaceOnUse" gradientTransform="matrix(345.774 0 0 1852.68 7052.56 41315.5)">
<stop offset="0" stop-color="#F1666A"/>
<stop offset="1" stop-color="#EE255C"/>
</linearGradient>
<linearGradient id="paint53_linear" x1="0" y1="0" x2="1" y2="0" gradientUnits="userSpaceOnUse" gradientTransform="matrix(86.397 0 0 74.7845 3569.53 2876.31)">
<stop offset="0" stop-color="#2B3990"/>
<stop offset="1" stop-color="#262262"/>
</linearGradient>
<linearGradient id="paint54_linear" x1="0" y1="0" x2="1" y2="0" gradientUnits="userSpaceOnUse" gradientTransform="matrix(67.158 0 0 67.158 3151.83 3850.68)">
<stop offset="0" stop-color="#2B3990"/>
<stop offset="1" stop-color="#262262"/>
</linearGradient>
<linearGradient id="paint55_linear" x1="0" y1="0" x2="1" y2="0" gradientUnits="userSpaceOnUse" gradientTransform="matrix(1136.62 0 0 1674.6 10884.2 12554.8)">
<stop offset="0" stop-color="#F1666A"/>
<stop offset="1" stop-color="#EE255C"/>
</linearGradient>
<linearGradient id="paint56_linear" x1="0" y1="0" x2="1" y2="0" gradientUnits="userSpaceOnUse" gradientTransform="matrix(1121.76 0 0 1502.1 11447.1 11358)">
<stop offset="0" stop-color="#F1666A"/>
<stop offset="1" stop-color="#EE255C"/>
</linearGradient>
<linearGradient id="paint57_linear" x1="0" y1="0" x2="1" y2="0" gradientUnits="userSpaceOnUse" gradientTransform="matrix(1186.44 0 0 1345.07 11372.9 9877.11)">
<stop offset="0" stop-color="#F1666A"/>
<stop offset="1" stop-color="#EE255C"/>
</linearGradient>
<linearGradient id="paint71_linear" x1="0" y1="0" x2="1" y2="0" gradientUnits="userSpaceOnUse" gradientTransform="matrix(733.04 0 0 657.888 2250.53 6829.65)">
<stop offset="0" stop-color="#2B3990"/>
<stop offset="1" stop-color="#262262"/>
</linearGradient>
<linearGradient id="paint72_linear" x1="0" y1="0" x2="1" y2="0" gradientUnits="userSpaceOnUse" gradientTransform="matrix(227.69 0 0 379.42 1134.85 6919.17)">
<stop offset="0" stop-color="#2B3990"/>
<stop offset="1" stop-color="#262262"/>
</linearGradient>
<linearGradient id="paint73_linear" x1="0" y1="0" x2="1" y2="0" gradientUnits="userSpaceOnUse" gradientTransform="matrix(225 0 0 225 3582.3 2083.8)">
<stop offset="0" stop-color="#2B3990"/>
<stop offset="1" stop-color="#262262"/>
</linearGradient>
<path id="path0_stroke" d="M -25 127.5C -25 141.307 -13.8071 152.5 -6.10352e-07 152.5C 13.8071 152.5 25 141.307 25 127.5L -25 127.5ZM -6.10352e-07 55.5L -25 55.5L -6.10352e-07 55.5ZM 55.5 -1.2207e-06L 55.5 25L 55.5 -1.2207e-06ZM 111 129.15L 135.996 129.575C 135.999 129.434 136 129.292 136 129.15L 111 129.15ZM 180.11 129.15L 155.11 129.15C 155.11 129.292 155.111 129.434 155.114 129.575L 180.11 129.15ZM 205.11 72.56C 205.11 58.7529 193.917 47.56 180.11 47.56C 166.303 47.56 155.11 58.7529 155.11 72.56L 205.11 72.56ZM 25 127.5L 25 55.5L -25 55.5L -25 127.5L 25 127.5ZM 25 55.5C 25 47.4109 28.2134 39.6531 33.9332 33.9333L -1.4221 -1.42209C -16.5188 13.6746 -25 34.1501 -25 55.5L 25 55.5ZM 33.9332 33.9333C 39.6531 28.2134 47.4109 25 55.5 25L 55.5 -25C 34.1501 -25 13.6746 -16.5188 -1.4221 -1.42209L 33.9332 33.9333ZM 55.5 25C 63.5891 25 71.3469 28.2134 77.0668 33.9333L 112.422 -1.42209C 97.3254 -16.5188 76.8499 -25 55.5 -25L 55.5 25ZM 77.0668 33.9333C 82.7866 39.6531 86 47.4109 86 55.5L 136 55.5C 136 34.1501 127.519 13.6746 112.422 -1.42209L 77.0668 33.9333ZM 86 55.5L 86 129.15L 136 129.15L 136 55.5L 86 55.5ZM 86.0036 128.725C 86.0064 135.791 87.7366 145.22 90.2424 151.827L 136.677 133.283C 135.78 131.368 135.837 131.684 135.996 129.575L 86.0036 128.725ZM 90.2424 151.827C 92.9768 158.342 98.2179 166.369 103.083 171.493L 138.738 136.44C 137.17 135.021 137.345 135.289 136.677 133.283L 90.2424 151.827ZM 103.083 171.493C 108.124 176.445 116.061 181.822 122.529 184.667L 141.859 138.555C 139.865 137.852 140.13 138.032 138.738 136.44L 103.083 171.493ZM 122.529 184.667C 129.092 187.285 138.49 189.175 145.555 189.298L 145.555 139.298C 143.444 139.421 143.758 139.484 141.859 138.555L 122.529 184.667ZM 145.555 189.298C 152.62 189.175 162.018 187.285 168.581 184.667L 149.251 138.555C 147.352 139.484 147.666 139.421 145.555 139.298L 145.555 189.298ZM 168.581 184.667C 175.049 181.822 182.986 176.445 188.027 171.493L 152.372 136.44C 150.98 138.032 151.245 137.852 149.251 138.555L 168.581 184.667ZM 188.027 171.493C 192.892 166.369 198.133 158.342 200.868 151.827L 154.433 133.283C 153.765 135.289 153.94 135.021 152.372 136.44L 188.027 171.493ZM 200.868 151.827C 203.373 145.22 205.104 135.791 205.106 128.725L 155.114 129.575C 155.273 131.684 155.33 131.368 154.433 133.283L 200.868 151.827ZM 205.11 129.15L 205.11 72.56L 155.11 72.56L 155.11 129.15L 205.11 129.15Z"/>
<path id="path1_stroke" d="M -7.32422e-06 -25C -13.8071 -25 -25 -13.8071 -25 1.52588e-06C -25 13.8071 -13.8071 25 -7.32422e-06 25L -7.32422e-06 -25ZM 115.58 25C 129.387 25 140.58 13.8071 140.58 1.52588e-06C 140.58 -13.8071 129.387 -25 115.58 -25L 115.58 25ZM -7.32422e-06 25L 115.58 25L 115.58 -25L -7.32422e-06 -25L -7.32422e-06 25Z"/>
<path id="path2_stroke" d="M 175.55 89.44C 189.357 89.44 200.55 78.2471 200.55 64.44C 200.55 50.6329 189.357 39.44 175.55 39.44L 175.55 89.44ZM 254.55 25C 268.357 25 279.55 13.8071 279.55 3.05176e-06C 279.55 -13.8071 268.357 -25 254.55 -25L 254.55 25ZM 175.55 39.44L 34.81 39.44L 34.81 89.44L 175.55 89.44L 175.55 39.44ZM 34.81 39.44C 27.5418 39.44 25 34.4179 25 32.22L -25 32.22C -25 65.6021 3.63818 89.44 34.81 89.44L 34.81 39.44ZM 25 32.22C 25 30.0221 27.5418 25 34.81 25L 34.81 -25C 3.63818 -25 -25 -1.1621 -25 32.22L 25 32.22ZM 34.81 25L 254.55 25L 254.55 -25L 34.81 -25L 34.81 25Z"/>
<path id="path3_fill" d="M 84.86 169.72C 131.727 169.72 169.72 131.727 169.72 84.86C 169.72 37.9931 131.727 -6.10352e-06 84.86 -6.10352e-06C 37.9931 -6.10352e-06 3.05176e-06 37.9931 3.05176e-06 84.86C 3.05176e-06 131.727 37.9931 169.72 84.86 169.72Z"/>
<path id="path4_stroke" d="M 82.84 -25C 69.0329 -25 57.84 -13.8071 57.84 1.52588e-06C 57.84 13.8071 69.0329 25 82.84 25L 82.84 -25ZM 161.515 78.675L 136.515 78.675L 161.515 78.675ZM 82.84 157.35L 82.84 182.35L 82.84 157.35ZM 3.66211e-06 132.35C -13.8071 132.35 -25 143.543 -25 157.35C -25 171.157 -13.8071 182.35 3.66211e-06 182.35L 3.66211e-06 132.35ZM 82.84 25C 97.0755 25 110.728 30.655 120.794 40.721L 156.149 5.36571C 136.706 -14.0771 110.336 -25 82.84 -25L 82.84 25ZM 120.794 40.721C 130.86 50.7871 136.515 64.4395 136.515 78.675L 186.515 78.675C 186.515 51.1787 175.592 24.8085 156.149 5.36571L 120.794 40.721ZM 136.515 78.675C 136.515 92.9105 130.86 106.563 120.794 116.629L 156.149 151.984C 175.592 132.541 186.515 106.171 186.515 78.675L 136.515 78.675ZM 120.794 116.629C 110.728 126.695 97.0755 132.35 82.84 132.35L 82.84 182.35C 110.336 182.35 136.706 171.427 156.149 151.984L 120.794 116.629ZM 82.84 132.35L 3.66211e-06 132.35L 3.66211e-06 182.35L 82.84 182.35L 82.84 132.35Z"/>
<path id="path5_fill" d="M 107.9 0L 1.34277e-05 0L 1.34277e-05 80L 107.9 80L 107.9 0Z"/>
<path id="path6_stroke" d="M -0.652626 2.92815L 51.9774 14.6582L 53.2826 8.80184L 0.652609 -2.92815L -0.652626 2.92815Z"/>
<path id="path7_stroke" d="M -0.652632 2.92816L 51.9774 14.6582L 53.2826 8.80184L 0.652603 -2.92815L -0.652632 2.92816Z"/>
<path id="path8_stroke" d="M -0.652607 2.92816L 51.9774 14.6582L 53.2826 8.80184L 0.652627 -2.92815L -0.652607 2.92816Z"/>
<path id="path9_stroke" d="M -0.652446 2.92819L 21.7876 7.92819L 23.0925 2.07181L 0.652453 -2.92819L -0.652446 2.92819Z"/>
<path id="path10_fill" d="M 80 0L 4.27246e-06 0L 4.27246e-06 107.9L 80 107.9L 80 0Z"/>
<path id="path11_stroke" d="M -2.44141e-06 3L 53.92 3L 53.92 -3L -2.44141e-06 -3L -2.44141e-06 3Z"/>
<path id="path12_stroke" d="M -2.44141e-06 3L 23 3L 23 -3L -2.44141e-06 -3L -2.44141e-06 3Z"/>
<path id="path13_stroke" d="M 9.76562e-06 -25C -13.8071 -25 -25 -13.8071 -25 1.2207e-05C -25 13.8071 -13.8071 25 9.76562e-06 25L 9.76562e-06 -25ZM 34.44 167.08C 34.44 180.887 45.6329 192.08 59.44 192.08C 73.2471 192.08 84.44 180.887 84.44 167.08L 34.44 167.08ZM 9.76562e-06 25C 9.1341 25 17.894 28.6285 24.3528 35.0872L 59.7081 -0.268112C 43.8725 -16.1037 22.3949 -25 9.76562e-06 -25L 9.76562e-06 25ZM 24.3528 35.0872C 30.8115 41.546 34.44 50.3059 34.44 59.44L 84.44 59.44C 84.44 37.0451 75.5437 15.5675 59.7081 -0.268112L 24.3528 35.0872ZM 34.44 59.44L 34.44 167.08L 84.44 167.08L 84.44 59.44L 34.44 59.44Z"/>
<path id="path14_fill" d="M 39.73 79.46C 61.6723 79.46 79.46 61.6723 79.46 39.73C 79.46 17.7877 61.6723 0 39.73 0C 17.7877 0 -7.32422e-06 17.7877 -7.32422e-06 39.73C -7.32422e-06 61.6723 17.7877 79.46 39.73 79.46Z"/>
<path id="path15_fill" d="M -5.57867e-06 39.71C -0.00131015 44.1066 0.728653 48.4729 2.16 52.63L 11.16 52.63C 18.7293 52.63 25.9885 49.6231 31.3408 44.2708C 36.6931 38.9185 39.7 31.6593 39.7 24.09L 39.7 9.15527e-07C 29.1716 0.00794954 19.0769 4.19454 11.6331 11.6402C 4.18935 19.0858 0.00529139 29.1816 -5.57867e-06 39.71L -5.57867e-06 39.71Z"/>
<path id="path16_fill" d="M 19.06 38.12C 29.5866 38.12 38.12 29.5865 38.12 19.06C 38.12 8.53345 29.5866 3.05176e-06 19.06 3.05176e-06C 8.53346 3.05176e-06 -7.32422e-06 8.53345 -7.32422e-06 19.06C -7.32422e-06 29.5865 8.53346 38.12 19.06 38.12Z"/>
<path id="path17_fill" d="M 5.51 0L 0 0L 0 89.45L 5.51 89.45L 5.51 0Z"/>
<path id="path18_fill" d="M 56.16 0L 0 0L 0 89.45L 56.16 89.45L 56.16 0Z"/>
<path id="path19_fill" d="M 44.72 0L 0 0L 0 11.84L 44.72 11.84L 44.72 0Z"/>
<path id="path20_fill" d="M 11.84 -3.35693e-06L 0 -3.35693e-06L 0 11.84L 11.84 11.84L 11.84 -3.35693e-06Z"/>
<path id="path21_fill" d="M 11.84 0L 0 0L 0 11.84L 11.84 11.84L 11.84 0Z"/>
<path id="path22_fill" d="M 11.84 0L 0 0L 0 11.84L 11.84 11.84L 11.84 0Z"/>
<path id="path23_fill" d="M 11.84 0L 0 0L 0 11.84L 11.84 11.84L 11.84 0Z"/>
<path id="path24_fill" d="M 11.84 2.44141e-06L 0 2.44141e-06L 0 11.84L 11.84 11.84L 11.84 2.44141e-06Z"/>
<path id="path25_fill" d="M 11.84 0L 0 0L 0 11.84L 11.84 11.84L 11.84 0Z"/>
<path id="path26_fill" d="M 11.84 0L 0 0L 0 11.84L 11.84 11.84L 11.84 0Z"/>
<path id="path27_fill" d="M 11.84 0L 0 0L 0 11.84L 11.84 11.84L 11.84 0Z"/>
<path id="path28_fill" d="M 11.84 0L 3.35693e-06 0L 3.35693e-06 11.84L 11.84 11.84L 11.84 0Z"/>
<path id="path29_fill" d="M 28.28 0L 2.74658e-06 0L 2.74658e-06 11.84L 28.28 11.84L 28.28 0Z"/>
<path id="path30_fill" d="M 11.84 -3.35693e-06L 0 -3.35693e-06L 0 11.84L 11.84 11.84L 11.84 -3.35693e-06Z"/>
<path id="path31_fill" d="M 25.14 50.28C 39.0244 50.28 50.28 39.0244 50.28 25.14C 50.28 11.2556 39.0244 0 25.14 0C 11.2556 0 -6.71387e-06 11.2556 -6.71387e-06 25.14C -6.71387e-06 39.0244 11.2556 50.28 25.14 50.28Z"/>
<path id="path32_fill" d="M 5 9.15527e-07L 37.72 9.15527e-07L 37.72 10.05L 5 10.05C 3.67392 10.05 2.40215 9.52322 1.46447 8.58553C 0.526787 7.64785 -1.2207e-06 6.37608 -1.2207e-06 5.05C -1.2207e-06 3.72392 0.526787 2.45215 1.46447 1.51447C 2.40215 0.576784 3.67392 0.0500002 5 0.0500002L 5 9.15527e-07Z"/>
<path id="path33_fill" d="M 5 1.52588e-07L 37.74 1.52588e-07L 37.74 10.06L 5 10.06C 3.67391 10.06 2.40215 9.53321 1.46447 8.59553C 0.526785 7.65785 -3.05176e-06 6.38608 -3.05176e-06 5.06C -3.05176e-06 3.73392 0.526785 2.46215 1.46447 1.52447C 2.40215 0.586786 3.67391 0.0600015 5 0.0600015L 5 1.52588e-07Z"/>
<path id="path34_fill" d="M 30.0004 10.2404L 5.00036 10.0604C 4.33867 10.0604 3.68355 9.92912 3.07298 9.6741C 2.46241 9.41908 1.90853 9.04541 1.44345 8.57474C 0.97836 8.10407 0.611312 7.54578 0.363596 6.93221C 0.11588 6.31864 -0.00757961 5.662 0.000360652 5.00036C 0.000313009 4.33867 0.131604 3.68355 0.386622 3.07298C 0.641639 2.46241 1.0153 1.90852 1.48597 1.44344C 1.95664 0.978354 2.51495 0.611321 3.12852 0.363605C 3.74209 0.115889 4.39872 -0.00757809 5.06036 0.000362178L 30.0604 0.180362L 30.0004 10.2404Z"/>
<path id="path35_fill" d="M 5.00036 1.53884e-06L 37.7404 1.53884e-06L 37.7404 10.06L 5.00036 10.06C 3.67428 10.06 2.40251 9.53322 1.46483 8.59554C 0.527145 7.65786 0.000357295 6.38608 0.000357295 5.06L 0.000357295 5.06C -0.00758297 4.39836 0.115884 3.74172 0.3636 3.12815C 0.611317 2.51458 0.978356 1.95628 1.44344 1.48561C 1.90853 1.01495 2.46241 0.64128 3.07298 0.386263C 3.68355 0.131245 4.33868 -4.61045e-05 5.00036 1.53884e-06L 5.00036 1.53884e-06Z"/>
<path id="path36_fill" d="M 5 6.10352e-07L 64.24 6.10352e-07L 64.24 10.06L 5 10.06C 3.67392 10.06 2.40215 9.53322 1.46447 8.59554C 0.526786 7.65785 -2.44141e-06 6.38608 -2.44141e-06 5.06L -2.44141e-06 5.06C -2.44141e-06 3.73392 0.526786 2.46215 1.46447 1.52447C 2.40215 0.586786 3.67392 0.0599982 5 0.0599982L 5 6.10352e-07Z"/>
<path id="path37_fill" d="M 25.14 50.28C 39.0244 50.28 50.28 39.0244 50.28 25.14C 50.28 11.2556 39.0244 -3.66211e-06 25.14 -3.66211e-06C 11.2556 -3.66211e-06 -3.66211e-06 11.2556 -3.66211e-06 25.14C -3.66211e-06 39.0244 11.2556 50.28 25.14 50.28Z"/>
<path id="path38_fill" d="M 5.00037 -1.81809e-06L 37.7404 -1.81809e-06L 37.7404 10.06L 5.00037 10.06C 3.67429 10.06 2.4025 9.53322 1.46482 8.59553C 0.527139 7.65785 0.000373469 6.38608 0.000373469 5.06L 0.000373469 5.06C -0.0075668 4.39835 0.115878 3.74173 0.363594 3.12816C 0.61131 2.51459 0.978342 1.95628 1.44343 1.48561C 1.90851 1.01494 2.4624 0.641276 3.07297 0.386259C 3.68355 0.131242 4.33868 -4.94614e-05 5.00037 -1.81809e-06L 5.00037 -1.81809e-06Z"/>
<path id="path39_fill" d="M 4.99999 6.10352e-07L 37.76 6.10352e-07L 37.76 10.06L 4.99999 10.06C 3.67391 10.06 2.40215 9.53322 1.46447 8.59554C 0.526786 7.65785 -9.76562e-06 6.38608 -9.76562e-06 5.06C -9.76562e-06 3.73392 0.526786 2.46214 1.46447 1.52446C 2.40215 0.586779 3.67391 0.0599982 4.99999 0.0599982L 4.99999 6.10352e-07Z"/>
<path id="path40_fill" d="M 0.0599878 0L 25.06 0.179993C 25.7217 0.179945 26.3768 0.311236 26.9874 0.566254C 27.598 0.821271 28.1518 1.19495 28.6169 1.66562C 29.082 2.13629 29.4491 2.69458 29.6968 3.30815C 29.9445 3.92172 30.0679 4.57836 30.06 5.24001L 30.06 5.24001C 30.06 5.90169 29.9287 6.5568 29.6737 7.16737C 29.4187 7.77795 29.0451 8.33184 28.5744 8.79692C 28.1037 9.26201 27.5454 9.62904 26.9318 9.87675C 26.3183 10.1245 25.6616 10.2479 25 10.24L -9.76562e-06 10.06L 0.0599878 0Z"/>
<path id="path41_fill" d="M 5.00036 3.06472e-06L 37.7403 3.06472e-06L 37.7403 10.06L 5.00036 10.06C 3.67428 10.06 2.40252 9.53322 1.46484 8.59554C 0.527153 7.65786 0.0003576 6.38608 0.0003576 5.06C -0.00758267 4.39836 0.115892 3.74172 0.363608 3.12815C 0.611324 2.51458 0.978357 1.95628 1.44344 1.48561C 1.90853 1.01495 2.46242 0.641281 3.07299 0.386264C 3.68356 0.131247 4.33867 -4.45786e-05 5.00036 3.06472e-06L 5.00036 3.06472e-06Z"/>
<path id="path42_fill" d="M 5.00036 -3.64915e-06L 64.2404 -3.64915e-06L 64.2404 10.06L 5.00036 10.06C 3.67428 10.06 2.40249 9.53321 1.46481 8.59553C 0.52713 7.65785 0.000364924 6.38608 0.000364924 5.05999L 0.000364924 5.05999C -0.00757534 4.39835 0.1159 3.74173 0.363616 3.12815C 0.611332 2.51458 0.978364 1.95629 1.44345 1.48562C 1.90854 1.01496 2.46242 0.641275 3.073 0.386257C 3.68357 0.13124 4.33868 -5.12925e-05 5.00036 -3.64915e-06Z"/>
<path id="path43_fill" d="M 86.47 58.09L 0 58.09L 0 1.09863e-05L 89.58 45.12C 90.96 45.8138 92.0651 46.9537 92.7158 48.3546C 93.3664 49.7555 93.5245 51.3353 93.1643 52.8373C 92.8041 54.3394 91.9469 55.6756 90.7317 56.6291C 89.5164 57.5826 88.0146 58.0975 86.47 58.09L 86.47 58.09Z"/>
<path id="path44_stroke" d="M -5.5 1.2207e-06L -5.5 78.02L 5.5 78.02L 5.5 1.2207e-06L -5.5 1.2207e-06Z"/>
<path id="path45_fill" d="M 86.47 58.09L 0 58.09L 0 -3.66211e-06L 89.55 45.16C 90.9063 45.8636 91.9884 47.0006 92.6242 48.3899C 93.26 49.7793 93.4131 51.3413 93.059 52.8277C 92.705 54.3141 91.8641 55.6394 90.6702 56.5929C 89.4763 57.5464 87.9979 58.0734 86.47 58.09L 86.47 58.09Z"/>
<path id="path46_stroke" d="M 2.74658e-06 249.1L -5.5 249.1L -5.5 254.6L 2.74658e-06 254.6L 2.74658e-06 249.1ZM -5.5 9.76562e-06L -5.5 249.1L 5.5 249.1L 5.5 9.76562e-06L -5.5 9.76562e-06ZM 2.74658e-06 254.6L 203.85 254.6L 203.85 243.6L 2.74658e-06 243.6L 2.74658e-06 254.6Z"/>
<path id="path47_stroke" d="M -3.88939 202.821C -6.03711 204.969 -6.03683 208.452 -3.88878 210.599C -1.74073 212.747 1.74168 212.747 3.8894 210.599L -3.88939 202.821ZM 63.24 143.46L 67.1291 139.571L 63.2397 135.682L 59.3506 139.571L 63.24 143.46ZM 89.77 169.99L 85.8809 173.879L 89.7698 177.768L 93.6589 173.879L 89.77 169.99ZM 182 77.77L 185.89 73.8815L 182.001 69.9914L 178.111 73.8807L 182 77.77ZM 213.32 109.1L 209.43 112.988L 213.239 116.798L 217.127 113.07L 213.32 109.1ZM 330.887 3.96953C 333.079 1.86702 333.152 -1.61463 331.05 -3.80694C 328.947 -5.99926 325.465 -6.07206 323.273 -3.96955L 330.887 3.96953ZM 3.8894 210.599L 67.1294 147.349L 59.3506 139.571L -3.88939 202.821L 3.8894 210.599ZM 59.3509 147.349L 85.8809 173.879L 93.6591 166.101L 67.1291 139.571L 59.3509 147.349ZM 93.6589 173.879L 185.889 81.6593L 178.111 73.8807L 85.8811 166.101L 93.6589 173.879ZM 178.11 81.6585L 209.43 112.988L 217.21 105.212L 185.89 73.8815L 178.11 81.6585ZM 217.127 113.07L 330.887 3.96953L 323.273 -3.96955L 209.513 105.13L 217.127 113.07Z"/>
<path id="path48_fill" d="M 18.6 0L 1.34277e-05 0L 1.34277e-05 99.66L 18.6 99.66L 18.6 0Z"/>
<path id="path49_fill" d="M 9.3 -7.32422e-06L 1.34277e-05 16.1L 18.59 16.1L 9.3 -7.32422e-06Z"/>
<path id="path50_fill" d="M 1.34277e-05 5.37001L 1.34277e-05 16.11L 9.3 21.48L 18.59 16.11L 18.59 5.37001L 9.3 1.2207e-05L 1.34277e-05 5.37001Z"/>
<path id="path51_fill" d="M 4.65 -7.32422e-06L 7.32422e-06 8.05001L 9.3 8.05001L 4.65 -7.32422e-06Z"/>
<path id="path52_fill" d="M 4.1 8.20001C 6.36437 8.20001 8.20001 6.36437 8.20001 4.1C 8.20001 1.83563 6.36437 -3.66211e-06 4.1 -3.66211e-06C 1.83563 -3.66211e-06 -4.88281e-06 1.83563 -4.88281e-06 4.1C -4.88281e-06 6.36437 1.83563 8.20001 4.1 8.20001Z"/>
<path id="path53_stroke" d="M 19.1634 45.5122C 19.7666 44.9444 19.7953 43.9951 19.2275 43.3918C 18.6596 42.7886 17.7103 42.76 17.1071 43.3278L 19.1634 45.5122ZM 2.92528 29.21L 1.86462 28.1493C 1.85394 28.16 1.84343 28.1709 1.83308 28.1819L 2.92528 29.21ZM 33.1959 1.06065C 33.7817 0.474859 33.7817 -0.474888 33.1959 -1.06067C 32.6101 -1.64646 31.6604 -1.64646 31.0746 -1.06067L 33.1959 1.06065ZM 17.1071 43.3278C 15.3541 44.978 13.0274 45.8806 10.6202 45.8442L 10.5749 48.8439C 13.762 48.892 16.8425 47.697 19.1634 45.5122L 17.1071 43.3278ZM 10.6202 45.8442C 8.21298 45.8079 5.91455 44.8354 4.2122 43.1331L 2.09088 45.2544C 4.34475 47.5083 7.38781 48.7957 10.5749 48.8439L 10.6202 45.8442ZM 4.2122 43.1331C 2.50985 41.4307 1.53742 39.1323 1.50107 36.7251L -1.49859 36.7704C -1.45047 39.9575 -0.162997 43.0005 2.09088 45.2544L 4.2122 43.1331ZM 1.50107 36.7251C 1.46472 34.3179 2.3673 31.9911 4.01748 30.2382L 1.83308 28.1819C -0.351713 30.5028 -1.54672 33.5833 -1.49859 36.7704L 1.50107 36.7251ZM 3.98594 30.2707L 33.1959 1.06065L 31.0746 -1.06067L 1.86462 28.1493L 3.98594 30.2707Z"/>
<path id="path54_stroke" d="M 17.7939 1.28432C 17.2168 1.87861 17.2307 2.82825 17.8249 3.40542C 18.4192 3.98258 19.3689 3.9687 19.946 3.37441L 17.7939 1.28432ZM 29.73 13.1894L 28.685 12.1133C 28.6797 12.1185 28.6744 12.1237 28.6692 12.1289L 29.73 13.1894ZM -1.06084 41.8689C -1.64653 42.4548 -1.64637 43.4045 -1.06048 43.9902C -0.4746 44.5759 0.475147 44.5757 1.06084 43.9899L -1.06084 41.8689ZM 19.946 3.37441C 20.5466 2.74546 21.1493 2.33149 21.9519 1.99668L 20.7736 -0.762205C 19.7038 -0.297295 18.6118 0.452721 17.7939 1.28432L 19.946 3.37441ZM 21.9519 1.99668C 22.7488 1.64835 23.4646 1.49916 24.3342 1.50016L 24.3123 -1.49976C 23.146 -1.48387 21.8491 -1.21358 20.7736 -0.762205L 21.9519 1.99668ZM 24.3342 1.50016C 25.2037 1.48645 25.9217 1.62516 26.7235 1.96181L 27.8614 -0.814004C 26.7794 -1.24961 25.4787 -1.50092 24.3123 -1.49976L 24.3342 1.50016ZM 26.7235 1.96181C 27.5309 2.28485 28.1396 2.68996 28.7493 3.31007L 30.8706 1.18875C 30.0407 0.369193 28.9378 -0.364779 27.8614 -0.814004L 26.7235 1.96181ZM 28.7493 3.31007C 29.3694 3.91977 29.7745 4.52847 30.0976 5.33589L 32.8734 4.19797C 32.4242 3.12154 31.6902 2.01871 30.8706 1.18875L 28.7493 3.31007ZM 30.0976 5.33589C 30.4342 6.13771 30.5729 6.85563 30.5592 7.72517L 33.5591 7.7471C 33.5603 6.5807 33.309 5.28 32.8734 4.19797L 30.0976 5.33589ZM 30.5592 7.72517C 30.5602 8.59482 30.411 9.31061 30.0627 10.1074L 32.8216 11.2858C 33.273 10.2103 33.5432 8.91339 33.5591 7.7471L 30.5592 7.72517ZM 30.0627 10.1074C 29.7279 10.91 29.3139 11.5128 28.685 12.1133L 30.7751 14.2654C 31.6067 13.4475 32.3567 12.3556 32.8216 11.2858L 30.0627 10.1074ZM 28.6692 12.1289L -1.06084 41.8689L 1.06084 43.9899L 30.7908 14.2499L 28.6692 12.1289Z"/>
<path id="path55_stroke" d="M 31.6748 1.06067C 32.2606 0.474887 32.2606 -0.47486 31.6748 -1.06065C 31.0891 -1.64643 30.1393 -1.64643 29.5535 -1.06065L 31.6748 1.06067ZM 1.4042 29.21L 2.46486 30.2707L 1.4042 29.21ZM 4.79418 37.3942L 4.79418 35.8942L 4.79418 37.3942ZM 8.18419 35.99L 9.24485 37.0507L 9.24486 37.0507L 8.18419 35.99ZM 34.0448 12.2506C 34.6306 11.6649 34.6306 10.7151 34.0448 10.1293C 33.4591 9.54354 32.5093 9.54354 31.9235 10.1293L 34.0448 12.2506ZM 29.5535 -1.06065L 0.343536 28.1493L 2.46486 30.2707L 31.6748 1.06067L 29.5535 -1.06065ZM 0.343536 28.1493C -0.200495 28.7036 -0.716997 29.4766 -1.02087 30.1913L 1.75077 31.3394C 1.92876 30.8908 2.11853 30.6068 2.46486 30.2707L 0.343536 28.1493ZM -1.02087 30.1913C -1.31138 30.9115 -1.49278 31.8234 -1.50001 32.6L 1.49999 32.6C 1.49277 32.1175 1.55942 31.7824 1.75077 31.3394L -1.02087 30.1913ZM -1.50001 32.6C -1.49278 33.3766 -1.31138 34.2884 -1.02087 35.0087L 1.75077 33.8606C 1.55942 33.4175 1.49277 33.0825 1.49999 32.6L -1.50001 32.6ZM -1.02087 35.0087C -0.717007 35.7234 -0.200508 36.4964 0.343536 37.0507L 2.46486 34.9293C 2.11854 34.5932 1.92877 34.3092 1.75077 33.8606L -1.02087 35.0087ZM 0.343536 37.0507C 0.897781 37.5947 1.67077 38.1112 2.3855 38.4151L 3.53355 35.6434C 3.08497 35.4654 2.80097 35.2757 2.46486 34.9293L 0.343536 37.0507ZM 2.3855 38.4151C 3.10576 38.7056 4.01758 38.887 4.79418 38.8942L 4.79418 35.8942C 4.31162 35.9014 3.9766 35.8348 3.53355 35.6434L 2.3855 38.4151ZM 4.79418 38.8942C 5.57078 38.887 6.4826 38.7056 7.20286 38.4151L 6.05481 35.6434C 5.61176 35.8348 5.27674 35.9014 4.79418 35.8942L 4.79418 38.8942ZM 7.20286 38.4151C 7.91758 38.1112 8.69059 37.5947 9.24485 37.0507L 7.12353 34.9293C 6.78743 35.2757 6.50341 35.4654 6.05481 35.6434L 7.20286 38.4151ZM 9.24486 37.0507L 34.0448 12.2506L 31.9235 10.1293L 7.12353 34.9293L 9.24486 37.0507Z"/>
<path id="path56_fill" d="M 46.03 92.06C 71.4517 92.06 92.06 71.4517 92.06 46.03C 92.06 20.6083 71.4517 1.09863e-05 46.03 1.09863e-05C 20.6083 1.09863e-05 0 20.6083 0 46.03C 0 71.4517 20.6083 92.06 46.03 92.06Z"/>
<path id="path57_stroke" d="M 2 -1.46484e-05C 2 -1.10458 1.10457 -2.00001 2.74658e-06 -2.00001C -1.10457 -2.00001 -2 -1.10458 -2 -1.46484e-05L 2 -1.46484e-05ZM -2 8.96999C -2 10.0746 -1.10457 10.97 2.74658e-06 10.97C 1.10457 10.97 2 10.0746 2 8.96999L -2 8.96999ZM -2 -1.46484e-05L -2 8.96999L 2 8.96999L 2 -1.46484e-05L -2 -1.46484e-05Z"/>
<path id="path58_stroke" d="M 6.21207 0.999946C 6.76434 0.0433478 6.43656 -1.17983 5.47996 -1.73209C 4.52336 -2.28435 3.30019 -1.95657 2.74792 -0.999971L 6.21207 0.999946ZM -1.73207 6.76004C -2.28433 7.71664 -1.95655 8.93981 -0.999955 9.49207C -0.0433567 10.0443 1.17982 9.71655 1.73208 8.75996L -1.73207 6.76004ZM 2.74792 -0.999971L -1.73207 6.76004L 1.73208 8.75996L 6.21207 0.999946L 2.74792 -0.999971Z"/>
<path id="path59_stroke" d="M 8.76732 1.7336C 9.72476 1.18279 10.0544 -0.0398811 9.5036 -0.99732C 8.95279 -1.95476 7.73012 -2.2844 6.77268 -1.7336L 8.76732 1.7336ZM -0.997323 2.73641C -1.95476 3.28721 -2.2844 4.50988 -1.7336 5.46732C -1.18279 6.42476 0.0398775 6.7544 0.997316 6.2036L -0.997323 2.73641ZM 6.77268 -1.7336L -0.997323 2.73641L 0.997316 6.2036L 8.76732 1.7336L 6.77268 -1.7336Z"/>
<path id="path60_stroke" d="M 8.95777 2.01001C 10.0623 2.01124 10.9588 1.11681 10.96 0.0122416C 10.9612 -1.09233 10.0668 -1.98876 8.96224 -1.98999L 8.95777 2.01001ZM 0.00223188 -2C -1.10234 -2.00124 -1.99877 -1.10681 -2 -0.00223676C -2.00124 1.10233 -1.10681 1.99876 -0.00223676 2L 0.00223188 -2ZM 8.96224 -1.98999L 0.00223188 -2L -0.00223676 2L 8.95777 2.01001L 8.96224 -1.98999Z"/>
<path id="path61_stroke" d="M 6.75669 6.23013C 7.71222 6.78424 8.93603 6.45883 9.49014 5.5033C 10.0442 4.54777 9.71883 3.32396 8.7633 2.76985L 6.75669 6.23013ZM 1.00331 -1.73015C 0.0477766 -2.28425 -1.17603 -1.95884 -1.73014 -1.00331C -2.28425 -0.0477797 -1.95883 1.17602 -1.0033 1.73013L 1.00331 -1.73015ZM 8.7633 2.76985L 1.00331 -1.73015L -1.0033 1.73013L 6.75669 6.23013L 8.7633 2.76985Z"/>
<path id="path62_stroke" d="M 2.73641 8.76732C 3.28721 9.72476 4.50989 10.0544 5.46732 9.50359C 6.42476 8.95279 6.7544 7.73012 6.2036 6.77268L 2.73641 8.76732ZM 1.73359 -0.997311C 1.18279 -1.95475 -0.0398831 -2.28439 -0.997321 -1.73358C -1.95476 -1.18278 -2.2844 0.0398928 -1.73359 0.997331L 1.73359 -0.997311ZM 6.2036 6.77268L 1.73359 -0.997311L -1.73359 0.997331L 2.73641 8.76732L 6.2036 6.77268Z"/>
<path id="path63_stroke" d="M -1.99999 8.95331C -2.00368 10.0579 -1.11126 10.9563 -0.00669399 10.96C 1.09787 10.9637 1.99629 10.0713 1.99999 8.9667L -1.99999 8.95331ZM 2.02999 0.00670833C 2.03369 -1.09785 1.14126 -1.99628 0.036697 -1.99998C -1.06787 -2.00367 -1.96629 -1.11125 -1.96999 -0.00668392L 2.02999 0.00670833ZM 1.99999 8.9667L 2.02999 0.00670833L -1.96999 -0.00668392L -1.99999 8.95331L 1.99999 8.9667Z"/>
<path id="path64_stroke" d="M -1.72958 6.74574C -2.28422 7.70096 -1.95949 8.92495 -1.00427 9.47959C -0.0490491 10.0342 1.17494 9.7095 1.72958 8.75428L -1.72958 6.74574ZM 6.22958 1.00428C 6.78422 0.049065 6.45949 -1.17492 5.50427 -1.72956C 4.54905 -2.28421 3.32507 -1.95948 2.77042 -1.00426L 6.22958 1.00428ZM 1.72958 8.75428L 6.22958 1.00428L 2.77042 -1.00426L -1.72958 6.74574L 1.72958 8.75428Z"/>
<path id="path65_stroke" d="M -0.992996 2.71392C -1.9518 3.26233 -2.28449 4.48418 -1.73608 5.44299C -1.18766 6.4018 0.0341872 6.73448 0.992996 6.18607L -0.992996 2.71392ZM 8.773 1.73609C 9.7318 1.18767 10.0645 -0.0341775 9.51608 -0.992986C 8.96766 -1.95179 7.74581 -2.28448 6.78701 -1.73607L 8.773 1.73609ZM 0.992996 6.18607L 8.773 1.73609L 6.78701 -1.73607L -0.992996 2.71392L 0.992996 6.18607Z"/>
<path id="path66_stroke" d="M 0.00892043 -1.99997C -1.09564 -2.0049 -1.99505 -1.11347 -1.99998 -0.00891433C -2.00491 1.09564 -1.11348 1.99506 -0.00892043 1.99999L 0.00892043 -1.99997ZM 8.96108 2.03999C 10.0656 2.04492 10.9651 1.15349 10.97 0.0489351C 10.9749 -1.05562 10.0835 -1.95504 8.97892 -1.95997L 8.96108 2.03999ZM -0.00892043 1.99999L 8.96108 2.03999L 8.97892 -1.95997L 0.00892043 -1.99997L -0.00892043 1.99999Z"/>
<path id="path67_stroke" d="M 1.00857 -1.72707C 0.0547332 -2.28409 -1.17006 -1.96241 -1.72708 -1.00857C -2.28409 -0.0547354 -1.96241 1.17005 -1.00857 1.72707L 1.00857 -1.72707ZM 6.73143 6.24706C 7.68527 6.80408 8.91006 6.4824 9.46708 5.52856C 10.0241 4.57472 9.70241 3.34993 8.74858 2.79291L 6.73143 6.24706ZM -1.00857 1.72707L 6.73143 6.24706L 8.74858 2.79291L 1.00857 -1.72707L -1.00857 1.72707Z"/>
<path id="path68_stroke" d="M 1.73758 -0.990353C 1.19063 -1.94999 -0.0307146 -2.28454 -0.990355 -1.73758C -1.95 -1.19062 -2.28454 0.030717 -1.73758 0.990358L 1.73758 -0.990353ZM 2.70242 8.78037C 3.24938 9.74001 4.47072 10.0746 5.43036 9.52759C 6.39 8.98064 6.72455 7.7593 6.17759 6.79966L 2.70242 8.78037ZM -1.73758 0.990358L 2.70242 8.78037L 6.17759 6.79966L 1.73758 -0.990353L -1.73758 0.990358Z"/>
<path id="path69_stroke" d="M 26.1377 2.60478C 27.5763 1.31368 27.6959 -0.899169 26.4048 -2.33776C 25.1137 -3.77634 22.9008 -3.8959 21.4623 -2.6048L 26.1377 2.60478ZM -2.33775 18.7552C -3.77634 20.0463 -3.8959 22.2592 -2.60479 23.6978C -1.31369 25.1363 0.899158 25.2559 2.33774 23.9648L -2.33775 18.7552ZM 21.4623 -2.6048L -2.33775 18.7552L 2.33774 23.9648L 26.1377 2.60478L 21.4623 -2.6048Z"/>
<path id="path70_stroke" d="M 8.98891 21.781C 9.98355 23.4384 12.1335 23.9757 13.791 22.9811C 15.4484 21.9865 15.9857 19.8365 14.9911 18.1791L 8.98891 21.781ZM 3.00109 -1.80096C 2.00645 -3.45842 -0.143495 -3.99574 -1.80095 -3.0011C -3.45841 -2.00646 -3.99573 0.143495 -3.00109 1.80095L 3.00109 -1.80096ZM 14.9911 18.1791L 3.00109 -1.80096L -3.00109 1.80095L 8.98891 21.781L 14.9911 18.1791Z"/>
<path id="path71_fill" d="M 7.50001 15C 11.6421 15 15 11.6421 15 7.5C 15 3.35786 11.6421 0 7.50001 0C 3.35787 0 7.32422e-06 3.35786 7.32422e-06 7.5C 7.32422e-06 11.6421 3.35787 15 7.50001 15Z"/>
<path id="path72_stroke" d="M 12.45 -1.83105e-06C 12.45 -0.552287 12.0023 -1 11.45 -1C 10.8977 -1 10.45 -0.552287 10.45 -1.83105e-06L 12.45 -1.83105e-06ZM 7.32422e-06 10.45C -0.552277 10.45 -0.999993 10.8977 -0.999993 11.45C -0.999993 12.0023 -0.552277 12.45 7.32422e-06 12.45L 7.32422e-06 10.45ZM 10.45 -1.83105e-06C 10.45 2.77151 9.34901 5.42951 7.38926 7.38927L 8.80347 8.80348C 11.1383 6.46865 12.45 3.30194 12.45 -1.83105e-06L 10.45 -1.83105e-06ZM 7.38926 7.38927C 5.4295 9.34902 2.77152 10.45 7.32422e-06 10.45L 7.32422e-06 12.45C 3.30195 12.45 6.46865 11.1383 8.80347 8.80348L 7.38926 7.38927Z"/>
<path id="path73_stroke" d="M 0.500007 3.05176e-06C 0.500007 -0.276139 0.27615 -0.499997 7.32422e-06 -0.499997C -0.276135 -0.499997 -0.499993 -0.276139 -0.499993 3.05176e-06L 0.500007 3.05176e-06ZM -0.499993 6.25C -0.499993 6.52615 -0.276135 6.75 7.32422e-06 6.75C 0.27615 6.75 0.500007 6.52615 0.500007 6.25L -0.499993 6.25ZM -0.499993 3.05176e-06L -0.499993 6.25L 0.500007 6.25L 0.500007 3.05176e-06L -0.499993 3.05176e-06Z"/>
<path id="path74_stroke" d="M 4.77355 0.35356C 4.96881 0.158298 4.96881 -0.158285 4.77355 -0.353547C 4.57828 -0.548809 4.2617 -0.548809 4.06644 -0.353547L 4.77355 0.35356ZM -0.353559 4.06645C -0.548821 4.26171 -0.548821 4.5783 -0.353559 4.77356C -0.158297 4.96882 0.158286 4.96882 0.353548 4.77356L -0.353559 4.06645ZM 4.06644 -0.353547L -0.353559 4.06645L 0.353548 4.77356L 4.77355 0.35356L 4.06644 -0.353547Z"/>
<path id="path75_stroke" d="M 4.06645 4.77356C 4.26171 4.96882 4.57829 4.96882 4.77355 4.77356C 4.96881 4.5783 4.96881 4.26171 4.77355 4.06645L 4.06645 4.77356ZM 0.353554 -0.353547C 0.158292 -0.548809 -0.158291 -0.548809 -0.353553 -0.353547C -0.548815 -0.158285 -0.548815 0.158298 -0.353553 0.35356L 0.353554 -0.353547ZM 4.77355 4.06645L 0.353554 -0.353547L -0.353553 0.35356L 4.06645 4.77356L 4.77355 4.06645Z"/>
<path id="path76_stroke" d="M 6.25 0.499998C 6.52614 0.499998 6.75 0.276141 6.75 -1.83105e-06C 6.75 -0.276144 6.52614 -0.500002 6.25 -0.500002L 6.25 0.499998ZM -3.05176e-06 -0.500002C -0.276145 -0.500002 -0.500003 -0.276144 -0.500003 -1.83105e-06C -0.500003 0.276141 -0.276145 0.499998 -3.05176e-06 0.499998L -3.05176e-06 -0.500002ZM 6.25 -0.500002L -3.05176e-06 -0.500002L -3.05176e-06 0.499998L 6.25 0.499998L 6.25 -0.500002Z"/>
<path id="path77_fill" d="M -5.49316e-06 11.19C -5.49316e-06 8.11999 5.56001 6.71387e-06 5.56001 6.71387e-06C 5.56001 6.71387e-06 11.12 8.11999 11.12 11.19C 11.12 12.6646 10.5342 14.0788 9.49151 15.1215C 8.44881 16.1642 7.03461 16.75 5.56001 16.75C 4.0854 16.75 2.67119 16.1642 1.62849 15.1215C 0.585786 14.0788 -5.49316e-06 12.6646 -5.49316e-06 11.19Z"/>
</defs>
</svg>
