<svg width="79" height="86" viewBox="0 0 79 86" version="1.1" xmlns="http://www.w3.org/2000/svg" xmlns:xlink="http://www.w3.org/1999/xlink">
<title>Group</title>
<desc>Created using Figma</desc>
<g id="Canvas" transform="translate(-1508 -592)">
<g id="Group">
<g id="Vector">
<use xlink:href="#path0_fill" transform="translate(1508 634.59)" fill="url(#paint0_linear)"/>
</g>
<g id="Vector">
<use xlink:href="#path1_fill" transform="translate(1543.76 634.59)" fill="url(#paint1_linear)"/>
</g>
<g id="Vector">
<use xlink:href="#path2_fill" transform="translate(1529.29 592)" fill="url(#paint2_linear)"/>
</g>
<g id="Vector">
<use xlink:href="#path3_fill" transform="translate(1543.76 599.84)" fill="url(#paint3_linear)"/>
</g>
<g id="Vector">
<use xlink:href="#path4_fill" transform="translate(1519.83 644.26)" fill="url(#paint4_linear)"/>
</g>
</g>
</g>
<defs>
<linearGradient id="paint0_linear" x1="0" y1="0" x2="1" y2="0" gradientUnits="userSpaceOnUse" gradientTransform="matrix(42.59 0 0 42.59 0 -0.005)">
<stop offset="0" stop-color="#F1666A"/>
<stop offset="1" stop-color="#EE255C"/>
</linearGradient>
<linearGradient id="paint1_linear" x1="0" y1="0" x2="1" y2="0" gradientUnits="userSpaceOnUse" gradientTransform="matrix(1813.91 0 0 1813.91 3901.67 12213.7)">
<stop offset="0" stop-color="#F1666A"/>
<stop offset="1" stop-color="#EE255C"/>
</linearGradient>
<linearGradient id="paint2_linear" x1="0" y1="0" x2="1" y2="0" gradientUnits="userSpaceOnUse" gradientTransform="matrix(1813.91 0 0 1813.91 3285.39 10399.8)">
<stop offset="0" stop-color="#F1666A"/>
<stop offset="1" stop-color="#EE255C"/>
</linearGradient>
<linearGradient id="paint3_linear" x1="0" y1="0" x2="1" y2="0" gradientUnits="userSpaceOnUse" gradientTransform="matrix(175.562 0 0 72.875 1213.83 1364.85)">
<stop offset="0" stop-color="#2B3990"/>
<stop offset="1" stop-color="#262262"/>
</linearGradient>
<linearGradient id="paint4_linear" x1="0" y1="0" x2="1" y2="0" gradientUnits="userSpaceOnUse" gradientTransform="matrix(175.562 0 0 72.875 896.76 1609.16)">
<stop offset="0" stop-color="#2B3990"/>
<stop offset="1" stop-color="#262262"/>
</linearGradient>
<path id="path0_fill" d="M 42.59 0L 0 0L 0 42.59L 42.59 42.59L 42.59 0Z"/>
<path id="path1_fill" d="M 42.59 0L 0 0L 0 42.59L 42.59 42.59L 42.59 0Z"/>
<path id="path2_fill" d="M 42.59 2.44141e-06L 0 2.44141e-06L 0 42.59L 42.59 42.59L 42.59 2.44141e-06Z"/>
<path id="path3_fill" d="M 10.5 0L 2.75 0C 1.23122 0 0 1.23122 0 2.75C 0 4.26878 1.23122 5.5 2.75 5.5L 10.5 5.5C 12.0188 5.5 13.25 4.26878 13.25 2.75C 13.25 1.23122 12.0188 0 10.5 0Z"/>
<path id="path4_fill" d="M 10.5 1.2207e-05L 2.75 1.2207e-05C 1.23122 1.2207e-05 0 1.23123 0 2.75001C 0 4.2688 1.23122 5.50001 2.75 5.50001L 10.5 5.50001C 12.0188 5.50001 13.25 4.2688 13.25 2.75001C 13.25 1.23123 12.0188 1.2207e-05 10.5 1.2207e-05Z"/>
</defs>
</svg>
