<svg width="443" height="216" viewBox="0 0 443 216" version="1.1" xmlns="http://www.w3.org/2000/svg" xmlns:xlink="http://www.w3.org/1999/xlink">
<title>retain-illustration 2</title>
<desc>Created using Figma</desc>
<g id="Canvas" transform="translate(-1480 -131)">
<g id="retain-illustration 2">
<g id="Group">
<g id="Layer 1">
<g id="Vector">
<use xlink:href="#path0_fill" transform="translate(1480.74 304.28)" fill="url(#paint0_linear)"/>
</g>
<g id="Vector">
<use xlink:href="#path1_fill" transform="matrix(0.96 -0.29 0.29 0.96 1758.8 263.504)" fill="url(#paint1_linear)"/>
</g>
<g id="Vector">
<use xlink:href="#path2_fill" transform="matrix(0.956763 -0.290869 0.290869 0.956763 1774.42 266.352)" fill="url(#paint2_linear)"/>
</g>
<g id="Vector">
<use xlink:href="#path3_fill" transform="translate(1516.5 304.28)" fill="url(#paint3_linear)"/>
</g>
<g id="Vector">
<use xlink:href="#path4_fill" transform="translate(1502.03 261.69)" fill="url(#paint4_linear)"/>
</g>
<g id="Vector">
<use xlink:href="#path0_fill" transform="translate(1526.18 141.92)" fill="url(#paint5_linear)"/>
</g>
<g id="Vector">
<use xlink:href="#path5_stroke" transform="translate(1612.52 191.95)" fill="#8C8BC4"/>
</g>
<g id="Vector">
<use xlink:href="#path6_stroke" transform="translate(1597.66 240.11)" fill="#8C8BC4"/>
</g>
<g id="Vector">
<use xlink:href="#path7_stroke" transform="translate(1867.05 247.36)" fill="#8C8BC4"/>
</g>
<g id="Vector">
<use xlink:href="#path8_stroke" transform="translate(1803.54 176.32)" fill="#8C8BC4"/>
</g>
<g id="Vector">
<use xlink:href="#path9_fill" transform="translate(1824.96 169.11)" fill="#F5A6C8"/>
</g>
<g id="Vector">
<use xlink:href="#path10_fill" transform="translate(1567.76 165.65)" fill="#F5A6C8"/>
</g>
<g id="Vector">
<use xlink:href="#path11_stroke" transform="translate(1701.79 211.95)" fill="url(#paint12_linear)"/>
</g>
<g id="Vector">
<use xlink:href="#path12_stroke" transform="translate(1702.11 245.28)" fill="url(#paint13_linear)"/>
</g>
<g id="Vector">
<use xlink:href="#path13_stroke" transform="translate(1504.1 147.59)" fill="#8C8BC4"/>
</g>
<g id="Vector">
<use xlink:href="#path14_stroke" transform="translate(1571.99 293.78)" fill="#8C8BC4"/>
</g>
<g id="Vector">
<use xlink:href="#path15_stroke" transform="translate(1695.7 192.28)" fill="#8C8BC4"/>
</g>
<g id="Vector">
<use xlink:href="#path16_fill" transform="translate(1649.12 187.04)" fill="url(#paint17_linear)"/>
</g>
<g id="Vector">
<use xlink:href="#path17_fill" transform="matrix(0.95742 -0.288698 0.288698 0.95742 1677.6 161.354)" fill="url(#paint18_linear)"/>
</g>
<g id="Vector">
<use xlink:href="#path18_fill" transform="matrix(0.472858 -0.881138 0.881138 0.472858 1668.28 181.035)" fill="url(#paint19_linear)"/>
</g>
<g id="Vector">
<use xlink:href="#path19_fill" transform="matrix(0.472858 -0.881138 0.881138 0.472858 1668.24 158.708)" fill="url(#paint20_linear)"/>
</g>
<g id="Vector">
<use xlink:href="#path20_fill" transform="translate(1672.79 163.223)" fill="url(#paint21_linear)"/>
</g>
<g id="Vector">
<use xlink:href="#path21_fill" transform="translate(1689.74 171.13)" fill="#FFFFFF"/>
</g>
<g id="Vector" style="mix-blend-mode:multiply">
<use xlink:href="#path22_stroke" transform="translate(1692.15 173.5)" fill="#F5A6C8"/>
</g>
<g id="Vector">
<use xlink:href="#path23_stroke" transform="translate(1692.15 172.53)" fill="url(#paint24_linear)"/>
</g>
<g id="Vector">
<use xlink:href="#path24_stroke" transform="translate(1691.49 172.83)" fill="url(#paint25_linear)"/>
</g>
<g id="Vector">
<use xlink:href="#path25_stroke" transform="translate(1691.44 172.83)" fill="url(#paint26_linear)"/>
</g>
<g id="Vector">
<use xlink:href="#path26_stroke" transform="translate(1691.15 173.54)" fill="url(#paint27_linear)"/>
</g>
<g id="Vector">
<use xlink:href="#path27_stroke" transform="translate(1586.08 158.545)" fill="url(#paint28_linear)"/>
</g>
<g id="Vector">
<use xlink:href="#path28_fill" transform="matrix(0.00715579 -0.999974 0.999974 0.00715579 1814.65 221.811)" fill="url(#paint29_linear)"/>
</g>
<g id="Vector">
<use xlink:href="#path29_fill" transform="translate(1825.1 218.028)" fill="url(#paint30_linear)"/>
</g>
<g id="Vector">
<use xlink:href="#path30_fill" transform="translate(1831.64 213.93)" fill="url(#paint31_linear)"/>
</g>
<g id="Vector">
<use xlink:href="#path31_fill" transform="translate(1824.27 202.02)" fill="url(#paint32_linear)"/>
</g>
<g id="Vector">
<use xlink:href="#path32_fill" transform="translate(1831.67 209.97)" fill="url(#paint33_linear)"/>
</g>
<g id="Vector">
<use xlink:href="#path33_fill" transform="translate(1830.15 206.06)" fill="url(#paint34_linear)"/>
</g>
<g id="Vector">
<use xlink:href="#path34_fill" transform="matrix(0.00715579 -0.999974 0.999974 0.00715579 1576.09 216.587)" fill="url(#paint35_linear)"/>
</g>
<g id="Vector">
<use xlink:href="#path35_fill" transform="translate(1576.13 207.19)" fill="url(#paint36_linear)"/>
</g>
<g id="Vector">
<use xlink:href="#path36_fill" transform="translate(1579.97 213.72)" fill="url(#paint37_linear)"/>
</g>
<g id="Vector">
<use xlink:href="#path37_fill" transform="translate(1591.95 206.35)" fill="url(#paint38_linear)"/>
</g>
<g id="Vector">
<use xlink:href="#path38_fill" transform="translate(1583.94 213.75)" fill="url(#paint39_linear)"/>
</g>
<g id="Vector">
<use xlink:href="#path39_fill" transform="translate(1587.92 212.24)" fill="url(#paint40_linear)"/>
</g>
<g id="Vector">
<use xlink:href="#path40_stroke" transform="translate(1664.78 249.33)" fill="url(#paint41_linear)"/>
</g>
<g id="Vector">
<use xlink:href="#path41_stroke" transform="translate(1597.54 244.89)" fill="#8C8BC4"/>
</g>
<g id="Vector">
<use xlink:href="#path42_fill" transform="matrix(0.472858 -0.881138 0.881138 0.472858 1590.85 165.701)" fill="#8C8BC4"/>
</g>
<g id="Vector">
<use xlink:href="#path43_fill" transform="matrix(0.472858 -0.881138 0.881138 0.472858 1851.6 163.515)" fill="#8C8BC4"/>
</g>
<g id="Vector">
<use xlink:href="#path44_stroke" transform="translate(1900.85 165.5)" fill="#8C8BC4"/>
</g>
<g id="Vector">
<use xlink:href="#path45_stroke" transform="translate(1805.54 240.78)" fill="#8C8BC4"/>
</g>
<g id="Vector">
<use xlink:href="#path46_stroke" transform="translate(1774.18 146.96)" fill="#8C8BC4"/>
</g>
<g id="Vector">
<use xlink:href="#path47_fill" transform="translate(1547.49 326.78)" fill="url(#paint48_linear)"/>
</g>
<g id="Vector">
<use xlink:href="#path48_fill" transform="translate(1653.08 326.77)" fill="#8C8BC4"/>
</g>
<g id="Vector">
<use xlink:href="#path49_fill" transform="translate(1878.65 326.78)" fill="url(#paint50_linear)"/>
</g>
<g id="Vector">
<use xlink:href="#path50_fill" transform="translate(1590.08 326.78)" fill="url(#paint51_linear)"/>
</g>
<g id="Vector">
<use xlink:href="#path51_fill" transform="translate(1791.41 305.28)" fill="url(#paint52_linear)"/>
</g>
<g id="Vector">
<use xlink:href="#path52_fill" transform="translate(1688.79 307.06)" fill="url(#paint53_linear)"/>
</g>
<g id="Vector">
<use xlink:href="#path53_stroke" transform="translate(1696.87 154.45)" fill="url(#paint54_linear)"/>
</g>
<g id="Vector">
<use xlink:href="#path54_stroke" transform="translate(1700.54 161.08)" fill="url(#paint55_linear)"/>
</g>
<g id="Vector">
<use xlink:href="#path55_stroke" transform="translate(1701.79 169.07)" fill="url(#paint56_linear)"/>
</g>
<g id="Vector">
<use xlink:href="#path56_fill" transform="matrix(0.999974 -0.00715579 0.00715579 0.999974 1722.05 218.828)" fill="url(#paint57_linear)"/>
</g>
<g id="Vector">
<use xlink:href="#path57_fill" transform="translate(1738.11 229.15)" fill="url(#paint58_linear)"/>
</g>
<g id="Vector">
<use xlink:href="#path58_fill" transform="translate(1734.02 235.69)" fill="url(#paint59_linear)"/>
</g>
<g id="Vector">
<use xlink:href="#path59_fill" transform="translate(1722.1 228.32)" fill="url(#paint60_linear)"/>
</g>
<g id="Vector">
<use xlink:href="#path60_fill" transform="translate(1730.05 235.72)" fill="url(#paint61_linear)"/>
</g>
<g id="Vector">
<use xlink:href="#path61_fill" transform="translate(1726.14 234.2)" fill="url(#paint62_linear)"/>
</g>
<g id="Vector">
<use xlink:href="#path62_fill" transform="matrix(0.999974 -0.00715579 0.00715579 0.999974 1516.76 137.519)" fill="url(#paint63_linear)"/>
</g>
<g id="Vector">
<use xlink:href="#path63_fill" transform="translate(1527.21 137.42)" fill="url(#paint64_linear)"/>
</g>
<g id="Vector">
<use xlink:href="#path64_fill" transform="translate(1533.75 141.26)" fill="url(#paint65_linear)"/>
</g>
<g id="Vector">
<use xlink:href="#path65_fill" transform="translate(1526.38 153.24)" fill="url(#paint66_linear)"/>
</g>
<g id="Vector">
<use xlink:href="#path66_fill" transform="translate(1533.77 145.23)" fill="url(#paint67_linear)"/>
</g>
<g id="Vector">
<use xlink:href="#path67_fill" transform="translate(1532.26 149.21)" fill="url(#paint68_linear)"/>
</g>
<g id="Vector">
<use xlink:href="#path68_fill" transform="matrix(0.00715579 -0.999974 0.999974 0.00715579 1907.51 173.229)" fill="url(#paint69_linear)"/>
</g>
<g id="Vector">
<use xlink:href="#path69_fill" transform="translate(1919.71 150.07)" fill="url(#paint70_linear)"/>
</g>
<g id="Vector">
<use xlink:href="#path70_fill" transform="translate(1916.6 150.04)" fill="url(#paint71_linear)"/>
</g>
<g id="Vector">
<use xlink:href="#path71_fill" transform="translate(1907.53 157.01)" fill="url(#paint72_linear)"/>
</g>
<g id="Vector">
<use xlink:href="#path72_fill" transform="translate(1913.58 150.02)" fill="url(#paint73_linear)"/>
</g>
<g id="Vector">
<use xlink:href="#path73_fill" transform="translate(1910.61 149.98)" fill="url(#paint74_linear)"/>
</g>
<g id="Vector">
<use xlink:href="#path74_fill" transform="matrix(0.999974 -0.00715579 0.00715579 0.999974 1766.58 139.571)" fill="url(#paint75_linear)"/>
</g>
<g id="Vector">
<use xlink:href="#path75_fill" transform="translate(1766.63 131.41)" fill="url(#paint76_linear)"/>
</g>
<g id="Vector">
<use xlink:href="#path76_fill" transform="translate(1769.55 131.39)" fill="url(#paint77_linear)"/>
</g>
<g id="Vector">
<use xlink:href="#path77_fill" transform="translate(1778.67 138.36)" fill="url(#paint78_linear)"/>
</g>
<g id="Vector">
<use xlink:href="#path78_fill" transform="translate(1772.57 131.37)" fill="url(#paint79_linear)"/>
</g>
<g id="Vector">
<use xlink:href="#path79_fill" transform="translate(1775.6 131.36)" fill="url(#paint80_linear)"/>
</g>
<g id="Vector">
<use xlink:href="#path80_fill" transform="translate(1516.5 269.53)" fill="url(#paint81_linear)"/>
</g>
<g id="Vector">
<use xlink:href="#path81_fill" transform="translate(1550.23 148.5)" fill="url(#paint82_linear)"/>
</g>
<g id="Vector">
<use xlink:href="#path82_fill" transform="translate(1492.57 313.95)" fill="url(#paint83_linear)"/>
</g>
</g>
</g>
</g>
</g>
<defs>
<linearGradient id="paint0_linear" x1="0" y1="0" x2="1" y2="0" gradientUnits="userSpaceOnUse" gradientTransform="matrix(42.59 0 0 42.59 0 -0.005)">
<stop offset="0" stop-color="#F1666A"/>
<stop offset="1" stop-color="#EE255C"/>
</linearGradient>
<linearGradient id="paint1_linear" x1="0" y1="0" x2="1" y2="0" gradientUnits="userSpaceOnUse" gradientTransform="matrix(1813.91 0 0 1813.91 14407.3 10130.7)">
<stop offset="0" stop-color="#F1666A"/>
<stop offset="1" stop-color="#EE255C"/>
</linearGradient>
<linearGradient id="paint2_linear" x1="0" y1="0" x2="1" y2="0" gradientUnits="userSpaceOnUse" gradientTransform="matrix(13.25 0 0 13.25 -4.70735e-14 -3.875)">
<stop offset="0" stop-color="#2B3990"/>
<stop offset="1" stop-color="#262262"/>
</linearGradient>
<linearGradient id="paint3_linear" x1="0" y1="0" x2="1" y2="0" gradientUnits="userSpaceOnUse" gradientTransform="matrix(1813.91 0 0 1813.91 3901.67 12213.7)">
<stop offset="0" stop-color="#F1666A"/>
<stop offset="1" stop-color="#EE255C"/>
</linearGradient>
<linearGradient id="paint4_linear" x1="0" y1="0" x2="1" y2="0" gradientUnits="userSpaceOnUse" gradientTransform="matrix(1813.91 0 0 1813.91 3285.39 10399.8)">
<stop offset="0" stop-color="#F1666A"/>
<stop offset="1" stop-color="#EE255C"/>
</linearGradient>
<linearGradient id="paint5_linear" x1="0" y1="0" x2="1" y2="0" gradientUnits="userSpaceOnUse" gradientTransform="matrix(1813.91 0 0 1813.91 4313.94 5298.83)">
<stop offset="0" stop-color="#F1666A"/>
<stop offset="1" stop-color="#EE255C"/>
</linearGradient>
<linearGradient id="paint12_linear" x1="0" y1="0" x2="1" y2="0" gradientUnits="userSpaceOnUse" gradientTransform="matrix(122.75 0 0 0 0 0)">
<stop offset="0" stop-color="#2B3990"/>
<stop offset="1" stop-color="#262262"/>
</linearGradient>
<linearGradient id="paint13_linear" x1="0" y1="0" x2="1" y2="0" gradientUnits="userSpaceOnUse" gradientTransform="matrix(2046.75 0 0 4093.5 9709.44 17146.1)">
<stop offset="0" stop-color="#2B3990"/>
<stop offset="1" stop-color="#262262"/>
</linearGradient>
<linearGradient id="paint17_linear" x1="0" y1="0" x2="1" y2="0" gradientUnits="userSpaceOnUse" gradientTransform="matrix(5280.2 0 0 5280.2 16292.6 12318.4)">
<stop offset="0" stop-color="#F1666A"/>
<stop offset="1" stop-color="#EE255C"/>
</linearGradient>
<linearGradient id="paint18_linear" x1="0" y1="0" x2="1" y2="0" gradientUnits="userSpaceOnUse" gradientTransform="matrix(34.3956 10.3715 -10.3715 34.3956 1079.49 1122.88)">
<stop offset="0" stop-color="#2B3990"/>
<stop offset="1" stop-color="#262262"/>
</linearGradient>
<linearGradient id="paint19_linear" x1="0" y1="0" x2="1" y2="0" gradientUnits="userSpaceOnUse" gradientTransform="matrix(303.63 565.793 -565.793 303.63 -265.319 7276.35)">
<stop offset="0" stop-color="#F1666A"/>
<stop offset="1" stop-color="#EE255C"/>
</linearGradient>
<linearGradient id="paint20_linear" x1="0" y1="0" x2="1" y2="0" gradientUnits="userSpaceOnUse" gradientTransform="matrix(100.519 187.309 -187.309 100.519 23.3761 4059.88)">
<stop offset="0" stop-color="#2B3990"/>
<stop offset="1" stop-color="#262262"/>
</linearGradient>
<linearGradient id="paint21_linear" x1="0" y1="0" x2="1" y2="0" gradientUnits="userSpaceOnUse" gradientTransform="matrix(348.238 0 0 266.401 4626.19 2048.98)">
<stop offset="0" stop-color="#2B3990"/>
<stop offset="1" stop-color="#262262"/>
</linearGradient>
<linearGradient id="paint24_linear" x1="0" y1="0" x2="1" y2="0" gradientUnits="userSpaceOnUse" gradientTransform="matrix(0 0 0 2.01 0 0)">
<stop offset="0" stop-color="#2B3990"/>
<stop offset="1" stop-color="#262262"/>
</linearGradient>
<linearGradient id="paint25_linear" x1="0" y1="0" x2="1" y2="0" gradientUnits="userSpaceOnUse" gradientTransform="matrix(2.7264 0 0 2.7264 378.217 220.214)">
<stop offset="0" stop-color="#2B3990"/>
<stop offset="1" stop-color="#262262"/>
</linearGradient>
<linearGradient id="paint26_linear" x1="0" y1="0" x2="1" y2="0" gradientUnits="userSpaceOnUse" gradientTransform="matrix(2.7264 0 0 2.7264 378.146 220.214)">
<stop offset="0" stop-color="#2B3990"/>
<stop offset="1" stop-color="#262262"/>
</linearGradient>
<linearGradient id="paint27_linear" x1="0" y1="0" x2="1" y2="0" gradientUnits="userSpaceOnUse" gradientTransform="matrix(2 0 0 0 0 0)">
<stop offset="0" stop-color="#2B3990"/>
<stop offset="1" stop-color="#262262"/>
</linearGradient>
<linearGradient id="paint28_linear" x1="0" y1="0" x2="1" y2="0" gradientUnits="userSpaceOnUse" gradientTransform="matrix(6362.55 0 0 4726.04 10642.3 6378.51)">
<stop offset="0" stop-color="#2B3990"/>
<stop offset="1" stop-color="#262262"/>
</linearGradient>
<linearGradient id="paint29_linear" x1="0" y1="0" x2="1" y2="0" gradientUnits="userSpaceOnUse" gradientTransform="matrix(0.142042 19.8495 -19.8495 0.142042 19.7892 -0.0694871)">
<stop offset="0" stop-color="#EE255C"/>
<stop offset="0.03" stop-color="#EE305E"/>
<stop offset="0.12" stop-color="#F04763"/>
<stop offset="0.21" stop-color="#F05967"/>
<stop offset="0.31" stop-color="#F16369"/>
<stop offset="0.44" stop-color="#F1666A"/>
<stop offset="0.6" stop-color="#F1666A"/>
</linearGradient>
<linearGradient id="paint30_linear" x1="0" y1="0" x2="1" y2="0" gradientUnits="userSpaceOnUse" gradientTransform="matrix(20.13 0 0 20.13 0 -8.13332)">
<stop offset="0" stop-color="#F1666A"/>
<stop offset="0.25" stop-color="#F16269"/>
<stop offset="0.5" stop-color="#F05667"/>
<stop offset="0.74" stop-color="#EF4262"/>
<stop offset="0.99" stop-color="#EE265C"/>
<stop offset="1" stop-color="#EE255C"/>
</linearGradient>
<linearGradient id="paint31_linear" x1="0" y1="0" x2="1" y2="0" gradientUnits="userSpaceOnUse" gradientTransform="matrix(185.913 0 0 56.2506 5552.14 791.597)">
<stop offset="0" stop-color="#F1666A"/>
<stop offset="1" stop-color="#EE255C"/>
</linearGradient>
<linearGradient id="paint32_linear" x1="0" y1="0" x2="1" y2="0" gradientUnits="userSpaceOnUse" gradientTransform="matrix(140.66 0 0 48.2702 4736.29 735.083)">
<stop offset="0" stop-color="#F1666A"/>
<stop offset="1" stop-color="#EE255C"/>
</linearGradient>
<linearGradient id="paint33_linear" x1="0" y1="0" x2="1" y2="0" gradientUnits="userSpaceOnUse" gradientTransform="matrix(186.322 0 0 56.3745 5552.14 775.139)">
<stop offset="0" stop-color="#F1666A"/>
<stop offset="1" stop-color="#EE255C"/>
</linearGradient>
<linearGradient id="paint34_linear" x1="0" y1="0" x2="1" y2="0" gradientUnits="userSpaceOnUse" gradientTransform="matrix(230.129 0 0 61.5902 6147.79 742.96)">
<stop offset="0" stop-color="#F1666A"/>
<stop offset="1" stop-color="#EE255C"/>
</linearGradient>
<linearGradient id="paint35_linear" x1="0" y1="0" x2="1" y2="0" gradientUnits="userSpaceOnUse" gradientTransform="matrix(-393.616 2.8167 -2.8167 -393.616 -3080.43 -4030.54)">
<stop offset="0" stop-color="#EE255C"/>
<stop offset="0.03" stop-color="#EE305E"/>
<stop offset="0.12" stop-color="#F04763"/>
<stop offset="0.21" stop-color="#F05967"/>
<stop offset="0.31" stop-color="#F16369"/>
<stop offset="0.44" stop-color="#F1666A"/>
<stop offset="0.6" stop-color="#F1666A"/>
</linearGradient>
<linearGradient id="paint36_linear" x1="0" y1="0" x2="1" y2="0" gradientUnits="userSpaceOnUse" gradientTransform="matrix(4.78459e-15 78.1383 -405.217 2.48124e-14 -4280.77 627.813)">
<stop offset="0" stop-color="#F1666A"/>
<stop offset="0.25" stop-color="#F16269"/>
<stop offset="0.5" stop-color="#F05667"/>
<stop offset="0.74" stop-color="#EF4262"/>
<stop offset="0.99" stop-color="#EE265C"/>
<stop offset="1" stop-color="#EE255C"/>
</linearGradient>
<linearGradient id="paint37_linear" x1="0" y1="0" x2="1" y2="0" gradientUnits="userSpaceOnUse" gradientTransform="matrix(3.44436e-15 56.2506 -185.913 1.13839e-14 -2891.52 693.158)">
<stop offset="0" stop-color="#F1666A"/>
<stop offset="1" stop-color="#EE255C"/>
</linearGradient>
<linearGradient id="paint38_linear" x1="0" y1="0" x2="1" y2="0" gradientUnits="userSpaceOnUse" gradientTransform="matrix(2.9557e-15 48.2702 -140.66 8.61292e-15 -2382.31 672.076)">
<stop offset="0" stop-color="#F1666A"/>
<stop offset="1" stop-color="#EE255C"/>
</linearGradient>
<linearGradient id="paint39_linear" x1="0" y1="0" x2="1" y2="0" gradientUnits="userSpaceOnUse" gradientTransform="matrix(3.45194e-15 56.3745 -186.323 1.1409e-14 -2841.13 697.098)">
<stop offset="0" stop-color="#F1666A"/>
<stop offset="1" stop-color="#EE255C"/>
</linearGradient>
<linearGradient id="paint40_linear" x1="0" y1="0" x2="1" y2="0" gradientUnits="userSpaceOnUse" gradientTransform="matrix(3.76883e-15 61.5496 -229.977 1.4082e-14 -3091.25 684.546)">
<stop offset="0" stop-color="#F1666A"/>
<stop offset="1" stop-color="#EE255C"/>
</linearGradient>
<linearGradient id="paint41_linear" x1="0" y1="0" x2="1" y2="0" gradientUnits="userSpaceOnUse" gradientTransform="matrix(157.603 0 0 2086.34 1390.83 20730.9)">
<stop offset="0" stop-color="#2B3990"/>
<stop offset="1" stop-color="#262262"/>
</linearGradient>
<linearGradient id="paint48_linear" x1="0" y1="0" x2="1" y2="0" gradientUnits="userSpaceOnUse" gradientTransform="matrix(1024.18 0 0 637.319 3922.35 6037.41)">
<stop offset="0" stop-color="#2B3990"/>
<stop offset="1" stop-color="#262262"/>
</linearGradient>
<linearGradient id="paint50_linear" x1="0" y1="0" x2="1" y2="0" gradientUnits="userSpaceOnUse" gradientTransform="matrix(1024.18 0 0 637.319 14518.3 6037.41)">
<stop offset="0" stop-color="#2B3990"/>
<stop offset="1" stop-color="#262262"/>
</linearGradient>
<linearGradient id="paint51_linear" x1="0" y1="0" x2="1" y2="0" gradientUnits="userSpaceOnUse" gradientTransform="matrix(1024.18 0 0 637.319 5285.36 6037.41)">
<stop offset="0" stop-color="#2B3990"/>
<stop offset="1" stop-color="#262262"/>
</linearGradient>
<linearGradient id="paint52_linear" x1="0" y1="0" x2="1" y2="0" gradientUnits="userSpaceOnUse" gradientTransform="matrix(396.622 0 0 638.49 7301.35 9422.62)">
<stop offset="0" stop-color="#2B3990"/>
<stop offset="1" stop-color="#262262"/>
</linearGradient>
<linearGradient id="paint53_linear" x1="0" y1="0" x2="1" y2="0" gradientUnits="userSpaceOnUse" gradientTransform="matrix(396.806 0 0 656.684 5256.89 9762.24)">
<stop offset="0" stop-color="#2B3990"/>
<stop offset="1" stop-color="#262262"/>
</linearGradient>
<linearGradient id="paint54_linear" x1="0" y1="0" x2="1" y2="0" gradientUnits="userSpaceOnUse" gradientTransform="matrix(20.8089 0 0 49.6692 994.497 1213.22)">
<stop offset="0" stop-color="#2B3990"/>
<stop offset="1" stop-color="#262262"/>
</linearGradient>
<linearGradient id="paint55_linear" x1="0" y1="0" x2="1" y2="0" gradientUnits="userSpaceOnUse" gradientTransform="matrix(69.8964 0 0 36.8322 2037.9 550.606)">
<stop offset="0" stop-color="#2B3990"/>
<stop offset="1" stop-color="#262262"/>
</linearGradient>
<linearGradient id="paint56_linear" x1="0" y1="0" x2="1" y2="0" gradientUnits="userSpaceOnUse" gradientTransform="matrix(100.606 0 0 4.6536 2505.17 61.4208)">
<stop offset="0" stop-color="#2B3990"/>
<stop offset="1" stop-color="#262262"/>
</linearGradient>
<linearGradient id="paint57_linear" x1="0" y1="0" x2="1" y2="0" gradientUnits="userSpaceOnUse" gradientTransform="matrix(-3.93626 393.626 393.626 3.93626 1307.93 3644.51)">
<stop offset="0" stop-color="#EE255C"/>
<stop offset="0.03" stop-color="#EE305E"/>
<stop offset="0.12" stop-color="#F04763"/>
<stop offset="0.21" stop-color="#F05967"/>
<stop offset="0.31" stop-color="#F16369"/>
<stop offset="0.44" stop-color="#F1666A"/>
<stop offset="0.6" stop-color="#F1666A"/>
</linearGradient>
<linearGradient id="paint58_linear" x1="0" y1="0" x2="1" y2="0" gradientUnits="userSpaceOnUse" gradientTransform="matrix(0 78.1383 405.217 0 1514.59 853.073)">
<stop offset="0" stop-color="#F1666A"/>
<stop offset="0.25" stop-color="#F16269"/>
<stop offset="0.5" stop-color="#F05667"/>
<stop offset="0.74" stop-color="#EF4262"/>
<stop offset="0.99" stop-color="#EE265C"/>
<stop offset="1" stop-color="#EE255C"/>
</linearGradient>
<linearGradient id="paint59_linear" x1="0" y1="0" x2="1" y2="0" gradientUnits="userSpaceOnUse" gradientTransform="matrix(0 56.2919 186.05 0 1071.28 915.933)">
<stop offset="0" stop-color="#F1666A"/>
<stop offset="1" stop-color="#EE255C"/>
</linearGradient>
<linearGradient id="paint60_linear" x1="0" y1="0" x2="1" y2="0" gradientUnits="userSpaceOnUse" gradientTransform="matrix(0 48.2295 140.541 0 823.393 869.674)">
<stop offset="0" stop-color="#F1666A"/>
<stop offset="1" stop-color="#EE255C"/>
</linearGradient>
<linearGradient id="paint61_linear" x1="0" y1="0" x2="1" y2="0" gradientUnits="userSpaceOnUse" gradientTransform="matrix(0 56.4158 186.459 0 1020.89 911.933)">
<stop offset="0" stop-color="#F1666A"/>
<stop offset="1" stop-color="#EE255C"/>
</linearGradient>
<linearGradient id="paint62_linear" x1="0" y1="0" x2="1" y2="0" gradientUnits="userSpaceOnUse" gradientTransform="matrix(0 61.5496 229.977 0 1049.15 889.963)">
<stop offset="0" stop-color="#F1666A"/>
<stop offset="1" stop-color="#EE255C"/>
</linearGradient>
<linearGradient id="paint63_linear" x1="0" y1="0" x2="1" y2="0" gradientUnits="userSpaceOnUse" gradientTransform="matrix(393.626 3.93626 3.93626 -393.626 3610.52 1121.98)">
<stop offset="0" stop-color="#EE255C"/>
<stop offset="0.03" stop-color="#EE305E"/>
<stop offset="0.12" stop-color="#F04763"/>
<stop offset="0.21" stop-color="#F05967"/>
<stop offset="0.31" stop-color="#F16369"/>
<stop offset="0.44" stop-color="#F1666A"/>
<stop offset="0.6" stop-color="#F1666A"/>
</linearGradient>
<linearGradient id="paint64_linear" x1="0" y1="0" x2="1" y2="0" gradientUnits="userSpaceOnUse" gradientTransform="matrix(405.217 0 0 -78.1383 3884.89 50.8137)">
<stop offset="0" stop-color="#F1666A"/>
<stop offset="0.25" stop-color="#F16269"/>
<stop offset="0.5" stop-color="#F05667"/>
<stop offset="0.74" stop-color="#EF4262"/>
<stop offset="0.99" stop-color="#EE265C"/>
<stop offset="1" stop-color="#EE255C"/>
</linearGradient>
<linearGradient id="paint65_linear" x1="0" y1="0" x2="1" y2="0" gradientUnits="userSpaceOnUse" gradientTransform="matrix(186.049 0 0 -56.2919 2692.74 59.7833)">
<stop offset="0" stop-color="#F1666A"/>
<stop offset="1" stop-color="#EE255C"/>
</linearGradient>
<linearGradient id="paint66_linear" x1="0" y1="0" x2="1" y2="0" gradientUnits="userSpaceOnUse" gradientTransform="matrix(140.541 0 0 -48.2295 2239.47 77.4492)">
<stop offset="0" stop-color="#F1666A"/>
<stop offset="1" stop-color="#EE255C"/>
</linearGradient>
<linearGradient id="paint67_linear" x1="0" y1="0" x2="1" y2="0" gradientUnits="userSpaceOnUse" gradientTransform="matrix(186.459 0 0 -56.4158 2692.74 68.3014)">
<stop offset="0" stop-color="#F1666A"/>
<stop offset="1" stop-color="#EE255C"/>
</linearGradient>
<linearGradient id="paint68_linear" x1="0" y1="0" x2="1" y2="0" gradientUnits="userSpaceOnUse" gradientTransform="matrix(229.977 0 0 -61.5496 2980.76 75.1982)">
<stop offset="0" stop-color="#F1666A"/>
<stop offset="1" stop-color="#EE255C"/>
</linearGradient>
<linearGradient id="paint69_linear" x1="0" y1="0" x2="1" y2="0" gradientUnits="userSpaceOnUse" gradientTransform="matrix(227.853 -1.63051 1.63051 227.853 7384.87 1986.99)">
<stop offset="0" stop-color="#EE255C"/>
<stop offset="0.03" stop-color="#EE305E"/>
<stop offset="0.12" stop-color="#F04763"/>
<stop offset="0.21" stop-color="#F05967"/>
<stop offset="0.31" stop-color="#F16369"/>
<stop offset="0.44" stop-color="#F1666A"/>
<stop offset="0.6" stop-color="#F1666A"/>
</linearGradient>
<linearGradient id="paint70_linear" x1="0" y1="0" x2="1" y2="0" gradientUnits="userSpaceOnUse" gradientTransform="matrix(2.74798e-15 -44.8779 234.396 1.43526e-14 2139.16 -1438.21)">
<stop offset="0" stop-color="#F1666A"/>
<stop offset="0.25" stop-color="#F16269"/>
<stop offset="0.5" stop-color="#F05667"/>
<stop offset="0.74" stop-color="#EF4262"/>
<stop offset="0.99" stop-color="#EE265C"/>
<stop offset="1" stop-color="#EE255C"/>
</linearGradient>
<linearGradient id="paint71_linear" x1="0" y1="0" x2="1" y2="0" gradientUnits="userSpaceOnUse" gradientTransform="matrix(1.97925e-15 -32.3235 107.33 6.57206e-15 1440.35 -1544.27)">
<stop offset="0" stop-color="#F1666A"/>
<stop offset="1" stop-color="#EE255C"/>
</linearGradient>
<linearGradient id="paint72_linear" x1="0" y1="0" x2="1" y2="0" gradientUnits="userSpaceOnUse" gradientTransform="matrix(1.69563e-15 -27.6917 81.3607 4.98191e-15 1192.7 -1499.82)">
<stop offset="0" stop-color="#F1666A"/>
<stop offset="1" stop-color="#EE255C"/>
</linearGradient>
<linearGradient id="paint73_linear" x1="0" y1="0" x2="1" y2="0" gradientUnits="userSpaceOnUse" gradientTransform="matrix(1.98498e-15 -32.4171 107.849 6.60382e-15 1414.65 -1541.23)">
<stop offset="0" stop-color="#F1666A"/>
<stop offset="1" stop-color="#EE255C"/>
</linearGradient>
<linearGradient id="paint74_linear" x1="0" y1="0" x2="1" y2="0" gradientUnits="userSpaceOnUse" gradientTransform="matrix(2.16935e-15 -35.4282 132.941 8.14028e-15 1532.66 -1509.68)">
<stop offset="0" stop-color="#F1666A"/>
<stop offset="1" stop-color="#EE255C"/>
</linearGradient>
<linearGradient id="paint75_linear" x1="0" y1="0" x2="1" y2="0" gradientUnits="userSpaceOnUse" gradientTransform="matrix(2.2801 -228.01 -228.01 -2.2801 57.2401 -7477.75)">
<stop offset="0" stop-color="#EE255C"/>
<stop offset="0.03" stop-color="#EE305E"/>
<stop offset="0.12" stop-color="#F04763"/>
<stop offset="0.21" stop-color="#F05967"/>
<stop offset="0.31" stop-color="#F16369"/>
<stop offset="0.44" stop-color="#F1666A"/>
<stop offset="0.6" stop-color="#F1666A"/>
</linearGradient>
<linearGradient id="paint76_linear" x1="0" y1="0" x2="1" y2="0" gradientUnits="userSpaceOnUse" gradientTransform="matrix(0 -44.9072 -234.549 0 -101.059 -1321.13)">
<stop offset="0" stop-color="#F1666A"/>
<stop offset="0.25" stop-color="#F16269"/>
<stop offset="0.5" stop-color="#F05667"/>
<stop offset="0.74" stop-color="#EF4262"/>
<stop offset="0.99" stop-color="#EE265C"/>
<stop offset="1" stop-color="#EE255C"/>
</linearGradient>
<linearGradient id="paint77_linear" x1="0" y1="0" x2="1" y2="0" gradientUnits="userSpaceOnUse" gradientTransform="matrix(0 -32.3547 -107.434 0 -99.6001 -1436.76)">
<stop offset="0" stop-color="#F1666A"/>
<stop offset="1" stop-color="#EE255C"/>
</linearGradient>
<linearGradient id="paint78_linear" x1="0" y1="0" x2="1" y2="0" gradientUnits="userSpaceOnUse" gradientTransform="matrix(0 -27.6917 -81.3607 0 -40.9554 -1409.6)">
<stop offset="0" stop-color="#F1666A"/>
<stop offset="1" stop-color="#EE255C"/>
</linearGradient>
<linearGradient id="paint79_linear" x1="0" y1="0" x2="1" y2="0" gradientUnits="userSpaceOnUse" gradientTransform="matrix(0 -32.4171 -107.849 0 -71.1325 -1439.76)">
<stop offset="0" stop-color="#F1666A"/>
<stop offset="1" stop-color="#EE255C"/>
</linearGradient>
<linearGradient id="paint80_linear" x1="0" y1="0" x2="1" y2="0" gradientUnits="userSpaceOnUse" gradientTransform="matrix(0 -35.3975 -132.826 0 -28.7696 -1413.34)">
<stop offset="0" stop-color="#F1666A"/>
<stop offset="1" stop-color="#EE255C"/>
</linearGradient>
<linearGradient id="paint81_linear" x1="0" y1="0" x2="1" y2="0" gradientUnits="userSpaceOnUse" gradientTransform="matrix(175.562 0 0 72.875 1213.83 1364.85)">
<stop offset="0" stop-color="#2B3990"/>
<stop offset="1" stop-color="#262262"/>
</linearGradient>
<linearGradient id="paint82_linear" x1="0" y1="0" x2="1" y2="0" gradientUnits="userSpaceOnUse" gradientTransform="matrix(175.562 0 0 72.875 1660.75 699.187)">
<stop offset="0" stop-color="#2B3990"/>
<stop offset="1" stop-color="#262262"/>
</linearGradient>
<linearGradient id="paint83_linear" x1="0" y1="0" x2="1" y2="0" gradientUnits="userSpaceOnUse" gradientTransform="matrix(175.562 0 0 72.875 896.76 1609.16)">
<stop offset="0" stop-color="#2B3990"/>
<stop offset="1" stop-color="#262262"/>
</linearGradient>
<path id="path0_fill" d="M 42.59 0L 0 0L 0 42.59L 42.59 42.59L 42.59 0Z"/>
<path id="path1_fill" d="M 42.59 0L 0 0L 0 42.59L 42.59 42.59L 42.59 0Z"/>
<path id="path2_fill" d="M 10.5 -3.66211e-06L 2.75001 -3.66211e-06C 1.23123 -3.66211e-06 8.54492e-06 1.23121 8.54492e-06 2.75C 8.54492e-06 4.26878 1.23123 5.5 2.75001 5.5L 10.5 5.5C 12.0188 5.5 13.25 4.26878 13.25 2.75C 13.25 1.23121 12.0188 -3.66211e-06 10.5 -3.66211e-06Z"/>
<path id="path3_fill" d="M 42.59 0L 0 0L 0 42.59L 42.59 42.59L 42.59 0Z"/>
<path id="path4_fill" d="M 42.59 2.44141e-06L 0 2.44141e-06L 0 42.59L 42.59 42.59L 42.59 2.44141e-06Z"/>
<path id="path5_stroke" d="M 4.88281e-06 -10C -5.52284 -10 -10 -5.52285 -10 -3.05176e-06C -10 5.52284 -5.52284 10 4.88281e-06 10L 4.88281e-06 -10ZM 81.02 10C 86.5428 10 91.02 5.52284 91.02 -3.05176e-06C 91.02 -5.52285 86.5428 -10 81.02 -10L 81.02 10ZM 4.88281e-06 10L 81.02 10L 81.02 -10L 4.88281e-06 -10L 4.88281e-06 10Z"/>
<path id="path6_stroke" d="M 4.27246e-06 46.17C -4.14213 46.17 -7.5 49.5279 -7.5 53.67C -7.5 57.8121 -4.14213 61.17 4.27246e-06 61.17L 4.27246e-06 46.17ZM 25.67 28L 33.17 28L 25.67 28ZM 33.17 6.10352e-07C 33.17 -4.14214 29.8121 -7.5 25.67 -7.5C 21.5279 -7.5 18.17 -4.14214 18.17 6.10352e-07L 33.17 6.10352e-07ZM 4.27246e-06 61.17C 8.79723 61.17 17.2341 57.6753 23.4547 51.4547L 12.8481 40.8481C 9.4406 44.2557 4.819 46.17 4.27246e-06 46.17L 4.27246e-06 61.17ZM 23.4547 51.4547C 29.6753 45.2342 33.17 36.7972 33.17 28L 18.17 28C 18.17 32.819 16.2557 37.4406 12.8481 40.8481L 23.4547 51.4547ZM 33.17 28L 33.17 6.10352e-07L 18.17 6.10352e-07L 18.17 28L 33.17 28Z"/>
<path id="path7_stroke" d="M 3.66211e-06 -7.5C -4.14213 -7.5 -7.5 -4.14214 -7.5 6.10352e-07C -7.5 4.14214 -4.14213 7.5 3.66211e-06 7.5L 3.66211e-06 -7.5ZM 11.43 85.7C 11.43 89.8421 14.7879 93.2 18.93 93.2C 23.0721 93.2 26.43 89.8421 26.43 85.7L 11.43 85.7ZM 3.66211e-06 7.5C 3.03143 7.5 5.93869 8.70423 8.08223 10.8478L 18.6888 0.241164C 13.7322 -4.71543 7.00967 -7.5 3.66211e-06 -7.5L 3.66211e-06 7.5ZM 8.08223 10.8478C 10.2258 12.9913 11.43 15.8986 11.43 18.93L 26.43 18.93C 26.43 11.9203 23.6454 5.19775 18.6888 0.241164L 8.08223 10.8478ZM 11.43 18.93L 11.43 85.7L 26.43 85.7L 26.43 18.93L 11.43 18.93Z"/>
<path id="path8_stroke" d="M 64.68 7.50001C 68.8221 7.50001 72.18 4.14214 72.18 7.32422e-06C 72.18 -4.14213 68.8221 -7.49999 64.68 -7.49999L 64.68 7.50001ZM -6.10352e-06 -7.49999C -4.14214 -7.49999 -7.50001 -4.14213 -7.50001 7.32422e-06C -7.50001 4.14214 -4.14214 7.50001 -6.10352e-06 7.50001L -6.10352e-06 -7.49999ZM 64.68 -7.49999L -6.10352e-06 -7.49999L -6.10352e-06 7.50001L 64.68 7.50001L 64.68 -7.49999Z"/>
<path id="path9_fill" d="M 42.85 85.7C 66.5154 85.7 85.7 66.5154 85.7 42.85C 85.7 19.1846 66.5154 0 42.85 0C 19.1846 0 7.32422e-06 19.1846 7.32422e-06 42.85C 7.32422e-06 66.5154 19.1846 85.7 42.85 85.7Z"/>
<path id="path10_fill" d="M 42.85 85.7C 66.5154 85.7 85.7 66.5154 85.7 42.85C 85.7 19.1846 66.5154 -6.10352e-06 42.85 -6.10352e-06C 19.1846 -6.10352e-06 -4.88281e-06 19.1846 -4.88281e-06 42.85C -4.88281e-06 66.5154 19.1846 85.7 42.85 85.7Z"/>
<path id="path11_stroke" d="M -6.10352e-06 -10C -5.52285 -10 -10 -5.52285 -10 -3.05176e-06C -10 5.52284 -5.52285 10 -6.10352e-06 10L -6.10352e-06 -10ZM 122.75 10C 128.273 10 132.75 5.52284 132.75 -3.05176e-06C 132.75 -5.52285 128.273 -10 122.75 -10L 122.75 10ZM -6.10352e-06 10L 122.75 10L 122.75 -10L -6.10352e-06 -10L -6.10352e-06 10Z"/>
<path id="path12_stroke" d="M 1.2207e-06 -10C -5.52285 -10 -10 -5.52285 -10 -1.2207e-06C -10 5.52285 -5.52285 10 1.2207e-06 10L 1.2207e-06 -10ZM 1.2207e-06 62.67C -5.52285 62.67 -10 67.1472 -10 72.67C -10 78.1929 -5.52285 82.67 1.2207e-06 82.67L 1.2207e-06 62.67ZM 1.2207e-06 10C 6.98448 10 13.6829 12.7746 18.6217 17.7133L 32.7638 3.5712C 24.0743 -5.11829 12.2888 -10 1.2207e-06 -10L 1.2207e-06 10ZM 18.6217 17.7133C 23.5604 22.6521 26.335 29.3505 26.335 36.335L 46.335 36.335C 46.335 24.0462 41.4533 12.2607 32.7638 3.5712L 18.6217 17.7133ZM 26.335 36.335C 26.335 43.3195 23.5604 50.0179 18.6217 54.9567L 32.7638 69.0988C 41.4533 60.4093 46.335 48.6238 46.335 36.335L 26.335 36.335ZM 18.6217 54.9567C 13.6829 59.8954 6.98448 62.67 1.2207e-06 62.67L 1.2207e-06 82.67C 12.2888 82.67 24.0743 77.7883 32.7638 69.0988L 18.6217 54.9567Z"/>
<path id="path13_stroke" d="M 22.89 10C 28.4128 10 32.89 5.52284 32.89 -3.66211e-06C 32.89 -5.52285 28.4128 -10 22.89 -10L 22.89 10ZM -9.15527e-07 22.89L -10 22.89L -9.15527e-07 22.89ZM 79.44 55.78C 84.9628 55.78 89.44 51.3028 89.44 45.78C 89.44 40.2571 84.9628 35.78 79.44 35.78L 79.44 55.78ZM 22.89 -10C 14.167 -10 5.80133 -6.53481 -0.366738 -0.366741L 13.7754 13.7754C 16.1927 11.358 19.4714 10 22.89 10L 22.89 -10ZM -0.366738 -0.366741C -6.5348 5.80133 -10 14.167 -10 22.89L 10 22.89C 10 19.4714 11.358 16.1927 13.7754 13.7754L -0.366738 -0.366741ZM -10 22.89C -10 31.613 -6.53481 39.9787 -0.366738 46.1467L 13.7754 32.0046C 11.3581 29.5873 10 26.3086 10 22.89L -10 22.89ZM -0.366738 46.1467C 5.80134 52.3148 14.167 55.78 22.89 55.78L 22.89 35.78C 19.4713 35.78 16.1927 34.4219 13.7754 32.0046L -0.366738 46.1467ZM 22.89 55.78L 79.44 55.78L 79.44 35.78L 22.89 35.78L 22.89 55.78Z"/>
<path id="path14_stroke" d="M 25.67 7.5C 29.8121 7.5 33.17 4.14213 33.17 -1.2207e-06C 33.17 -4.14214 29.8121 -7.5 25.67 -7.5L 25.67 7.5ZM -7.49999 40.34C -7.49999 44.4821 -4.14213 47.84 6.10352e-06 47.84C 4.14214 47.84 7.50001 44.4821 7.50001 40.34L -7.49999 40.34ZM 25.67 -7.5C 16.8728 -7.5 8.43585 -4.00529 2.21528 2.21528L 12.8219 12.8219C 16.2294 9.41434 20.851 7.5 25.67 7.5L 25.67 -7.5ZM 2.21528 2.21528C -4.0053 8.43586 -7.49999 16.8728 -7.49999 25.67L 7.50001 25.67C 7.50001 20.851 9.41434 16.2294 12.8219 12.8219L 2.21528 2.21528ZM -7.49999 25.67L -7.49999 40.34L 7.50001 40.34L 7.50001 25.67L -7.49999 25.67Z"/>
<path id="path15_stroke" d="M -2.44141e-06 -10C -5.52285 -10 -10 -5.52285 -10 -1.2207e-06C -10 5.52285 -5.52285 10 -2.44141e-06 10L -2.44141e-06 -10ZM 26.33 36.33C 26.33 41.8528 30.8072 46.33 36.33 46.33C 41.8529 46.33 46.33 41.8528 46.33 36.33L 26.33 36.33ZM -2.44141e-06 10C 6.98315 10 13.6803 12.774 18.6181 17.7119L 32.7602 3.56974C 24.0717 -5.11882 12.2875 -10 -2.44141e-06 -10L -2.44141e-06 10ZM 18.6181 17.7119C 23.556 22.6497 26.33 29.3469 26.33 36.33L 46.33 36.33C 46.33 24.0425 41.4488 12.2583 32.7602 3.56974L 18.6181 17.7119Z"/>
<path id="path16_fill" d="M 36.33 72.66C 56.3945 72.66 72.66 56.3945 72.66 36.33C 72.66 16.2655 56.3945 -6.71387e-06 36.33 -6.71387e-06C 16.2655 -6.71387e-06 -4.27246e-06 16.2655 -4.27246e-06 36.33C -4.27246e-06 56.3945 16.2655 72.66 36.33 72.66Z"/>
<path id="path17_fill" d="M 5.36999 5.49316e-06L -4.88281e-06 5.49316e-06L -4.88281e-06 5.37L 5.36999 5.37L 5.36999 5.49316e-06Z"/>
<path id="path18_fill" d="M 12.67 25.34C 19.6674 25.34 25.34 19.6675 25.34 12.67C 25.34 5.67256 19.6674 6.71387e-06 12.67 6.71387e-06C 5.67255 6.71387e-06 0 5.67256 0 12.67C 0 19.6675 5.67255 25.34 12.67 25.34Z"/>
<path id="path19_fill" d="M 7.29 14.58C 11.3162 14.58 14.58 11.3162 14.58 7.29C 14.58 3.26384 11.3162 6.71387e-06 7.29 6.71387e-06C 3.26384 6.71387e-06 2.44141e-06 3.26384 2.44141e-06 7.29C 2.44141e-06 11.3162 3.26384 14.58 7.29 14.58Z"/>
<path id="path20_fill" d="M 0.10228 14.2766C -0.192848 11.9679 0.153645 9.62261 1.10374 7.49791C 2.05384 5.37322 3.57084 3.55128 5.48827 2.23201C 7.4057 0.912748 9.64948 0.147135 11.9734 0.0191699C 14.2973 -0.108795 16.6116 0.405832 18.6623 1.5066C 18.6623 1.5066 13.7923 14.1566 0.10228 14.2766Z"/>
<path id="path21_fill" d="M 2.41001 4.82C 3.74102 4.82 4.82001 3.741 4.82001 2.40999C 4.82001 1.07899 3.74102 4.88281e-06 2.41001 4.88281e-06C 1.079 4.88281e-06 6.10352e-06 1.07899 6.10352e-06 2.40999C 6.10352e-06 3.741 1.079 4.82 2.41001 4.82Z"/>
<path id="path22_stroke" d="M 3.91999 0C 3.91999 -0.138071 3.80806 -0.25 3.66999 -0.25C 3.53192 -0.25 3.41999 -0.138071 3.41999 0L 3.91999 0ZM 9.76562e-06 3.42C -0.138061 3.42 -0.24999 3.53193 -0.24999 3.67C -0.24999 3.80807 -0.138061 3.92 9.76562e-06 3.92L 9.76562e-06 3.42ZM 3.41999 0C 3.41999 0.90704 3.05967 1.77693 2.4183 2.4183L 2.77185 2.77185C 3.50699 2.03671 3.91999 1.03965 3.91999 0L 3.41999 0ZM 2.4183 2.4183C 1.77692 3.05968 0.907048 3.42 9.76562e-06 3.42L 9.76562e-06 3.92C 1.03966 3.92 2.03671 3.507 2.77185 2.77185L 2.4183 2.4183Z"/>
<path id="path23_stroke" d="M 0.25001 -1.2207e-06C 0.25001 -0.138072 0.138081 -0.250001 9.76562e-06 -0.250001C -0.138061 -0.250001 -0.24999 -0.138072 -0.24999 -1.2207e-06L 0.25001 -1.2207e-06ZM -0.24999 2.00999C -0.24999 2.14806 -0.138061 2.25999 9.76562e-06 2.25999C 0.138081 2.25999 0.25001 2.14806 0.25001 2.00999L -0.24999 2.00999ZM -0.24999 -1.2207e-06L -0.24999 2.00999L 0.25001 2.00999L 0.25001 -1.2207e-06L -0.24999 -1.2207e-06Z"/>
<path id="path24_stroke" d="M 1.59677 0.176778C 1.6944 0.079146 1.6944 -0.0791453 1.59676 -0.176776C 1.49913 -0.274406 1.34084 -0.274406 1.24321 -0.176774L 1.59677 0.176778ZM -0.176772 1.24322C -0.274402 1.34086 -0.274401 1.49915 -0.17677 1.59678C -0.079138 1.69441 0.0791532 1.69441 0.176784 1.59678L -0.176772 1.24322ZM 1.24321 -0.176774L -0.176772 1.24322L 0.176784 1.59678L 1.59677 0.176778L 1.24321 -0.176774Z"/>
<path id="path25_stroke" d="M 1.24323 1.59678C 1.34086 1.69441 1.49915 1.69441 1.59678 1.59678C 1.69441 1.49914 1.69441 1.34085 1.59678 1.24322L 1.24323 1.59678ZM 0.176764 -0.176776C 0.0791319 -0.274406 -0.0791593 -0.274406 -0.17679 -0.176774C -0.27442 -0.0791423 -0.27442 0.0791489 -0.176788 0.176779L 0.176764 -0.176776ZM 1.59678 1.24322L 0.176764 -0.176776L -0.176788 0.176779L 1.24323 1.59678L 1.59678 1.24322Z"/>
<path id="path26_stroke" d="M 2.00001 0.249993C 2.13808 0.249993 2.25001 0.138064 2.25001 -6.71387e-06C 2.25001 -0.138078 2.13808 -0.250007 2.00001 -0.250007L 2.00001 0.249993ZM 9.76562e-06 -0.250007C -0.138061 -0.250007 -0.24999 -0.138078 -0.24999 -6.71387e-06C -0.24999 0.138064 -0.138061 0.249993 9.76562e-06 0.249993L 9.76562e-06 -0.250007ZM 2.00001 -0.250007L 9.76562e-06 -0.250007L 9.76562e-06 0.249993L 2.00001 0.249993L 2.00001 -0.250007Z"/>
<path id="path27_stroke" d="M 70.39 62.285C 75.9128 62.285 80.39 57.8079 80.39 52.285C 80.39 46.7622 75.9128 42.285 70.39 42.285L 70.39 62.285ZM 46.93 23.465L 36.93 23.465L 46.93 23.465ZM 2.44141e-06 23.465L -10 23.465L 2.44141e-06 23.465ZM -10 47.895C -10 53.4179 -5.52285 57.895 2.44141e-06 57.895C 5.52285 57.895 10 53.4179 10 47.895L -10 47.895ZM 70.39 42.285C 68.2894 42.3332 67.1614 42.1088 65.2391 41.2604L 57.5854 59.738C 61.3557 61.2476 66.329 62.2369 70.39 62.285L 70.39 42.285ZM 65.2391 41.2604C 63.2799 40.501 62.3237 39.8621 60.8723 38.3427L 46.7302 52.4848C 49.6358 55.3223 53.852 58.1395 57.5854 59.738L 65.2391 41.2604ZM 60.8723 38.3427C 59.3529 36.8913 58.714 35.9351 57.9546 33.9759L 39.477 41.6296C 41.0755 45.363 43.8927 49.5792 46.7302 52.4848L 60.8723 38.3427ZM 57.9546 33.9759C 57.1062 32.0536 56.8818 30.9256 56.93 28.825L 36.93 28.825C 36.9782 32.886 37.9674 37.8593 39.477 41.6296L 57.9546 33.9759ZM 56.93 28.825L 56.93 23.465L 36.93 23.465L 36.93 28.825L 56.93 28.825ZM 56.93 23.465C 56.93 14.5895 53.4042 6.07757 47.1283 -0.198328L 32.9862 13.9438C 35.5114 16.469 36.93 19.8939 36.93 23.465L 56.93 23.465ZM 47.1283 -0.198328C 40.8524 -6.47423 32.3405 -10 23.465 -10L 23.465 10C 27.0361 10 30.461 11.4186 32.9862 13.9438L 47.1283 -0.198328ZM 23.465 -10C 14.5895 -10 6.07758 -6.47423 -0.198324 -0.198328L 13.9438 13.9438C 16.469 11.4186 19.8939 10 23.465 10L 23.465 -10ZM -0.198324 -0.198328C -6.47423 6.07757 -10 14.5895 -10 23.465L 10 23.465C 10 19.8939 11.4186 16.469 13.9438 13.9438L -0.198324 -0.198328ZM -10 23.465L -10 47.895L 10 47.895L 10 23.465L -10 23.465Z"/>
<path id="path28_fill" d="M 9.92 19.84C 15.3987 19.84 19.84 15.3987 19.84 9.92001C 19.84 4.44134 15.3987 -6.71387e-06 9.92 -6.71387e-06C 4.44134 -6.71387e-06 -1.34277e-05 4.44134 -1.34277e-05 9.92001C -1.34277e-05 15.3987 4.44134 19.84 9.92 19.84Z"/>
<path id="path29_fill" d="M 0.499991 0.00168224L 18.13 0.00168224C 18.3855 -0.009022 18.6405 0.0314103 18.8801 0.120594C 19.1197 0.209778 19.3391 0.345913 19.5254 0.52103C 19.7117 0.696148 19.8611 0.906717 19.965 1.14037C 20.0688 1.37402 20.1249 1.62606 20.13 1.88169C 20.13 2.41212 19.9193 2.92083 19.5442 3.2959C 19.1691 3.67097 18.6604 3.88169 18.13 3.88169L -8.54492e-06 3.88169L 0.499991 0.00168224Z"/>
<path id="path30_fill" d="M 0 -7.32422e-06L 11.65 0.129998C 12.1804 0.129998 12.6891 0.34071 13.0642 0.715782C 13.4393 1.09086 13.65 1.59956 13.65 2.13C 13.65 2.66043 13.4393 3.16914 13.0642 3.54421C 12.6891 3.91929 12.1804 4.13 11.65 4.13L 0 4.13L 0 -7.32422e-06Z"/>
<path id="path31_fill" d="M 4.88281e-06 4.27246e-06L 9.85999 0.0699963C 10.3904 0.0699963 10.8991 0.280709 11.2742 0.655781C 11.6493 1.03085 11.86 1.53956 11.86 2.07C 11.86 2.60043 11.6493 3.10914 11.2742 3.48421C 10.8991 3.85928 10.3904 4.07 9.85999 4.07L 4.88281e-06 4L 4.88281e-06 4.27246e-06Z"/>
<path id="path32_fill" d="M -1.2207e-06 1.2207e-06L 11.65 0.130006C 12.1804 0.130006 12.6891 0.340718 13.0642 0.715791C 13.4393 1.09086 13.65 1.59957 13.65 2.13001C 13.65 2.66044 13.4393 3.16915 13.0642 3.54422C 12.6891 3.91929 12.1804 4.13001 11.65 4.13001L -1.2207e-06 4L -1.2207e-06 1.2207e-06Z"/>
<path id="path33_fill" d="M 9.76562e-06 -2.44141e-06L 13.17 -2.44141e-06C 13.705 0.0180965 14.2123 0.242783 14.5852 0.62689C 14.9581 1.011 15.1677 1.52464 15.17 2.06L 15.17 2.06C 15.17 2.59043 14.9593 3.09914 14.5842 3.47421C 14.2091 3.84928 13.7004 4.06 13.17 4.06L 9.76562e-06 3.93001L 9.76562e-06 -2.44141e-06Z"/>
<path id="path34_fill" d="M 9.91999 19.84C 15.3987 19.84 19.84 15.3987 19.84 9.92C 19.84 4.44134 15.3987 3.05176e-06 9.91999 3.05176e-06C 4.44133 3.05176e-06 -5.49316e-06 4.44134 -5.49316e-06 9.92C -5.49316e-06 15.3987 4.44133 19.84 9.91999 19.84Z"/>
<path id="path35_fill" d="M 3.88 0.500002L 3.88 18.13C 3.8907 18.3855 3.85028 18.6405 3.7611 18.8801C 3.67191 19.1197 3.53576 19.3391 3.36065 19.5254C 3.18553 19.7117 2.97498 19.8611 2.74132 19.965C 2.50767 20.0688 2.25563 20.1249 2.00001 20.13L 2.00001 20.13C 1.46957 20.13 0.960863 19.9193 0.58579 19.5442C 0.210718 19.1691 5.49316e-06 18.6604 5.49316e-06 18.13L 5.49316e-06 2.44141e-06L 3.88 0.500002Z"/>
<path id="path36_fill" d="M 4.13001 1.2207e-06L 4 11.65C 4 12.1804 3.78929 12.6891 3.41422 13.0642C 3.03914 13.4393 2.53043 13.65 2 13.65C 1.46957 13.65 0.96086 13.4393 0.585787 13.0642C 0.210714 12.6891 1.83105e-06 12.1804 1.83105e-06 11.65L 1.83105e-06 1.2207e-06L 4.13001 1.2207e-06Z"/>
<path id="path37_fill" d="M 4.07 6.10352e-06L 4 9.86001C 4 10.3904 3.78929 10.8991 3.41421 11.2742C 3.03914 11.6493 2.53043 11.86 2 11.86C 1.46956 11.86 0.960855 11.6493 0.585782 11.2742C 0.21071 10.8991 -2.44141e-06 10.3904 -2.44141e-06 9.86001L 0.0700049 6.10352e-06L 4.07 6.10352e-06Z"/>
<path id="path38_fill" d="M 4.12999 0L 4 11.65C 4 12.1804 3.78929 12.6891 3.41422 13.0642C 3.03915 13.4393 2.53044 13.65 2 13.65C 1.46957 13.65 0.960861 13.4393 0.585788 13.0642C 0.210715 12.6891 3.05176e-06 12.1804 3.05176e-06 11.65L 0.129993 0L 4.12999 0Z"/>
<path id="path39_fill" d="M 4.06 5.49316e-06L 4.06 13.17C 4.0419 13.7051 3.81721 14.2123 3.4331 14.5852C 3.049 14.9581 2.53535 15.1677 2 15.17L 2 15.17C 1.46957 15.17 0.960856 14.9593 0.585784 14.5842C 0.210711 14.2091 -1.2207e-06 13.7004 -1.2207e-06 13.17L 0.130004 5.49316e-06L 4.06 5.49316e-06Z"/>
<path id="path40_stroke" d="M -9.97159 79.3368C -10.3876 84.8439 -6.26041 89.6456 -0.753255 90.0616C 4.7539 90.4776 9.55558 86.3504 9.97159 80.8433L -9.97159 79.3368ZM 16.0216 0.753256C 16.4376 -4.7539 12.3104 -9.55558 6.80326 -9.97159C 1.2961 -10.3876 -3.50558 -6.26041 -3.92159 -0.753253L 16.0216 0.753256ZM 9.97159 80.8433L 16.0216 0.753256L -3.92159 -0.753253L -9.97159 79.3368L 9.97159 80.8433Z"/>
<path id="path41_stroke" d="M -7.50001 86.85C -7.50001 90.9921 -4.14214 94.35 -6.10352e-06 94.35C 4.14213 94.35 7.49999 90.9921 7.49999 86.85L -7.50001 86.85ZM 7.49999 -6.10352e-07C 7.49999 -4.14214 4.14213 -7.5 -6.10352e-06 -7.5C -4.14214 -7.5 -7.50001 -4.14214 -7.50001 -6.10352e-07L 7.49999 -6.10352e-07ZM 7.49999 86.85L 7.49999 52.84L -7.50001 52.84L -7.50001 86.85L 7.49999 86.85ZM 7.49999 52.84L 7.49999 -6.10352e-07L -7.50001 -6.10352e-07L -7.50001 52.84L 7.49999 52.84Z"/>
<path id="path42_fill" d="M 14.59 29.18C 22.6478 29.18 29.18 22.6478 29.18 14.59C 29.18 6.53216 22.6478 0 14.59 0C 6.53217 0 4.88281e-06 6.53216 4.88281e-06 14.59C 4.88281e-06 22.6478 6.53217 29.18 14.59 29.18Z"/>
<path id="path43_fill" d="M 14.59 29.18C 22.6478 29.18 29.18 22.6478 29.18 14.59C 29.18 6.53217 22.6478 -2.13623e-06 14.59 -2.13623e-06C 6.53216 -2.13623e-06 -6.10352e-06 6.53217 -6.10352e-06 14.59C -6.10352e-06 22.6478 6.53216 29.18 14.59 29.18Z"/>
<path id="path44_stroke" d="M 21.685 0C 21.685 -4.14214 18.3271 -7.5 14.185 -7.5C 10.0429 -7.5 6.68499 -4.14214 6.68499 0L 21.685 0ZM 14.185 65L 6.68499 65C 6.68499 65.2482 6.69732 65.4963 6.72191 65.7433L 14.185 65ZM 7.11001 72.8146L 7.11001 80.3146L 7.11001 72.8146ZM 0.0350007 65L 7.49808 65.7433C 7.52268 65.4963 7.535 65.2482 7.535 65L 0.0350007 65ZM 7.535 34.92C 7.535 30.7779 4.17714 27.42 0.0350007 27.42C -4.10713 27.42 -7.465 30.7779 -7.465 34.92L 7.535 34.92ZM 6.68499 0L 6.68499 65L 21.685 65L 21.685 0L 6.68499 0ZM 6.72191 65.7433C 6.71652 65.6891 6.72253 65.6344 6.73959 65.5826L 20.9864 70.2762C 21.5029 68.5779 21.7833 66.0265 21.6481 64.2567L 6.72191 65.7433ZM 6.73959 65.5826C 6.75665 65.5308 6.78435 65.4832 6.82089 65.4429L 17.9406 75.5102C 19.1014 74.1673 20.3923 71.9488 20.9864 70.2762L 6.73959 65.5826ZM 6.82089 65.4429C 6.85743 65.4025 6.90203 65.3702 6.95186 65.3481L 13.0342 79.0596C 14.6398 78.3027 16.7194 76.7983 17.9406 75.5102L 6.82089 65.4429ZM 6.95186 65.3481C 7.00167 65.326 7.05555 65.3146 7.11001 65.3146L 7.11001 80.3146C 8.88454 80.2738 11.3955 79.7419 13.0342 79.0596L 6.95186 65.3481ZM 7.11001 65.3146C 7.16444 65.3146 7.21829 65.326 7.26813 65.3481L 1.18578 79.0596C 2.82447 79.7419 5.33551 80.2738 7.11001 80.3146L 7.11001 65.3146ZM 7.26813 65.3481C 7.31796 65.3702 7.36257 65.4025 7.39911 65.4429L -3.72065 75.5102C -2.49941 76.7983 -0.419798 78.3027 1.18578 79.0596L 7.26813 65.3481ZM 7.39911 65.4429C 7.43564 65.4832 7.46335 65.5308 7.4804 65.5826L -6.76636 70.2762C -6.17232 71.9488 -4.88136 74.1673 -3.72065 75.5102L 7.39911 65.4429ZM 7.4804 65.5826C 7.49747 65.6344 7.50347 65.6891 7.49808 65.7433L -7.42808 64.2567C -7.56332 66.0265 -7.28286 68.5779 -6.76636 70.2762L 7.4804 65.5826ZM 7.535 65L 7.535 34.92L -7.465 34.92L -7.465 65L 7.535 65Z"/>
<path id="path45_stroke" d="M 54.95 -1.2207e-06C 54.95 -4.14214 51.5921 -7.5 47.45 -7.5C 43.3079 -7.5 39.95 -4.14214 39.95 -1.2207e-06L 54.95 -1.2207e-06ZM 47.45 42.42L 54.95 42.4302L 54.95 42.42L 47.45 42.42ZM 18.12 71.72L 18.12 79.22L 18.1225 79.22L 18.12 71.72ZM -6.10352e-06 64.22C -4.14214 64.22 -7.50001 67.5779 -7.50001 71.72C -7.50001 75.8621 -4.14214 79.22 -6.10352e-06 79.22L -6.10352e-06 64.22ZM 39.95 -1.2207e-06L 39.95 42.42L 54.95 42.42L 54.95 -1.2207e-06L 39.95 -1.2207e-06ZM 39.95 42.4098C 39.9421 48.1956 37.6387 53.7419 33.5453 57.8311L 44.1465 68.4431C 51.0512 61.5455 54.9367 52.19 54.95 42.4302L 39.95 42.4098ZM 33.5453 57.8311C 29.452 61.9203 23.9033 64.218 18.1174 64.22L 18.1225 79.22C 27.8823 79.2167 37.2418 75.3407 44.1465 68.4431L 33.5453 57.8311ZM 18.12 64.22L -6.10352e-06 64.22L -6.10352e-06 79.22L 18.12 79.22L 18.12 64.22Z"/>
<path id="path46_stroke" d="M 7.50001 0.00512093C 7.50284 -4.13701 4.14726 -7.49717 0.00512958 -7.49999C -4.13701 -7.50282 -7.49716 -4.14724 -7.49998 -0.0051075L 7.50001 0.00512093ZM 29.3651 36.86C 33.5072 36.8572 36.8628 33.497 36.86 29.3549C 36.8572 25.2128 33.497 21.8572 29.3549 21.86L 29.3651 36.86ZM -7.49998 -0.0051075C -7.46694 4.58701 -6.42299 9.84945 -4.70054 14.1065L 9.15961 8.37094C 7.93298 5.50133 7.46171 3.1257 7.50001 0.00512093L -7.49998 -0.0051075ZM -4.70054 14.1065C -2.91122 18.3358 0.0686638 22.7971 3.29019 26.0698L 13.8968 15.4632C 11.6646 13.2822 10.3194 11.2682 9.15961 8.37094L -4.70054 14.1065ZM 3.29019 26.0698C 6.56289 29.2914 11.0242 32.2712 15.2536 34.0605L 20.9891 20.2004C 18.0918 19.0406 16.0778 17.6954 13.8968 15.4632L 3.29019 26.0698ZM 15.2536 34.0605C 19.5105 35.783 24.773 36.827 29.3651 36.86L 29.3549 21.86C 26.2343 21.8983 23.8587 21.427 20.9891 20.2004L 15.2536 34.0605Z"/>
<path id="path47_fill" d="M 2.33566 19.91L 31.9957 19.91L 31.9957 -1.2207e-06L 1.27565 15.47C 0.807923 15.7104 0.434359 16.1008 0.214733 16.5786C -0.00489251 17.0565 -0.0578862 17.5942 0.064236 18.1057C 0.186358 18.6173 0.47654 19.0731 0.88834 19.4002C 1.30014 19.7273 1.80976 19.9068 2.33566 19.91L 2.33566 19.91Z"/>
<path id="path48_fill" d="M 29.66 19.92L 2.44141e-06 19.92L 2 -1.09863e-05L 30.72 15.47C 31.1931 15.7076 31.5722 16.0981 31.7957 16.5781C 32.0191 17.0581 32.074 17.5995 31.9513 18.1146C 31.8286 18.6296 31.5356 19.0882 31.1197 19.4159C 30.7038 19.7435 30.1895 19.9212 29.66 19.92Z"/>
<path id="path49_fill" d="M 29.66 19.91L 9.76562e-06 19.91L 9.76562e-06 -1.2207e-06L 30.72 15.47C 31.1877 15.7104 31.5613 16.1008 31.7809 16.5786C 32.0005 17.0565 32.0535 17.5942 31.9314 18.1057C 31.8093 18.6173 31.5191 19.0731 31.1073 19.4002C 30.6955 19.7273 30.1859 19.9068 29.66 19.91L 29.66 19.91Z"/>
<path id="path50_fill" d="M 29.66 19.91L 2.44141e-06 19.91L 2.44141e-06 -1.2207e-06L 30.72 15.47C 31.1877 15.7104 31.5613 16.1008 31.7809 16.5786C 32.0005 17.0565 32.0535 17.5942 31.9314 18.1057C 31.8093 18.6173 31.5191 19.0731 31.1073 19.4002C 30.6955 19.7273 30.1859 19.9068 29.66 19.91L 29.66 19.91Z"/>
<path id="path51_fill" d="M 0.000725408 29.66L 0.000725408 -1.2207e-06L 19.9207 -1.2207e-06L 4.48074 30.71C 4.25292 31.1997 3.86336 31.596 3.37762 31.8322C 2.89188 32.0684 2.33961 32.1301 1.81374 32.0068C 1.28788 31.8836 0.820524 31.5829 0.490319 31.1555C 0.160114 30.7281 -0.0127905 30.2 0.000725408 29.66L 0.000725408 29.66Z"/>
<path id="path52_fill" d="M -6.10352e-06 30.66L -6.10352e-06 0.999998C 9.41999 1.17 16.91 0.999998 19.92 -2.44141e-06L 4.45001 31.67C 4.2144 32.1395 3.82828 32.5166 3.35327 32.741C 2.87825 32.9653 2.34176 33.024 1.82946 32.9078C 1.31716 32.7915 0.858584 32.5069 0.526971 32.0995C 0.195359 31.692 0.00981495 31.1852 -6.10352e-06 30.66L -6.10352e-06 30.66Z"/>
<path id="path53_stroke" d="M -0.922317 8.3736C -1.13572 8.88299 -0.895784 9.46893 -0.386396 9.68234C 0.122992 9.89574 0.708933 9.6558 0.922339 9.14641L -0.922317 8.3736ZM 4.59232 0.386404C 4.80573 -0.122984 4.56579 -0.708925 4.0564 -0.922331C 3.54701 -1.13574 2.96107 -0.895798 2.74767 -0.38641L 4.59232 0.386404ZM 0.922339 9.14641L 4.59232 0.386404L 2.74767 -0.38641L -0.922317 8.3736L 0.922339 9.14641Z"/>
<path id="path54_stroke" d="M -0.466194 3.02532C -0.954793 3.28279 -1.14216 3.8876 -0.884692 4.37619C -0.627223 4.86479 -0.0224161 5.05216 0.466182 4.79469L -0.466194 3.02532ZM 7.8862 0.884687C 8.37479 0.627219 8.56216 0.0224118 8.30469 -0.466186C 8.04722 -0.954785 7.44242 -1.14215 6.95382 -0.884684L 7.8862 0.884687ZM 0.466182 4.79469L 7.8862 0.884687L 6.95382 -0.884684L -0.466194 3.02532L 0.466182 4.79469Z"/>
<path id="path55_stroke" d="M -0.0462119 -0.578926C -0.597907 -0.553408 -1.02446 -0.0854836 -0.998938 0.466211C -0.973419 1.01791 -0.505495 1.44446 0.0461997 1.41894L -0.0462119 -0.578926ZM 9.12622 0.998939C 9.67791 0.97342 10.1045 0.505496 10.0789 -0.0461985C 10.0534 -0.597893 9.5855 -1.02444 9.03381 -0.998925L 9.12622 0.998939ZM 0.0461997 1.41894L 9.12622 0.998939L 9.03381 -0.998925L -0.0462119 -0.578926L 0.0461997 1.41894Z"/>
<path id="path56_fill" d="M 9.91999 19.84C 15.3987 19.84 19.84 15.3987 19.84 9.92C 19.84 4.44134 15.3987 4.27246e-06 9.91999 4.27246e-06C 4.44133 4.27246e-06 1.09863e-05 4.44134 1.09863e-05 9.92C 1.09863e-05 15.3987 4.44133 19.84 9.91999 19.84Z"/>
<path id="path57_fill" d="M 0.00168468 0.499994L 0.00168468 18.13C -0.00901956 18.3855 0.0313975 18.6405 0.120581 18.8801C 0.209765 19.1197 0.345915 19.3391 0.521033 19.5254C 0.69615 19.7117 0.906704 19.8612 1.14036 19.965C 1.37401 20.0688 1.62606 20.1249 1.88169 20.13L 1.88169 20.13C 2.41212 20.13 2.92083 19.9193 3.2959 19.5442C 3.67098 19.1691 3.88169 18.6604 3.88169 18.13L 3.88169 -6.10352e-06L 0.00168468 0.499994Z"/>
<path id="path58_fill" d="M 4.88281e-06 2.44141e-06L 0.13001 11.65C 0.13001 12.1804 0.340722 12.6891 0.715795 13.0642C 1.09087 13.4393 1.59958 13.65 2.13001 13.65C 2.66044 13.65 3.16915 13.4393 3.54422 13.0642C 3.9193 12.6891 4.13001 12.1804 4.13001 11.65L 4.13001 2.44141e-06L 4.88281e-06 2.44141e-06Z"/>
<path id="path59_fill" d="M -8.54492e-06 7.32422e-06L 0.0699988 9.85999C 0.0699988 10.3904 0.280711 10.8991 0.655784 11.2742C 1.03086 11.6493 1.53957 11.86 2.07 11.86C 2.60043 11.86 3.10914 11.6493 3.48421 11.2742C 3.85929 10.8991 4.07 10.3904 4.07 9.85999L 3.99999 7.32422e-06L -8.54492e-06 7.32422e-06Z"/>
<path id="path60_fill" d="M 3.66211e-06 1.2207e-06L 0.130009 11.65C 0.130009 12.1804 0.340721 12.6891 0.715793 13.0642C 1.09087 13.4393 1.59958 13.65 2.13001 13.65C 2.66044 13.65 3.16915 13.4393 3.54422 13.0642C 3.9193 12.6891 4.13001 12.1804 4.13001 11.65L 4 1.2207e-06L 3.66211e-06 1.2207e-06Z"/>
<path id="path61_fill" d="M 0 -3.05176e-06L 0 13.17C 0.018099 13.705 0.242786 14.2123 0.626892 14.5852C 1.011 14.9581 1.52465 15.1677 2.06 15.17L 2.06 15.17C 2.59043 15.17 3.09914 14.9593 3.47421 14.5842C 3.84929 14.2091 4.06 13.7004 4.06 13.17L 3.92999 -3.05176e-06L 0 -3.05176e-06Z"/>
<path id="path62_fill" d="M 9.92 19.84C 15.3987 19.84 19.84 15.3987 19.84 9.92C 19.84 4.44133 15.3987 -3.05176e-06 9.92 -3.05176e-06C 4.44133 -3.05176e-06 0 4.44133 0 9.92C 0 15.3987 4.44133 19.84 9.92 19.84Z"/>
<path id="path63_fill" d="M 0.5 3.88L 18.13 3.88C 18.3855 3.89071 18.6405 3.85027 18.8801 3.76109C 19.1197 3.67191 19.3391 3.53576 19.5254 3.36065C 19.7117 3.18553 19.8611 2.97497 19.965 2.74132C 20.0688 2.50766 20.1249 2.25563 20.13 2C 20.13 1.46957 19.9193 0.960856 19.5442 0.585783C 19.1691 0.21071 18.6604 -1.83105e-06 18.13 -1.83105e-06L -3.05176e-07 -1.83105e-06L 0.5 3.88Z"/>
<path id="path64_fill" d="M 6.10352e-07 4.13L 11.65 4C 12.1804 4 12.6891 3.78929 13.0642 3.41422C 13.4393 3.03914 13.65 2.53044 13.65 2C 13.65 1.46957 13.4393 0.96086 13.0642 0.585787C 12.6891 0.210714 12.1804 2.13623e-06 11.65 2.13623e-06L 6.10352e-07 2.13623e-06L 6.10352e-07 4.13Z"/>
<path id="path65_fill" d="M -2.13623e-06 4.07L 9.86 4.00001C 10.3904 4.00001 10.8991 3.78929 11.2742 3.41422C 11.6493 3.03915 11.86 2.53044 11.86 2.00001C 11.86 1.46957 11.6493 0.960863 11.2742 0.58579C 10.8991 0.210718 10.3904 5.49316e-06 9.86 5.49316e-06L -2.13623e-06 0.0699976L -2.13623e-06 4.07Z"/>
<path id="path66_fill" d="M -2.74658e-06 4.13L 11.65 4C 12.1804 4 12.6891 3.78928 13.0642 3.41421C 13.4393 3.03914 13.65 2.53043 13.65 2C 13.65 1.46956 13.4393 0.960853 13.0642 0.585781C 12.6891 0.210708 12.1804 3.35693e-06 11.65 3.35693e-06L -2.74658e-06 0.130001L -2.74658e-06 4.13Z"/>
<path id="path67_fill" d="M 2.74658e-06 4.06L 13.17 4.06C 13.7051 4.04191 14.2123 3.81722 14.5852 3.43311C 14.9581 3.04901 15.1677 2.53536 15.17 2.00001C 15.17 1.46957 14.9593 0.960864 14.5842 0.585792C 14.2091 0.210719 13.7004 6.71387e-06 13.17 6.71387e-06L 2.74658e-06 0.129996L 2.74658e-06 4.06Z"/>
<path id="path68_fill" d="M 7.54999 15.1C 11.7197 15.1 15.1 11.7197 15.1 7.55C 15.1 3.38025 11.7197 -7.32422e-06 7.54999 -7.32422e-06C 3.38024 -7.32422e-06 3.66211e-06 3.38025 3.66211e-06 7.55C 3.66211e-06 11.7197 3.38024 15.1 7.54999 15.1Z"/>
<path id="path69_fill" d="M 0.00125246 14.92L 0.00125246 1.52C -0.00677365 1.32578 0.0240568 1.13192 0.0919507 0.949775C 0.159845 0.767633 0.263413 0.600875 0.396608 0.459297C 0.529803 0.317719 0.689952 0.204168 0.867616 0.125297C 1.04528 0.0464262 1.2369 0.00383576 1.43125 7.32422e-06L 1.43125 7.32422e-06C 1.62954 0.0013162 1.82563 0.0416701 2.00833 0.118766C 2.19103 0.195863 2.35678 0.308187 2.49606 0.449333C 2.63535 0.590479 2.74546 0.757677 2.82013 0.941383C 2.8948 1.12509 2.93256 1.3217 2.93125 1.52L 2.93125 15.31L 0.00125246 14.92Z"/>
<path id="path70_fill" d="M -8.54492e-06 10.36L 0.0999976 1.50003C 0.101306 1.30173 0.141676 1.10564 0.218772 0.922939C 0.295868 0.740238 0.408192 0.574511 0.549338 0.435223C 0.690484 0.295934 0.857667 0.185811 1.04137 0.111141C 1.22508 0.0364713 1.42169 -0.00129096 1.61999 2.66201e-05L 1.61999 2.66201e-05C 1.81828 0.0013355 2.0144 0.0416894 2.1971 0.118786C 2.37981 0.195882 2.54552 0.308222 2.68481 0.449367C 2.82409 0.590513 2.93423 0.757711 3.0089 0.941418C 3.08357 1.12512 3.1213 1.32173 3.11999 1.52003L 3.11999 10.36L -8.54492e-06 10.36Z"/>
<path id="path71_fill" d="M 1.46484e-05 9.00003L 0.0500024 1.50003C 0.0513113 1.30173 0.09165 1.10564 0.168746 0.92294C 0.245843 0.740239 0.358197 0.574512 0.499343 0.435224C 0.640489 0.295935 0.807672 0.185812 0.991378 0.111142C 1.17508 0.0364726 1.37169 -0.00128973 1.56999 2.78408e-05L 1.56999 2.78408e-05C 1.76829 0.00133672 1.96441 0.0416907 2.14711 0.118787C 2.32981 0.195883 2.49552 0.308223 2.63481 0.449369C 2.7741 0.590515 2.88424 0.757713 2.95891 0.941419C 3.03358 1.12512 3.07131 1.32173 3.06999 1.52003L 3.02 9.02003L 1.46484e-05 9.00003Z"/>
<path id="path72_fill" d="M 2.44141e-06 10.36L 0.100009 1.50004C 0.101317 1.30174 0.141656 1.10564 0.218752 0.922935C 0.295849 0.740234 0.408173 0.574507 0.549319 0.435218C 0.690465 0.29593 0.857678 0.185807 1.04138 0.111137C 1.22509 0.0364671 1.4217 -0.00127997 1.62 3.76064e-05L 1.62 3.76064e-05C 1.81829 0.00134648 2.01438 0.0417004 2.19708 0.118797C 2.37979 0.195893 2.54553 0.308217 2.68482 0.449363C 2.82411 0.590509 2.93421 0.757707 3.00888 0.941413C 3.08355 1.12512 3.12132 1.32173 3.12 1.52003L 3.01999 10.38L 2.44141e-06 10.36Z"/>
<path id="path73_fill" d="M 1.2207e-06 11.52L 1.2207e-06 1.52C 0.0129907 1.11234 0.184107 0.725731 0.477144 0.442028C 0.77018 0.158324 1.16214 -0.00021096 1.57001 -4.07021e-06L 1.57001 -4.07021e-06C 1.76831 0.00130481 1.96439 0.0416588 2.1471 0.118755C 2.3298 0.195851 2.49551 0.308191 2.6348 0.449337C 2.77409 0.590483 2.88422 0.757681 2.95889 0.941387C 3.03356 1.12509 3.07133 1.3217 3.07001 1.52L 2.97 11.52L 1.2207e-06 11.52Z"/>
<path id="path74_fill" d="M 7.55001 15.1C 11.7198 15.1 15.1 11.7198 15.1 7.55C 15.1 3.38025 11.7198 0 7.55001 0C 3.38026 0 -9.76562e-06 3.38025 -9.76562e-06 7.55C -9.76562e-06 11.7198 3.38026 15.1 7.55001 15.1Z"/>
<path id="path75_fill" d="M 2.93005 14.93L 2.93005 1.52C 2.93807 1.32578 2.90721 1.13191 2.83932 0.949772C 2.77142 0.76763 2.66786 0.600879 2.53466 0.459301C 2.40147 0.317723 2.24135 0.204172 2.06368 0.125301C 1.88602 0.0464302 1.69437 0.00383209 1.50002 3.66211e-06L 1.50002 3.66211e-06C 1.30173 0.00131254 1.10564 0.0416665 0.922936 0.118763C 0.740235 0.195859 0.574523 0.308183 0.435235 0.449329C 0.295946 0.590475 0.185808 0.757673 0.111138 0.941379C 0.0364683 1.12509 -0.00129401 1.3217 2.35683e-05 1.52L 2.35683e-05 15.31L 2.93005 14.93Z"/>
<path id="path76_fill" d="M 3.12003 10.36L 3.02003 1.50003C 3.01872 1.30174 2.97838 1.10564 2.90128 0.922938C 2.82419 0.740237 2.71186 0.57451 2.57072 0.435221C 2.42957 0.295932 2.26236 0.185809 2.07865 0.11114C 1.89494 0.0364698 1.69833 -0.00128485 1.50004 3.27236e-05L 1.50004 3.27236e-05C 1.30174 0.0013416 1.10565 0.0416955 0.92295 0.118792C 0.740249 0.195888 0.574506 0.30822 0.435218 0.449366C 0.295929 0.590512 0.185821 0.75771 0.111152 0.941416C 0.0364817 1.12512 -0.00128058 1.32174 3.6996e-05 1.52004L 3.6996e-05 10.36L 3.12003 10.36Z"/>
<path id="path77_fill" d="M 3.07004 9.00003L 3.02002 1.50003C 3.01871 1.30174 2.97837 1.10564 2.90128 0.922939C 2.82418 0.740238 2.71186 0.574511 2.57071 0.435222C 2.42956 0.295933 2.26235 0.185811 2.07865 0.111141C 1.89494 0.036471 1.69833 -0.00128363 1.50003 3.39443e-05L 1.50003 3.39443e-05C 1.30173 0.00134282 1.10565 0.0416968 0.922945 0.118793C 0.740244 0.195889 0.574502 0.308221 0.435213 0.449367C 0.295924 0.590513 0.185816 0.757711 0.111147 0.941417C 0.0364768 1.12512 -0.00128546 1.32173 3.21132e-05 1.52003L 0.0500199 9.02004L 3.07004 9.00003Z"/>
<path id="path78_fill" d="M 3.12002 10.36L 3.02005 1.50004C 3.01874 1.30174 2.97837 1.10564 2.90127 0.922941C 2.82417 0.74024 2.71185 0.574513 2.5707 0.435224C 2.42956 0.295936 2.26235 0.185813 2.07864 0.111143C 1.89493 0.0364732 1.69832 -0.00128149 1.50003 3.60805e-05L 1.50003 3.60805e-05C 1.30173 0.00134496 1.10564 0.0416989 0.922939 0.118795C 0.740238 0.195892 0.574495 0.308216 0.435207 0.449362C 0.295918 0.590508 0.18581 0.757706 0.111141 0.941412C 0.0364707 1.12512 -0.00129157 1.32174 2.60097e-05 1.52003L 0.100032 10.38L 3.12002 10.36Z"/>
<path id="path79_fill" d="M 3.07003 11.52L 3.07003 1.52C 3.05704 1.11233 2.88593 0.725729 2.59289 0.442025C 2.29985 0.158321 1.90789 -0.000206077 1.50002 8.12599e-07L 1.50002 8.12599e-07C 1.30173 0.00130969 1.10564 0.0416636 0.922937 0.11876C 0.740236 0.195856 0.574525 0.308188 0.435236 0.449334C 0.295947 0.59048 0.185809 0.757678 0.111139 0.941384C 0.0364695 1.12509 -0.00129279 1.3217 2.4789e-05 1.52L 0.100031 11.52L 3.07003 11.52Z"/>
<path id="path80_fill" d="M 10.5 0L 2.75 0C 1.23122 0 0 1.23122 0 2.75C 0 4.26878 1.23122 5.5 2.75 5.5L 10.5 5.5C 12.0188 5.5 13.25 4.26878 13.25 2.75C 13.25 1.23122 12.0188 0 10.5 0Z"/>
<path id="path81_fill" d="M 10.5 0L 2.75 0C 1.23121 0 -3.66211e-06 1.23122 -3.66211e-06 2.75C -3.66211e-06 4.26878 1.23121 5.5 2.75 5.5L 10.5 5.5C 12.0188 5.5 13.25 4.26878 13.25 2.75C 13.25 1.23122 12.0188 0 10.5 0Z"/>
<path id="path82_fill" d="M 10.5 1.2207e-05L 2.75 1.2207e-05C 1.23122 1.2207e-05 0 1.23123 0 2.75001C 0 4.2688 1.23122 5.50001 2.75 5.50001L 10.5 5.50001C 12.0188 5.50001 13.25 4.2688 13.25 2.75001C 13.25 1.23123 12.0188 1.2207e-05 10.5 1.2207e-05Z"/>
</defs>
</svg>
